<?xml version="1.0" standalone="no"?>
<!DOCTYPE svg PUBLIC "-//W3C//DTD SVG 20010904//EN"
 "http://www.w3.org/TR/2001/REC-SVG-20010904/DTD/svg10.dtd">
<svg version="1.0" xmlns="http://www.w3.org/2000/svg"
 width="1038.000000pt" height="1280.000000pt" viewBox="0 0 1038.000000 1280.000000"
 preserveAspectRatio="xMidYMid meet">

<g transform="translate(0.000000,1280.000000) scale(0.100000,-0.100000)"
fill="#000000" stroke="none">
<path d="M0 12585 l0 -214 33 -5 c17 -3 53 -8 80 -11 26 -4 47 -10 47 -15 0
-5 7 -7 16 -3 9 3 46 1 82 -5 37 -6 114 -16 172 -23 58 -6 116 -13 130 -14 14
-2 54 -6 90 -9 36 -4 99 -13 140 -21 41 -8 113 -18 160 -21 47 -3 93 -10 102
-15 9 -5 34 -9 55 -9 21 0 63 -6 93 -14 30 -8 66 -14 80 -14 14 0 61 -11 105
-25 44 -14 141 -35 215 -47 74 -12 143 -26 152 -31 10 -5 35 -9 57 -9 21 0 58
-7 81 -15 23 -8 53 -15 66 -15 67 0 204 -115 204 -172 0 -45 -16 -66 -73 -94
-71 -34 -112 -38 -257 -25 -161 15 -263 32 -430 72 -95 23 -170 38 -217 43
-87 10 -231 39 -254 51 -14 8 -34 14 -45 13 -10 0 -39 4 -63 10 -25 6 -48 9
-52 6 -4 -2 -25 2 -46 9 -66 24 -131 37 -188 37 -29 0 -57 5 -60 10 -3 6 -21
10 -38 10 -18 1 -43 7 -57 15 -14 8 -37 14 -51 15 -15 0 -43 7 -62 15 -20 8
-48 15 -62 15 -14 0 -33 4 -43 9 -27 15 -131 51 -147 51 -13 0 -15 -63 -15
-460 0 -444 1 -460 19 -470 11 -5 29 -10 40 -10 10 0 21 -5 23 -11 4 -11 220
-15 238 -4 3 2 27 -2 53 -10 25 -7 90 -16 144 -19 154 -8 233 -16 277 -26 23
-5 63 -10 89 -10 30 0 68 -9 102 -25 69 -33 87 -69 91 -184 4 -135 50 -325 96
-397 22 -35 33 -44 56 -44 30 0 92 -26 92 -38 0 -4 11 -19 24 -33 43 -46 48
-63 32 -111 -10 -30 -14 -92 -14 -210 0 -91 -3 -175 -6 -186 -4 -11 -2 -23 4
-27 6 -4 8 -15 5 -26 -4 -11 -2 -19 4 -19 6 0 11 -6 11 -14 0 -21 50 -71 85
-85 17 -6 53 -15 80 -20 28 -5 97 -19 155 -31 58 -12 123 -24 145 -26 70 -8
123 -33 130 -61 4 -16 1 -32 -8 -42 -8 -9 -12 -21 -10 -28 3 -7 -12 -14 -39
-17 -24 -3 -65 -9 -93 -13 -54 -7 -193 -7 -320 2 -44 3 -115 8 -159 10 -43 2
-81 7 -85 12 -3 4 -42 9 -86 10 -44 2 -98 7 -120 12 -22 5 -85 15 -140 21 -55
7 -131 19 -170 27 -38 8 -95 16 -125 19 -30 2 -56 9 -58 13 -4 12 -72 2 -90
-12 -9 -7 -16 -5 -25 6 -22 29 -169 54 -340 57 -18 0 -40 13 -65 37 l-37 37
-3 -444 c-2 -348 0 -445 10 -452 7 -4 36 -8 63 -8 28 0 79 -5 114 -10 35 -6
102 -13 150 -15 122 -6 140 -9 196 -36 56 -27 69 -40 52 -51 -12 -8 -10 -9 16
-12 12 -1 12 -20 1 -106 -8 -59 -7 -237 1 -250 4 -6 1 -17 -5 -25 -10 -12 -10
-15 -1 -15 20 0 114 42 146 66 17 12 39 25 50 28 11 4 28 13 39 21 17 13 17
15 3 29 -9 9 -22 16 -29 16 -9 0 -10 3 -2 8 7 4 15 41 19 82 4 41 12 78 18 82
7 4 1 20 -16 45 -30 44 -34 75 -12 93 8 7 13 16 10 20 -11 18 23 24 140 26 66
1 130 2 143 2 12 0 43 0 70 -1 26 0 65 0 87 2 55 5 255 -20 255 -32 0 -5 8 -3
17 4 11 10 14 10 9 2 -12 -22 14 -14 37 10 37 39 150 187 216 282 34 50 82
115 106 145 25 30 54 71 65 91 13 24 32 42 58 52 21 8 68 43 105 76 62 56 71
61 114 61 33 0 59 -8 92 -28 79 -48 119 -59 199 -54 64 4 76 2 95 -16 28 -26
69 -42 110 -42 69 0 77 -7 77 -66 0 -67 -7 -71 -108 -57 -56 8 -86 19 -118 41
-24 17 -59 34 -79 38 -19 3 -35 10 -35 15 0 5 -9 9 -20 9 -27 0 -107 41 -145
74 -16 14 -34 25 -40 23 -5 -2 -18 -26 -28 -53 -20 -55 -16 -82 29 -205 26
-70 114 -226 163 -287 15 -21 40 -59 55 -87 15 -27 37 -66 49 -86 29 -48 208
-280 308 -399 46 -55 98 -133 125 -185 26 -49 52 -97 59 -105 7 -8 25 -37 41
-65 15 -27 30 -52 33 -55 3 -3 11 -14 18 -25 33 -56 99 -167 131 -220 42 -72
70 -95 118 -100 40 -4 113 -53 94 -65 -8 -5 -5 -9 9 -13 14 -3 21 -13 21 -29
-1 -19 -2 -20 -10 -6 -12 20 -42 14 -58 -13 -10 -16 -9 -19 3 -19 8 0 15 5 15
10 0 6 5 10 10 10 16 0 12 -30 -5 -36 -9 -4 -15 -19 -15 -38 0 -24 3 -27 10
-16 8 12 10 11 10 -7 0 -12 4 -24 9 -27 12 -8 33 19 23 29 -4 4 -1 6 7 3 8 -2
22 -18 31 -36 10 -17 22 -37 27 -44 6 -7 29 -58 53 -113 23 -55 69 -143 102
-195 l60 -95 88 -41 88 -42 -1 -68 c-1 -86 15 -174 43 -239 13 -27 30 -68 40
-90 10 -22 30 -71 45 -110 33 -83 103 -225 111 -225 3 0 3 17 -1 38 -4 24 -1
50 9 73 8 19 18 63 22 98 7 66 28 101 61 101 10 0 29 9 42 19 l24 19 -22 11
c-18 10 -21 18 -17 44 6 38 -2 52 -28 52 -20 0 -48 62 -59 129 -3 21 -22 61
-41 91 -42 62 -77 188 -58 207 12 12 17 3 43 -82 21 -66 62 -90 154 -90 57 0
78 -4 98 -20 29 -23 43 -25 54 -7 9 14 82 61 87 56 12 -15 24 -105 25 -197 2
-94 -1 -114 -18 -144 -35 -58 -79 -222 -76 -277 2 -29 -2 -59 -11 -76 -10 -19
-11 -31 -4 -35 6 -4 -7 -12 -30 -19 -22 -6 -40 -16 -40 -21 0 -5 -26 -9 -59
-9 -93 2 -109 -16 -86 -95 7 -26 246 -509 310 -626 46 -84 75 -159 64 -165
-13 -9 -57 20 -121 80 -98 94 -121 107 -201 116 -39 4 -112 13 -160 19 -49 7
-99 9 -111 6 -26 -6 -59 -70 -51 -97 3 -10 43 -49 87 -86 135 -113 308 -254
398 -325 47 -37 101 -82 121 -100 58 -54 150 -130 214 -178 33 -25 95 -73 138
-107 70 -57 82 -63 124 -63 41 0 257 -47 432 -95 88 -24 86 -7 -9 65 -50 38
-87 71 -164 143 -28 26 -77 64 -108 84 -32 20 -58 40 -58 44 0 3 -28 28 -62
54 -35 27 -83 67 -108 89 -25 23 -70 61 -100 86 -75 62 -170 157 -170 171 0
17 158 -80 168 -104 2 -4 16 -14 32 -22 34 -18 38 -14 75 75 52 122 112 333
125 435 4 33 17 85 28 115 11 30 28 92 37 136 19 86 18 110 -5 524 -5 96 -12
229 -16 295 l-6 120 45 103 c41 91 50 132 28 132 -18 0 -39 64 -45 140 -4 47
-16 140 -26 207 -11 68 -20 142 -20 166 0 57 -22 87 -63 87 -45 0 -107 -19
-135 -41 -22 -17 -25 -17 -49 -1 -20 12 -46 16 -108 15 l-83 -2 -39 47 c-53
63 -62 82 -52 110 13 35 81 57 237 74 91 10 119 10 148 -1 19 -7 38 -10 42 -6
4 3 7 41 7 83 0 98 -26 154 -80 172 -19 6 -47 27 -62 47 -18 23 -57 50 -117
80 -50 25 -117 64 -150 86 -62 42 -76 40 -76 -11 0 -12 -7 -25 -15 -29 -21 -7
-32 4 -17 19 7 7 12 33 12 58 0 42 -5 51 -53 102 -55 60 -124 143 -138 168 -7
12 -12 13 -29 3 -11 -7 -31 -13 -45 -13 -36 0 -34 -37 3 -51 l27 -11 -25 -11
-25 -11 28 -4 c27 -3 33 -16 19 -40 -10 -15 -38 -6 -46 15 -6 14 -9 13 -31 -1
-13 -9 -32 -16 -42 -16 -17 1 -63 32 -63 44 0 12 45 46 61 46 23 0 66 39 70
65 2 11 14 24 27 30 23 10 29 29 13 40 -13 8 -144 192 -290 406 -46 68 -93
135 -105 149 -20 22 -31 39 -71 101 -167 264 -375 541 -447 597 -32 25 -60 55
-63 66 -2 12 -6 38 -9 58 -2 21 -10 43 -15 50 -6 7 -27 34 -45 59 -27 36 -54
55 -129 93 -88 44 -158 96 -127 96 9 0 8 6 -5 20 -10 11 -14 20 -9 20 14 0
159 -73 162 -82 2 -4 8 -8 14 -8 5 0 16 -7 24 -15 17 -17 84 -21 84 -5 0 6
-10 10 -22 10 -19 0 -20 2 -8 10 8 5 34 10 57 10 23 0 64 5 90 10 28 6 60 7
78 2 l30 -9 -40 -18 c-22 -9 -34 -19 -28 -22 20 -7 103 28 103 43 0 8 9 14 21
14 11 0 30 5 42 11 39 21 148 121 187 173 40 53 113 188 144 265 9 24 19 42
21 39 5 -5 -23 -104 -41 -145 -27 -59 -14 -58 17 2 34 64 58 141 60 190 1 18
5 9 10 -25 4 -32 4 -59 -2 -64 -5 -6 -9 -21 -9 -34 0 -22 1 -22 16 -7 9 9 26
15 38 13 22 -3 21 0 15 -98 -2 -38 -31 -109 -62 -152 -11 -14 -17 -30 -13 -36
3 -5 -3 -17 -14 -27 -11 -10 -20 -27 -20 -37 0 -11 -4 -16 -10 -13 -5 3 -10
-1 -10 -9 0 -23 -54 -80 -110 -116 -59 -38 -183 -80 -260 -89 l-55 -6 25 -24
c79 -75 304 -119 385 -75 17 9 41 23 55 30 14 7 34 21 43 31 20 19 125 159
143 189 10 17 11 15 8 -11 -2 -16 -2 -25 2 -18 3 7 11 10 18 7 14 -5 66 36 66
53 0 7 10 21 22 33 18 17 19 20 5 20 -9 0 -17 5 -17 12 0 6 -7 3 -15 -8 -11
-15 -14 -16 -15 -3 0 8 3 19 8 25 4 5 -1 1 -10 -9 -10 -11 -18 -25 -18 -32 0
-6 -9 -20 -20 -30 -14 -13 -9 3 18 59 30 62 38 72 43 53 5 -22 5 -22 12 3 10
35 9 42 -5 34 -7 -4 -8 -3 -4 4 4 7 14 24 22 40 l16 27 -5 -37 c-6 -37 6 -61
16 -36 3 7 6 3 6 -9 1 -14 12 -28 30 -38 17 -8 36 -23 43 -33 14 -19 54 -40
43 -22 -3 6 -1 10 4 10 15 0 14 37 -1 43 -7 3 6 6 30 6 23 1 42 5 42 9 0 5 16
9 35 10 20 1 42 8 50 16 9 8 24 18 35 21 11 3 20 11 20 17 0 5 7 7 16 4 8 -3
28 1 44 9 16 8 40 15 55 15 14 0 33 7 43 16 34 31 127 84 157 90 50 9 100 1
100 -16 0 -15 24 -30 59 -37 19 -3 51 -34 71 -67 6 -9 21 -18 35 -20 14 -3 26
-5 28 -7 7 -6 29 -4 45 4 10 5 26 5 35 1 9 -3 41 -6 70 -6 47 1 52 -1 53 -21
1 -17 2 -18 6 -4 6 21 2 22 62 -9 30 -16 90 -67 150 -128 147 -151 183 -181
236 -205 26 -12 50 -20 52 -18 7 7 -38 57 -52 57 -7 0 -35 22 -63 48 -28 27
-71 65 -95 85 -46 38 -242 247 -217 232 8 -5 29 -18 45 -30 27 -18 41 -19 115
-15 112 8 143 -1 155 -41 8 -25 20 -35 60 -50 28 -11 71 -19 96 -19 29 0 51
-6 59 -15 7 -8 19 -15 26 -15 8 0 14 -7 14 -15 0 -8 5 -15 11 -15 6 0 8 9 4
20 -5 16 -2 20 15 20 15 0 20 -5 17 -14 -5 -14 10 -36 25 -36 4 0 8 9 8 20 0
17 7 20 39 20 22 0 52 -5 68 -12 46 -18 135 -11 155 13 12 14 15 26 9 37 -5 9
-7 50 -4 91 6 83 7 82 -67 135 -61 44 -112 69 -119 57 -4 -6 -12 -6 -20 -2
-11 7 -10 11 5 20 15 10 16 13 5 18 -17 7 -96 87 -110 111 -9 14 -12 15 -20 3
-12 -18 -31 -5 -31 20 0 13 4 18 12 13 7 -4 8 -3 4 4 -4 7 -15 12 -25 12 -22
0 -51 30 -51 53 0 9 -7 17 -15 17 -8 0 -15 4 -15 9 0 6 -14 18 -30 28 -16 9
-30 23 -30 30 0 7 -13 22 -30 35 -16 12 -32 30 -36 40 -3 10 -12 18 -20 18 -8
0 -14 7 -14 15 0 8 -7 15 -16 15 -25 0 -156 72 -177 97 -10 13 -21 22 -25 21
-10 -2 -92 77 -92 89 0 5 -30 20 -66 32 -43 16 -72 33 -86 52 -12 15 -46 40
-77 54 -118 56 -181 89 -181 97 0 4 -19 8 -43 8 -24 0 -48 5 -54 11 -6 6 -41
14 -77 16 -60 5 -69 9 -96 40 -17 18 -30 38 -30 42 0 5 -8 7 -19 4 -10 -3 -22
0 -25 6 -11 17 -26 13 -27 -6 0 -11 -3 -13 -6 -5 -7 18 -21 15 -28 -8 -3 -11
-15 -20 -26 -20 -10 0 -19 -3 -19 -6 0 -9 42 -68 55 -76 5 -4 6 -8 2 -8 -8 0
-118 114 -178 185 -19 22 -49 56 -66 75 -18 19 -33 40 -33 45 0 33 -223 233
-345 309 -69 43 -84 83 -40 106 27 14 34 50 11 50 -36 0 -46 -12 -46 -57 0
-39 -2 -44 -17 -38 -35 15 -156 46 -160 41 -3 -2 23 -12 56 -22 41 -11 76 -30
106 -56 31 -28 50 -38 64 -33 10 3 25 0 32 -8 8 -7 39 -31 69 -54 60 -44 190
-165 190 -176 0 -4 -7 -7 -15 -7 -8 0 -15 -4 -15 -9 0 -5 -14 -14 -30 -20 -27
-9 -33 -7 -57 17 -57 57 -130 115 -173 137 -90 45 -219 79 -310 80 -86 1 -106
-2 -258 -28 -96 -17 -142 -44 -54 -32 44 6 52 4 52 -9 0 -12 11 -16 48 -16 65
-1 124 -16 139 -36 7 -9 35 -20 63 -25 76 -12 213 -85 271 -144 58 -58 90
-134 88 -204 -1 -25 6 -66 15 -91 10 -25 20 -58 22 -75 15 -89 16 -115 7 -115
-11 0 -21 24 -43 98 -13 40 -40 59 -40 27 0 -8 5 -15 10 -15 6 0 10 -7 10 -17
0 -9 -3 -13 -7 -10 -3 4 -13 1 -22 -7 -9 -7 -26 -16 -38 -18 -24 -6 -63 16
-63 35 0 25 -51 171 -71 203 -11 19 -27 34 -34 34 -7 0 -16 6 -18 13 -3 7 -6
5 -6 -5 -1 -10 -5 -18 -9 -18 -9 0 -66 53 -102 96 -26 31 -72 64 -90 64 -5 0
-38 21 -72 46 -64 47 -160 96 -181 93 -7 -2 -43 1 -80 5 -119 14 -254 -33
-324 -112 -43 -48 -109 -137 -116 -154 -4 -10 -13 -15 -25 -11 -11 2 -27 -3
-37 -14 -18 -17 -19 -17 -11 2 20 56 79 138 151 211 100 101 177 142 283 151
l72 6 56 66 c31 36 66 72 78 80 12 8 23 18 26 22 10 13 70 39 92 39 20 1 21 2
6 11 -10 5 -18 16 -18 24 0 15 49 45 73 45 8 0 21 7 28 16 15 18 247 174 260
174 4 0 9 3 11 8 2 4 30 21 64 38 61 30 66 46 18 56 -16 3 -19 12 -19 71 0 37
3 67 7 67 3 0 9 18 13 40 6 36 25 57 25 28 0 -27 18 10 24 50 l6 42 -2015 0
-2015 0 0 -215z m3963 -112 c-7 -2 -19 -2 -25 0 -7 3 -2 5 12 5 14 0 19 -2 13
-5z m107 -688 c13 -14 21 -27 19 -30 -6 -5 -59 39 -59 49 0 13 17 5 40 -19z
m-619 -66 c69 -58 119 -116 141 -166 23 -52 19 -82 -5 -36 -9 17 -44 53 -78
80 -34 26 -74 67 -91 90 -16 24 -40 46 -53 49 -27 7 -33 19 -12 27 21 9 50 -4
98 -44z m884 31 c3 -5 -1 -20 -9 -32 -9 -12 -16 -17 -16 -10 0 6 -7 12 -15 12
-20 0 -19 17 3 29 22 13 29 13 37 1z m-1285 -60 c-12 -8 -12 -10 5 -10 13 0 6
-7 -20 -19 -48 -22 -121 -99 -155 -163 -28 -53 -19 -76 13 -37 34 39 137 123
137 110 0 -6 -4 -11 -10 -11 -5 0 -10 -4 -10 -9 0 -5 17 -3 38 5 44 16 96 18
87 4 -3 -5 4 -10 17 -11 13 -1 -2 -7 -32 -13 -109 -25 -185 -76 -248 -169 -18
-26 -35 -47 -38 -47 -6 0 1 14 28 52 24 35 23 37 -17 34 -43 -4 -43 3 -5 72
16 30 26 60 23 70 -3 9 -3 14 1 10 5 -4 33 21 64 54 32 34 71 67 87 74 35 16
57 18 35 4z m1412 -50 c18 -16 28 -30 23 -30 -6 0 -3 -5 5 -10 12 -7 12 -12 2
-22 -14 -14 -16 -32 -3 -24 5 3 11 -1 14 -8 3 -8 1 -17 -6 -19 -7 -3 -2 -4 11
-4 12 1 22 7 22 14 0 7 5 13 10 13 6 0 10 -4 10 -8 0 -4 20 -28 45 -53 25 -24
50 -51 55 -61 8 -14 5 -14 -30 3 -22 11 -47 16 -57 12 -26 -9 -77 -53 -85 -72
-5 -13 -7 -13 -9 4 -1 11 -6 -9 -9 -45 -6 -53 -7 -44 -7 55 1 135 -9 169 -63
222 -39 38 -35 63 9 63 19 0 42 -11 63 -30z m-980 -105 c6 -12 -1 -8 -18 10
-54 59 -68 79 -31 45 21 -19 43 -44 49 -55z m-77 19 c28 -25 41 -40 30 -35
-25 13 -100 81 -89 81 5 0 32 -21 59 -46z m-185 -74 c20 -10 43 -26 51 -36 9
-11 -3 -7 -35 11 -40 24 -62 29 -113 30 -65 0 -84 10 -35 18 40 7 91 -2 132
-23z m260 -10 c12 -16 19 -30 16 -30 -2 0 -14 14 -26 30 -12 17 -19 30 -16 30
2 0 14 -13 26 -30z m-457 -15 c-17 -14 -48 -44 -68 -68 l-37 -42 27 40 c25 36
90 95 104 95 3 0 -8 -12 -26 -25z m40 -26 c-4 -15 0 -22 16 -26 12 -3 24 -16
27 -29 3 -13 9 -23 13 -22 3 0 16 0 29 -1 20 -1 21 -3 9 -15 -8 -8 -27 -16
-43 -19 l-29 -4 32 -2 c17 0 35 -6 39 -12 5 -8 -2 -10 -22 -6 -36 6 -71 -7
-106 -41 -16 -14 -28 -22 -28 -17 0 5 12 22 28 39 l27 29 -35 -24 c-19 -13
-41 -24 -49 -24 -8 0 -16 -6 -19 -14 -3 -8 0 -11 7 -7 18 12 13 -10 -10 -35
l-20 -24 4 36 c3 20 1 41 -5 47 -15 15 26 96 77 149 45 47 66 55 58 22z m1378
-210 c-6 -16 -10 -18 -10 -7 -1 22 12 55 16 42 2 -6 -1 -22 -6 -35z m363 -10
c-8 -13 -21 -11 -27 5 -4 10 0 12 14 9 10 -3 16 -9 13 -14z m-1649 -30 c64
-59 95 -130 95 -219 0 -63 -2 -72 -20 -77 -11 -3 -20 -9 -20 -14 0 -10 -53
-39 -72 -39 -7 0 4 11 25 25 20 14 37 32 37 40 0 8 7 18 15 23 14 7 14 13 0
52 -10 30 -12 47 -5 54 16 16 12 50 -9 63 -22 14 -31 8 -31 -23 0 -12 -7 -29
-15 -38 -22 -22 -18 -40 16 -77 23 -24 27 -34 17 -40 -17 -11 -41 -11 -34 0
12 19 -22 33 -53 23 -28 -10 -30 -8 -40 20 -6 17 -11 39 -11 49 0 24 -26 25
-39 2 -8 -15 -12 -12 -27 19 -16 35 -16 37 5 66 11 17 21 34 21 40 0 21 61 92
80 92 11 0 40 -18 65 -41z m133 -24 c-3 -3 -9 2 -12 12 -6 14 -5 15 5 6 7 -7
10 -15 7 -18z m-521 -27 c-3 -8 -6 -5 -6 6 -1 11 2 17 5 13 3 -3 4 -12 1 -19z
m544 -66 c1 -39 -4 -79 -11 -89 -11 -17 -11 -17 -6 0 3 10 6 53 6 94 0 42 2
74 5 71 3 -3 6 -37 6 -76z m76 -14 c-3 -8 -6 -5 -6 6 -1 11 2 17 5 13 3 -3 4
-12 1 -19z m1793 2 c0 -5 -4 -10 -10 -10 -5 0 -10 5 -10 10 0 6 5 10 10 10 6
0 10 -4 10 -10z m-2138 -115 c3 -27 1 -32 -9 -23 -15 12 -18 58 -4 58 5 0 11
-16 13 -35z m-125 3 c-3 -8 -6 -5 -6 6 -1 11 2 17 5 13 3 -3 4 -12 1 -19z
m463 -55 c-10 -16 -11 -15 -6 7 3 14 7 36 7 50 2 19 3 18 6 -7 2 -18 -1 -41
-7 -50z m-88 35 c-9 -9 -12 -7 -12 12 0 19 3 21 12 12 9 -9 9 -15 0 -24z m-15
-40 c-3 -8 -6 -5 -6 6 -1 11 2 17 5 13 3 -3 4 -12 1 -19z m1733 -18 c0 -5 -4
-10 -10 -10 -5 0 -10 5 -10 10 0 6 5 10 10 10 6 0 10 -4 10 -10z m-1696 -251
c-45 -48 -121 -83 -180 -83 -44 0 -58 5 -117 47 -87 62 -87 71 0 12 54 -36 76
-45 111 -45 48 0 130 35 176 75 40 35 46 31 10 -6z m206 2 c0 -5 -9 -19 -21
-32 l-20 -24 17 33 c19 33 24 38 24 23z m-357 -23 c-2 -5 -24 -8 -48 -8 -24 0
-46 3 -48 8 -3 4 19 7 48 7 29 0 51 -3 48 -7z m387 -42 c0 -2 -7 -9 -15 -16
-13 -11 -14 -10 -9 4 5 14 24 23 24 12z m1799 -50 c-3 -3 -11 5 -18 17 -13 21
-12 21 5 5 10 -10 16 -20 13 -22z m51 -40 c21 -24 22 -27 5 -19 -11 6 -25 8
-31 6 -7 -2 -10 6 -6 22 2 14 5 25 6 23 0 -2 12 -16 26 -32z m75 -16 c10 -11
16 -20 13 -20 -3 0 -13 9 -23 20 -10 11 -16 20 -13 20 3 0 13 -9 23 -20z
m-2124 -10 c-13 -11 -28 -20 -35 -20 -6 0 3 9 19 19 39 25 46 25 16 1z m2055
-15 c17 -16 14 -18 -10 -9 -9 3 -16 10 -16 15 0 13 9 11 26 -6z m-1089 -17
c-3 -8 -6 -5 -6 6 -1 11 2 17 5 13 3 -3 4 -12 1 -19z m1143 -10 l23 -33 -26
24 c-15 14 -27 28 -27 33 0 14 5 9 30 -24z m-2190 4 c-19 -9 -68 -17 -110 -18
l-75 -3 90 15 c50 8 95 16 100 18 29 12 25 2 -5 -12z m-417 -8 c9 -10 -4 -34
-18 -34 -20 0 -30 21 -14 31 17 10 24 11 32 3z m162 -72 c-5 -5 -79 39 -100
60 -11 11 8 2 42 -19 34 -21 60 -39 58 -41z m290 42 c-32 -25 -96 -56 -103
-50 -7 8 -5 9 53 39 56 29 80 34 50 11z m1012 -26 c-3 -8 -6 -5 -6 6 -1 11 2
17 5 13 3 -3 4 -12 1 -19z m-1032 -38 c-3 -5 -12 -10 -18 -10 -7 0 -6 4 3 10
19 12 23 12 15 0z m-72 -27 c-13 -2 -33 -2 -45 0 -13 2 -3 4 22 4 25 0 35 -2
23 -4z m994 -75 c-3 -8 -6 -5 -6 6 -1 11 2 17 5 13 3 -3 4 -12 1 -19z m-1179
-215 c-9 -21 -13 -55 -10 -75 3 -26 0 -38 -8 -38 -17 0 -6 124 12 144 20 22
22 11 6 -31z m43 -153 c36 0 38 -17 3 -30 -17 -7 -32 -7 -45 0 -23 13 -26 45
-3 36 9 -3 29 -6 45 -6z m17 -878 c3 -34 -1 -43 -26 -61 l-29 -20 -22 20 c-11
11 -21 29 -21 39 0 11 -4 20 -10 20 -5 0 -10 -8 -10 -17 -1 -17 -2 -16 -11 1
-18 30 3 62 48 73 53 14 77 -2 81 -55z m863 -112 c-10 -25 -10 -24 -10 6 -1
17 2 47 7 65 l7 34 3 -40 c2 -23 -1 -52 -7 -65z m-997 -16 c55 -28 116 -80
116 -101 0 -17 -43 -27 -87 -18 -46 8 -112 77 -113 118 0 34 16 35 84 1z
m1024 -51 c-2 -11 -14 -19 -31 -21 -28 -3 -28 -3 -10 16 23 25 46 28 41 5z
m-910 -264 c68 -34 60 -37 -25 -7 -61 21 -63 21 -103 3 -46 -21 -55 -17 -46
21 7 25 8 26 61 19 30 -3 81 -20 113 -36z m737 -129 c0 -18 -53 -26 -68 -11
-7 7 -3 13 14 20 32 13 54 9 54 -9z m273 -328 c3 -18 -1 -22 -23 -22 -29 0
-45 27 -24 41 22 14 44 6 47 -19z m192 18 c12 -8 11 -10 -7 -10 -13 0 -23 5
-23 10 0 13 11 13 30 0z m-510 -9 c0 -6 -4 -13 -10 -16 -16 -10 -12 -35 5 -35
24 0 29 -27 12 -73 -9 -23 -18 -57 -22 -75 -6 -29 -10 -33 -33 -30 -39 4 -49
50 -33 147 7 42 15 79 18 84 6 10 63 9 63 -2z m599 -7 c45 -18 63 -44 28 -40
-31 4 -80 29 -85 44 -5 16 9 15 57 -4z m314 5 c40 -21 77 -62 77 -87 0 -26 5
-26 -107 -6 l-32 6 -3 -53 c-4 -72 -22 -68 -29 6 -3 33 -11 72 -19 87 -10 22
-11 30 0 43 15 18 81 20 113 4z m-716 -36 c5 -15 -56 -28 -69 -15 -6 6 -7 15
-3 22 9 14 67 9 72 -7z m-8 -132 c-12 -40 -34 -69 -45 -59 -9 10 9 89 24 104
24 25 35 2 21 -45z m-56 -2 c-3 -11 -9 -22 -14 -25 -5 -3 -9 -14 -9 -24 0 -23
-26 -39 -51 -33 -27 8 -24 19 23 74 40 48 62 51 51 8z m352 -89 c18 -20 18
-21 -1 -34 -22 -16 -44 -4 -44 24 0 34 19 39 45 10z m-7 -410 c5 -36 8 -67 6
-69 -2 -2 -14 0 -27 6 -38 17 -51 79 -36 171 19 121 32 133 41 37 4 -44 11
-109 16 -145z m-648 -14 c0 -12 -5 -7 -19 24 -11 24 -11 24 3 6 9 -11 16 -24
16 -30z m1257 -16 c9 -16 11 -43 7 -76 -4 -33 -2 -54 5 -58 6 -4 9 -12 5 -17
-6 -11 11 -103 33 -172 11 -35 13 -51 5 -59 -10 -10 -21 -5 -77 36 -7 5 -20 6
-29 3 -15 -6 -17 -19 -14 -100 l3 -92 -35 0 c-19 0 -50 8 -70 18 -19 10 -47
18 -62 19 -16 1 -28 7 -28 14 0 8 12 17 28 20 15 4 35 14 45 22 16 14 16 17 2
33 -17 18 -44 16 -80 -7 -31 -20 -93 -28 -109 -15 -12 10 -12 16 -1 39 22 47
27 82 11 82 -7 0 -16 -9 -19 -20 -7 -25 -64 -27 -113 -4 -37 18 -104 12 -104
-9 0 -7 7 -34 15 -61 20 -66 19 -83 -6 -91 -30 -10 -40 5 -59 82 l-16 68 -95
11 c-106 13 -201 45 -236 80 -13 13 -28 24 -33 24 -6 0 -10 7 -10 15 0 8 -9
19 -20 25 -11 6 -20 8 -20 5 0 -3 -10 3 -22 15 -12 11 -28 20 -35 20 -7 0 -13
5 -13 11 0 7 -10 21 -23 33 -35 32 -77 93 -77 111 0 10 45 -24 116 -90 64 -58
133 -114 153 -124 58 -29 131 -43 215 -42 98 1 146 14 216 56 30 19 78 38 105
43 163 32 364 114 384 159 14 30 41 27 58 -7z m-859 -27 c3 -10 -13 -13 -57
-13 -62 0 -84 15 -33 23 45 7 85 3 90 -10z m421 3 c15 -18 4 -46 -18 -46 -10
0 -26 6 -36 14 -16 12 -17 16 -6 30 16 20 45 21 60 2z m-14 -396 c3 -5 -1 -10
-9 -10 -9 0 -16 5 -16 10 0 6 4 10 9 10 6 0 13 -4 16 -10z m417 -207 c16 -48
17 -285 0 -403 -6 -47 -14 -152 -18 -235 -5 -136 -28 -337 -52 -455 -8 -39
-25 -85 -52 -140 -4 -8 -18 -15 -31 -15 -30 0 -69 33 -52 43 6 4 14 37 16 72
3 36 6 70 7 75 2 6 0 26 -4 45 -6 28 0 53 29 125 33 81 38 108 54 276 10 103
21 191 25 197 3 5 6 106 7 223 1 118 4 217 6 222 2 4 15 7 28 7 18 0 26 -8 37
-37z m-282 -754 c0 -35 -4 -49 -14 -49 -26 0 -37 75 -14 98 19 19 28 3 28 -49z"/>
<path d="M4567 11473 c-4 -3 -7 -11 -7 -17 0 -6 5 -4 11 4 8 11 12 12 16 3 2
-7 9 -13 15 -13 6 0 6 6 -2 15 -14 16 -23 19 -33 8z"/>
<path d="M4472 11440 c0 -14 2 -19 5 -12 2 6 2 18 0 25 -3 6 -5 1 -5 -13z"/>
<path d="M2945 11300 c-3 -5 -1 -10 4 -10 6 0 11 5 11 10 0 6 -2 10 -4 10 -3
0 -8 -4 -11 -10z"/>
<path d="M3059 11146 c-7 -14 -9 -32 -6 -41 6 -13 12 -12 47 10 22 14 45 25
51 25 6 0 9 6 7 13 -3 6 -23 13 -46 15 -36 3 -43 0 -53 -22z"/>
<path d="M3050 11060 c0 -5 5 -10 10 -10 6 0 10 5 10 10 0 6 -4 10 -10 10 -5
0 -10 -4 -10 -10z"/>
<path d="M3011 8973 c-13 -15 -13 -16 6 -11 16 4 20 2 16 -8 -3 -8 -9 -14 -14
-14 -5 0 -9 -9 -9 -20 0 -11 4 -20 8 -20 8 0 52 71 52 84 0 13 -46 4 -59 -11z"/>
<path d="M4600 12775 c28 -15 60 -24 85 -23 l40 1 -40 7 -40 7 46 2 c28 0 52
7 59 16 11 13 0 15 -91 15 l-104 -1 45 -24z"/>
<path d="M5085 12780 c-17 -19 -17 -21 -2 -38 10 -11 17 -36 17 -60 0 -23 5
-42 10 -42 6 0 10 -18 10 -40 0 -22 -4 -40 -10 -40 -5 0 -10 -4 -10 -10 0 -13
56 -13 81 0 13 8 19 7 19 0 0 -6 5 -8 10 -5 6 4 8 11 4 16 -3 5 1 21 10 34 20
30 20 45 1 45 -11 0 -15 11 -15 40 0 33 -3 40 -20 40 -17 0 -20 7 -20 40 0 39
-1 40 -33 40 -21 0 -41 -8 -52 -20z"/>
<path d="M5280 12790 c0 -5 5 -10 10 -10 6 0 10 5 10 10 0 6 -4 10 -10 10 -5
0 -10 -4 -10 -10z"/>
<path d="M5360 12789 c0 -5 5 -7 10 -4 6 3 10 8 10 11 0 2 -4 4 -10 4 -5 0
-10 -5 -10 -11z"/>
<path d="M8640 12786 c0 -7 -9 -16 -20 -19 -17 -4 -20 -14 -20 -56 0 -65 23
-109 64 -124 11 -5 16 -13 12 -23 -8 -20 10 -43 41 -55 15 -6 23 -17 23 -33 0
-17 7 -26 25 -30 13 -3 29 -15 35 -26 6 -11 18 -20 27 -20 12 0 13 -3 3 -15
-10 -12 -9 -16 6 -21 34 -13 47 -26 32 -35 -10 -7 -10 -9 0 -9 6 0 12 -5 12
-11 0 -6 -7 -8 -16 -5 -8 3 -13 2 -10 -3 9 -14 -46 -33 -107 -37 -68 -4 -79
-9 -75 -33 2 -9 -5 -29 -15 -45 -18 -26 -18 -27 5 -46 21 -17 22 -19 7 -37 -9
-10 -14 -24 -12 -30 3 -7 -1 -15 -9 -17 -56 -17 -55 -16 -29 -37 21 -17 23
-23 13 -40 -16 -24 -15 -29 3 -29 8 0 15 -7 15 -15 0 -9 11 -21 25 -27 14 -6
25 -15 25 -20 0 -4 8 -8 18 -8 10 0 29 -8 42 -17 14 -10 40 -19 58 -20 18 -1
44 -11 58 -22 14 -11 38 -22 54 -26 16 -3 34 -13 41 -21 6 -8 24 -14 40 -14
16 0 29 -4 29 -9 0 -5 18 -11 40 -15 22 -3 40 -11 40 -16 0 -6 9 -10 20 -10
12 0 32 -12 46 -27 21 -23 28 -25 44 -15 12 7 21 8 25 2 12 -19 86 -51 105
-45 10 3 25 -1 33 -10 9 -8 23 -15 31 -15 12 0 16 -10 16 -39 0 -23 5 -41 13
-44 26 -9 -15 -37 -54 -37 -34 0 -39 -3 -39 -22 0 -23 -1 -22 -13 2 -17 34
-39 31 -56 -6 -13 -30 -15 -31 -110 -41 -60 -7 -100 -7 -108 -1 -7 6 -14 5
-18 -3 -6 -8 -41 -9 -129 -5 -164 9 -187 9 -199 -3 -6 -6 -34 -11 -62 -11 -30
0 -59 -6 -71 -15 -10 -8 -27 -15 -36 -15 -10 0 -18 -7 -18 -15 0 -17 -16 -20
-25 -5 -11 17 -35 -9 -35 -36 0 -24 -23 -33 -35 -14 -3 6 -1 10 6 10 7 0 5 8
-6 20 -14 15 -20 17 -26 8 -6 -9 -11 -5 -18 12 -9 21 -11 15 -8 -35 1 -33 -2
-61 -7 -62 -10 -1 -26 -24 -26 -36 0 -5 5 -5 10 -2 16 10 12 -55 -5 -71 -8 -9
-15 -32 -15 -53 0 -36 2 -38 31 -39 39 -1 46 -8 31 -32 -7 -11 -12 -27 -12
-35 0 -8 -4 -15 -10 -15 -5 0 -10 5 -10 10 0 15 -29 12 -45 -4 -7 -7 -15 -28
-17 -47 -2 -26 -8 -35 -25 -37 -19 -3 -23 -10 -23 -43 0 -21 5 -39 10 -39 6 0
10 -18 10 -40 0 -29 4 -40 15 -40 19 0 21 -56 3 -63 -10 -4 -10 -8 1 -15 11
-8 11 -14 -3 -33 -20 -29 -21 -55 -2 -66 8 -4 16 -26 18 -48 3 -35 7 -41 36
-51 32 -10 33 -10 13 -28 -12 -11 -27 -16 -37 -12 -12 5 -15 2 -10 -10 3 -8 6
-19 6 -24 0 -5 15 -11 33 -13 28 -4 27 -4 -5 -3 -34 1 -38 -1 -38 -22 0 -13
-8 -34 -19 -47 -14 -19 -17 -35 -13 -75 3 -33 1 -50 -7 -50 -6 0 -11 -17 -11
-40 0 -29 -4 -40 -15 -40 -8 0 -15 -7 -15 -16 0 -14 -3 -14 -15 -4 -13 11 -15
8 -15 -20 0 -25 3 -30 13 -22 9 8 12 -4 12 -54 0 -35 -3 -64 -7 -64 -5 0 -8
-13 -8 -29 0 -20 -6 -31 -17 -34 -14 -3 -12 -6 10 -15 15 -6 27 -16 27 -22 0
-15 25 -40 40 -40 6 0 18 -7 26 -15 9 -8 11 -15 5 -15 -5 0 -13 5 -16 10 -3 6
-14 10 -23 10 -14 0 -13 -2 3 -14 11 -7 36 -44 55 -81 19 -37 41 -70 47 -72 7
-3 13 -11 13 -17 0 -7 26 -37 58 -68 31 -30 85 -86 118 -124 132 -147 226
-248 375 -401 l110 -111 107 -6 c175 -10 193 -9 222 9 65 42 123 46 195 15 43
-18 182 -47 190 -38 1 1 -2 14 -8 28 -12 31 -16 163 -4 171 4 3 4 62 -2 130
-5 68 -8 144 -6 169 8 84 25 918 30 1475 9 839 24 1242 48 1315 40 117 80 261
87 315 4 33 24 122 44 198 20 77 36 143 36 148 0 5 -277 9 -675 9 -568 0 -675
-2 -675 -14z m-264 -1857 c10 -17 -13 -36 -27 -22 -12 12 -4 33 11 33 5 0 12
-5 16 -11z m44 -519 c0 -5 -4 -10 -10 -10 -5 0 -10 5 -10 10 0 6 5 10 10 10 6
0 10 -4 10 -10z m-73 -112 c-3 -8 -6 -5 -6 6 -1 11 2 17 5 13 3 -3 4 -12 1
-19z m63 -15 c0 -22 -17 -49 -25 -41 -8 8 5 58 16 58 5 0 9 -8 9 -17z m-63
-49 c-3 -3 -12 -4 -19 -1 -8 3 -5 6 6 6 11 1 17 -2 13 -5z m217 -819 c3 -8 1
-15 -4 -15 -6 0 -10 7 -10 15 0 8 2 15 4 15 2 0 6 -7 10 -15z"/>
<path d="M4090 12780 c-13 -9 -12 -12 4 -25 22 -17 35 -18 55 -6 10 7 8 12
-10 25 -27 19 -29 19 -49 6z"/>
<path d="M4320 12570 c0 -5 5 -10 11 -10 5 0 7 5 4 10 -3 6 -8 10 -11 10 -2 0
-4 -4 -4 -10z"/>
<path d="M4508 12553 c7 -3 16 -2 19 1 4 3 -2 6 -13 5 -11 0 -14 -3 -6 -6z"/>
<path d="M4548 12553 c6 -2 18 -2 25 0 6 3 1 5 -13 5 -14 0 -19 -2 -12 -5z"/>
<path d="M4248 12543 c6 -2 18 -2 25 0 6 3 1 5 -13 5 -14 0 -19 -2 -12 -5z"/>
<path d="M4830 12346 c0 -2 8 -10 18 -17 15 -13 16 -12 3 4 -13 16 -21 21 -21
13z"/>
<path d="M4875 12309 c5 -8 16 -19 24 -25 9 -7 52 -42 95 -78 87 -73 128 -91
51 -23 -69 60 -180 143 -170 126z"/>
<path d="M3770 12156 c0 -9 30 -14 35 -6 4 6 -3 10 -14 10 -12 0 -21 -2 -21
-4z"/>
<path d="M5347 11878 c37 -46 74 -89 80 -96 7 -8 18 -23 25 -35 6 -12 37 -51
68 -87 80 -90 169 -215 319 -445 23 -36 122 -161 176 -223 11 -13 41 -38 66
-57 25 -18 89 -73 142 -123 86 -81 130 -112 143 -100 2 3 -15 19 -39 35 -66
48 -337 319 -403 403 -33 41 -84 110 -114 153 -176 249 -484 637 -518 651 -8
4 17 -31 55 -76z"/>
<path d="M3967 11335 c-4 -8 -2 -17 3 -20 6 -4 10 3 10 14 0 25 -6 27 -13 6z"/>
<path d="M6006 11240 c7 -28 12 -35 18 -29 2 2 -2 15 -10 29 l-15 25 7 -25z"/>
<path d="M6040 11253 c0 -5 16 -28 35 -50 19 -23 35 -45 35 -50 0 -4 9 -14 20
-21 11 -7 20 -21 20 -33 0 -13 4 -18 12 -13 7 5 9 2 6 -7 -4 -10 1 -15 13 -16
10 -1 19 2 19 7 0 11 -109 148 -138 174 -12 11 -22 15 -22 9z"/>
<path d="M8255 10980 c-18 -19 -17 -20 8 -20 17 0 27 5 27 14 0 24 -16 27 -35
6z"/>
<path d="M75 10920 c-3 -5 -15 -10 -25 -10 -28 0 -50 -54 -50 -122 0 -87 3
-91 125 -138 11 -5 50 -22 87 -39 37 -17 76 -31 87 -31 12 0 21 -3 21 -7 0 -5
43 -6 95 -5 58 3 101 0 108 -7 9 -7 31 -8 63 -3 27 5 62 5 78 1 51 -14 125 -3
152 22 40 37 29 109 -17 109 -9 0 -22 7 -29 15 -7 8 -21 15 -31 15 -11 0 -19
5 -19 10 0 6 -11 10 -24 10 -13 0 -35 10 -50 21 -15 12 -46 26 -68 31 -23 5
-47 16 -53 24 -7 11 -29 16 -63 17 -29 1 -52 5 -52 9 0 8 -58 27 -80 25 -9 0
-53 14 -99 31 -83 32 -144 41 -156 22z"/>
<path d="M6461 10731 c-9 -6 -2 -10 23 -13 23 -2 35 0 33 6 -5 14 -38 18 -56
7z"/>
<path d="M4252 10281 c-11 -7 -11 -9 2 -14 10 -4 16 -1 16 8 0 17 -1 17 -18 6z"/>
<path d="M5790 10252 c0 -7 -6 -12 -14 -12 -8 0 -18 -5 -22 -12 -4 -7 -3 -8 4
-4 8 5 12 0 12 -13 0 -33 17 -24 23 12 2 17 3 34 1 36 -2 2 -4 -1 -4 -7z"/>
<path d="M5670 10242 c0 -5 12 -14 26 -20 14 -7 23 -8 19 -2 -9 15 -45 32 -45
22z"/>
<path d="M4320 10230 c0 -5 4 -10 9 -10 6 0 13 5 16 10 3 6 -1 10 -9 10 -9 0
-16 -4 -16 -10z"/>
<path d="M6535 10059 c-10 -15 3 -25 16 -12 7 7 7 13 1 17 -6 3 -14 1 -17 -5z"/>
<path d="M3366 9830 c12 -12 74 -31 74 -24 0 15 -32 34 -56 34 -19 0 -25 -3
-18 -10z"/>
<path d="M6195 9705 c-29 -23 -3 -36 60 -29 112 12 118 27 15 38 -42 5 -60 3
-75 -9z m118 -12 c-7 -2 -19 -2 -25 0 -7 3 -2 5 12 5 14 0 19 -2 13 -5z"/>
<path d="M6293 9608 c-12 -15 -5 -88 7 -88 12 0 33 68 26 85 -7 18 -20 19 -33
3z"/>
<path d="M5745 9587 c-13 -18 -13 -23 0 -37 8 -9 20 -30 26 -47 6 -20 19 -33
35 -37 13 -4 25 -6 26 -5 2 1 20 -6 40 -14 20 -9 46 -13 57 -10 22 6 28 27 11
38 -22 14 2 23 36 14 27 -8 41 -7 59 5 24 16 42 63 28 77 -5 5 -37 8 -73 8
-36 -1 -84 -1 -107 -1 -24 0 -49 4 -55 9 -27 22 -68 21 -83 0z m90 -67 c-3 -5
-11 -10 -16 -10 -6 0 -7 5 -4 10 3 6 11 10 16 10 6 0 7 -4 4 -10z"/>
<path d="M7857 9522 c-10 -10 -17 -28 -17 -39 0 -49 53 -138 133 -223 46 -48
107 -139 107 -158 0 -7 4 -12 9 -12 10 0 76 -105 86 -138 3 -13 2 -29 -4 -35
-17 -22 13 -178 64 -336 14 -41 26 -58 52 -73 27 -17 32 -24 26 -42 -4 -11 -8
-34 -9 -51 -1 -16 -3 -33 -3 -36 -1 -4 -10 -9 -21 -12 -13 -3 -18 -10 -14 -21
3 -9 10 -13 15 -10 18 11 8 -9 -26 -56 -19 -26 -35 -52 -35 -58 0 -5 -9 -12
-20 -15 -18 -5 -26 -27 -21 -65 1 -6 -10 -17 -24 -22 -14 -5 -25 -16 -25 -25
0 -8 -5 -15 -11 -15 -8 0 -8 -5 1 -15 7 -8 19 -15 26 -15 24 0 15 -16 -20 -35
-19 -11 -37 -27 -39 -37 -6 -23 -42 -23 -131 -3 -35 8 -72 12 -82 8 -13 -5
-16 -3 -11 10 8 21 -12 34 -24 16 -10 -17 -13 -13 -32 32 -10 24 -12 41 -5 53
11 20 -16 71 -32 61 -6 -4 -10 -1 -10 6 0 8 -15 10 -50 7 -27 -3 -54 0 -60 6
-7 7 -14 6 -22 -2 -7 -7 -20 -12 -30 -12 -10 0 -27 -8 -37 -17 -38 -35 -50
-43 -64 -43 -20 0 -57 -38 -57 -60 0 -10 -6 -25 -14 -33 -19 -18 -56 -88 -56
-104 0 -7 -4 -13 -10 -13 -5 0 -10 -6 -10 -14 0 -7 -7 -19 -15 -26 -25 -20
-18 -58 17 -92 20 -19 28 -33 20 -36 -7 -2 -12 -12 -12 -22 0 -15 10 -19 63
-23 34 -3 83 -9 108 -15 26 -6 78 -13 116 -16 82 -6 100 -12 106 -34 4 -15 5
-15 6 1 1 22 32 22 57 -1 10 -9 29 -16 42 -14 14 2 22 -2 22 -12 0 -8 12 -21
27 -28 15 -7 32 -27 38 -43 11 -35 23 -45 42 -38 18 7 17 -32 -2 -51 -19 -19
-19 -57 0 -82 19 -25 19 -64 0 -64 -8 0 -15 -4 -15 -9 0 -5 -3 -16 -6 -25 -4
-12 0 -16 15 -16 25 0 25 2 5 -68 -9 -32 -26 -67 -40 -79 -31 -28 -30 -41 1
-49 28 -7 32 -19 10 -28 -22 -8 -18 -21 10 -36 24 -13 24 -14 8 -32 -13 -14
-14 -21 -5 -30 19 -19 14 -28 -13 -28 -21 0 -24 -3 -17 -17 5 -10 12 -40 14
-66 5 -45 4 -49 -23 -63 -29 -15 -38 -37 -19 -49 6 -3 10 3 10 14 0 12 7 21
15 21 11 0 15 -11 15 -39 0 -36 -3 -40 -27 -43 -25 -3 -28 -7 -29 -43 -1 -22
-5 -75 -9 -117 -6 -59 -4 -78 5 -78 8 0 10 -8 6 -23 -3 -13 0 -32 8 -42 12
-17 10 -21 -25 -38 -35 -17 -39 -23 -39 -57 0 -22 -7 -43 -15 -50 -11 -9 -14
-22 -9 -43 4 -20 3 -27 -5 -23 -6 4 -11 14 -11 23 0 13 -3 13 -15 3 -11 -9
-13 -23 -9 -50 6 -35 4 -40 -22 -53 -25 -13 -26 -16 -11 -22 21 -9 23 -55 3
-55 -27 0 -29 -22 -5 -41 27 -20 18 -39 -11 -21 -38 23 -50 15 -50 -33 l0 -45
-41 0 -41 0 5 -72 c2 -40 2 -56 0 -35 -4 36 -5 37 -48 37 -38 0 -42 -2 -38
-19 4 -16 1 -19 -16 -14 -24 6 -23 -2 16 -74 13 -24 23 -48 23 -53 0 -13 18
-51 45 -95 33 -53 91 -174 109 -230 9 -24 40 -93 70 -152 29 -59 64 -142 77
-183 13 -41 29 -80 37 -86 18 -17 115 -27 173 -19 l49 7 0 54 c0 29 7 71 15
91 8 21 14 45 13 53 -3 35 15 80 32 80 10 0 20 6 23 14 17 44 443 -27 513 -85
13 -10 117 -5 136 7 16 10 91 5 102 -7 6 -5 32 -9 58 -9 26 0 48 -4 48 -9 0
-5 19 -11 43 -14 23 -3 62 -11 88 -17 42 -12 49 -10 102 14 49 24 65 27 124
22 105 -8 198 -23 221 -35 30 -16 97 -14 112 4 7 8 20 15 29 15 9 0 22 5 28
11 8 8 18 6 36 -6 32 -21 37 -35 44 -121 6 -71 0 -87 -32 -89 -20 -2 -70 -17
-93 -28 -17 -8 -25 -8 -34 1 -9 9 -8 12 4 12 15 0 15 4 -3 38 -22 40 -45 47
-85 25 -17 -10 -23 -26 -28 -70 -13 -115 -16 -106 33 -108 33 -1 45 3 48 15 6
24 43 44 56 31 13 -13 47 -15 47 -2 0 5 15 18 33 30 22 14 26 21 15 21 -28 0
-21 15 8 18 36 3 43 8 52 45 7 29 12 32 50 35 l42 3 0 -46 c0 -25 4 -53 9 -63
49 -100 60 -112 102 -112 15 0 29 -7 33 -15 4 -12 10 -13 24 -6 10 5 27 9 37
8 18 -2 20 4 20 52 0 30 -5 59 -11 65 -6 6 -9 17 -6 24 2 8 -7 12 -28 12 -19
0 -30 5 -29 13 5 44 -27 62 -131 72 -91 9 -102 16 -87 54 10 28 13 29 62 24
32 -3 55 -1 59 5 10 17 118 3 136 -18 23 -26 58 -42 79 -35 9 3 26 22 37 42
10 20 23 45 29 55 5 10 15 18 21 18 6 0 18 8 27 18 14 16 17 43 17 174 l0 155
-42 9 c-96 18 -261 2 -533 -53 -124 -25 -155 -26 -240 -8 -52 11 -149 18 -275
21 -107 2 -229 9 -270 14 -41 5 -160 19 -265 30 -104 11 -230 25 -280 31 -86
10 -174 18 -383 35 -87 7 -94 9 -118 38 -23 26 -25 36 -20 77 12 92 50 153
125 200 43 28 50 29 160 29 64 0 143 -4 176 -9 33 -6 132 -13 220 -16 154 -6
199 -11 365 -34 41 -6 107 -10 145 -10 39 1 93 -2 122 -6 46 -7 52 -5 62 14 7
11 13 45 14 73 l2 53 -55 -2 c-30 -1 -78 -2 -105 -3 -29 -1 -77 7 -113 19 -43
15 -87 21 -146 21 -89 0 -128 10 -161 40 -13 11 -41 19 -77 22 -79 6 -108 27
-108 79 0 50 10 69 71 138 66 74 118 91 291 91 111 0 137 -3 202 -25 102 -36
153 -37 177 -5 25 34 51 163 43 217 -4 26 -1 55 6 73 14 34 18 36 34 16 6 -8
24 -18 39 -22 27 -6 28 -5 21 22 -9 40 -39 80 -74 100 -17 11 -30 29 -34 47
-3 16 -1 115 5 219 l11 188 -26 75 c-14 41 -26 77 -26 79 0 1 9 13 20 26 19
22 25 90 8 90 -4 0 -15 9 -25 19 -13 14 -30 18 -63 17 -25 -2 -52 -6 -61 -10
-11 -5 -28 4 -55 30 -22 20 -55 43 -74 52 -19 8 -52 28 -72 44 -34 26 -46 30
-124 33 l-87 5 28 -30 c33 -34 29 -68 -12 -106 -32 -30 -56 -30 -82 -3 -24 26
-51 19 -51 -14 0 -32 -25 -59 -80 -87 -25 -12 -70 -44 -101 -70 -69 -57 -128
-76 -186 -61 -45 12 -55 22 -70 67 -21 63 22 112 112 129 72 13 126 50 173
121 23 36 47 84 51 107 11 53 27 93 40 102 6 3 11 15 11 25 0 11 11 44 24 74
20 44 37 64 85 98 33 24 61 50 61 59 0 8 4 19 9 25 6 5 12 26 14 46 2 21 11
46 20 56 9 10 17 21 17 24 0 9 -90 58 -106 58 -7 0 -29 14 -47 30 -19 17 -39
30 -43 30 -11 0 -59 103 -68 143 -10 42 26 103 68 117 19 6 37 18 40 26 16 42
16 42 -203 270 -69 73 -180 189 -246 259 -66 69 -136 143 -156 163 -58 60
-109 139 -109 171 0 9 -9 24 -20 34 -11 9 -20 26 -20 38 0 17 -49 79 -63 79
-2 0 -11 -8 -20 -18z m1118 -2274 c-12 -38 -50 -71 -74 -63 -35 11 -20 49 29
72 40 19 52 16 45 -9z m-968 -90 c-3 -8 -6 -5 -6 6 -1 11 2 17 5 13 3 -3 4
-12 1 -19z m854 -54 c15 -18 -4 -50 -42 -70 -30 -15 -76 -16 -71 -1 1 4 2 17
2 30 0 40 85 72 111 41z m-258 -14 c24 0 67 -51 67 -79 0 -97 -134 -111 -169
-18 -20 52 29 116 77 101 8 -2 19 -4 25 -4z m-1021 -1422 c-9 -9 -15 -9 -24 0
-9 9 -7 12 12 12 19 0 21 -3 12 -12z"/>
<path d="M8040 9465 c0 -8 28 -43 63 -78 34 -36 105 -111 157 -167 52 -57 115
-124 140 -150 116 -120 233 -250 250 -276 26 -42 115 -134 128 -134 19 0 14
34 -11 66 -13 16 -56 63 -96 104 -40 41 -94 99 -120 129 -80 94 -232 241 -248
241 -5 0 -22 20 -37 44 -15 24 -63 80 -105 124 -43 44 -81 87 -84 96 -8 20
-37 21 -37 1z"/>
<path d="M3720 9440 c-13 -8 -13 -11 3 -27 12 -12 17 -13 17 -4 0 8 6 11 15 7
9 -3 15 0 15 8 0 8 -7 17 -16 20 -19 7 -16 8 -34 -4z"/>
<path d="M6020 9421 c0 -16 46 -24 67 -12 17 10 17 10 -2 11 -11 0 -30 3 -42
6 -14 4 -23 2 -23 -5z"/>
<path d="M3760 9391 c0 -6 5 -13 10 -16 6 -3 10 1 10 9 0 9 -4 16 -10 16 -5 0
-10 -4 -10 -9z"/>
<path d="M6100 8829 c0 -5 5 -7 10 -4 6 3 10 8 10 11 0 2 -4 4 -10 4 -5 0 -10
-5 -10 -11z"/>
<path d="M1635 8448 c249 -479 298 -592 311 -717 6 -64 5 -70 -15 -83 -11 -7
-21 -19 -21 -26 0 -7 -6 -21 -12 -32 -10 -16 -10 -24 0 -38 34 -48 36 -101 3
-103 -10 0 -11 -3 -4 -6 7 -2 14 -3 15 -1 7 8 68 -67 68 -83 0 -10 4 -20 9
-23 10 -6 20 -71 27 -164 6 -95 13 -102 87 -102 68 0 137 15 137 30 0 13 -10
14 -100 15 l-75 0 -3 59 c-2 46 1 62 12 68 21 12 21 39 1 32 -17 -7 -21 31 -6
54 7 11 12 10 28 -7 19 -20 22 -21 63 -6 58 20 80 19 80 -4 0 -22 32 -45 75
-55 59 -13 84 -27 82 -47 -1 -10 -5 -19 -9 -19 -4 0 -8 -6 -8 -14 0 -17 -22
-26 -60 -26 -16 0 -35 -3 -44 -6 -44 -17 -1 -24 152 -25 l167 -2 -100 -8 c-55
-5 -111 -11 -124 -14 -47 -12 -9 -18 91 -16 284 6 636 20 656 26 61 19 4 25
-200 19 -166 -4 -219 -2 -205 6 9 6 17 18 17 26 0 11 -5 12 -17 5 -17 -8 -173
-16 -271 -12 -40 1 -43 3 -37 24 10 31 21 41 48 42 76 4 184 19 194 27 7 6 33
8 58 5 25 -2 48 0 51 4 3 5 14 9 25 9 10 0 19 5 19 11 0 6 16 10 38 9 20 -1
81 -2 135 -1 90 1 97 2 97 21 0 11 -7 20 -15 20 -9 0 -15 9 -15 25 0 19 -7 26
-27 31 -16 4 -31 12 -35 17 -3 6 -30 20 -60 33 -34 14 -58 32 -68 51 -18 32
-149 106 -164 92 -17 -16 -36 -10 -36 11 0 11 -3 19 -7 19 -25 -4 -41 4 -46
22 -5 17 -9 19 -25 10 -16 -8 -25 -6 -45 9 -14 11 -34 20 -45 20 -12 0 -24 5
-27 10 -3 6 -16 10 -29 10 -12 0 -27 5 -33 11 -14 14 -152 16 -161 3 -4 -5
-39 -20 -79 -33 -59 -20 -74 -29 -84 -52 -6 -16 -15 -29 -20 -29 -5 0 -9 -13
-9 -30 0 -19 5 -30 14 -30 17 0 17 -49 1 -50 -12 -2 -17 18 -45 165 -12 61
-30 139 -41 175 -32 106 -360 749 -386 757 -6 2 17 -51 52 -119z m455 -877 c0
-5 -8 -17 -17 -27 -21 -20 -31 -2 -11 20 15 17 28 20 28 7z"/>
<path d="M6586 8472 c-2 -4 0 -14 5 -22 8 -13 10 -13 19 0 5 8 10 18 10 23 0
10 -28 9 -34 -1z"/>
<path d="M839 8333 c0 -5 -2 -21 -2 -38 -2 -24 -6 -30 -22 -28 -136 15 -182
15 -215 -2 -64 -32 -150 -88 -150 -96 0 -5 -5 -9 -11 -9 -21 0 -79 -73 -73
-92 3 -12 0 -18 -10 -18 -8 0 -22 -12 -30 -27 -14 -26 -15 -26 -16 -6 0 12 4
25 10 28 6 3 10 14 10 23 0 15 -2 15 -10 2 -5 -8 -10 -11 -10 -6 0 5 -6 3 -14
-3 -10 -9 -15 -8 -19 3 -4 10 -15 13 -35 10 -15 -3 -57 4 -93 16 -35 11 -83
20 -106 20 l-43 0 0 -101 0 -101 37 7 c103 19 396 -2 548 -40 125 -31 151 -31
197 0 43 29 60 31 79 9 11 -13 11 -23 -3 -60 l-15 -44 31 -24 c73 -56 145
-145 205 -255 54 -99 75 -131 86 -131 16 0 21 -178 6 -193 -6 -6 -6 -17 -2
-26 5 -9 4 -81 -2 -161 -5 -80 -11 -174 -12 -210 -3 -82 -15 -150 -26 -150 -5
0 -9 -20 -9 -44 0 -25 -4 -48 -10 -51 -5 -3 -10 -17 -10 -31 0 -25 -31 -64
-51 -64 -6 0 -1 8 11 18 19 16 23 31 30 137 11 173 6 246 -16 262 -13 9 -18
25 -17 51 1 26 -2 19 -9 -20 -9 -53 -12 -58 -37 -58 -31 0 -42 7 -58 37 -20
35 -16 86 7 103 13 10 16 16 8 21 -6 4 -11 22 -11 41 0 18 -4 39 -10 46 -8 10
-7 16 3 22 24 15 5 21 -77 25 -43 2 -66 1 -50 -1 30 -6 37 -24 9 -24 -11 0
-27 9 -36 19 -10 11 -27 21 -39 23 -11 2 -21 11 -23 21 -3 22 -14 36 -14 19 0
-7 -16 -12 -40 -12 -31 0 -40 -4 -40 -17 0 -9 -3 -14 -6 -10 -12 11 8 47 26
47 13 0 17 5 14 15 -7 18 -78 39 -108 31 -15 -4 -28 1 -39 14 -9 11 -23 17
-32 14 -8 -3 -17 0 -20 8 -4 10 -19 14 -48 12 -43 -2 -77 16 -77 42 0 7 -8 10
-20 7 -12 -3 -29 2 -41 13 -20 18 -20 18 3 31 l23 12 -23 1 c-12 0 -25 6 -28
13 -3 8 -20 19 -38 27 -31 12 -33 14 -22 42 22 58 -40 112 -84 73 -11 -10 -19
-20 -18 -24 2 -22 -7 -27 -52 -26 l-50 1 0 -523 0 -523 29 0 c28 0 28 1 24 43
-7 58 19 91 72 91 46 0 85 -39 85 -85 0 -22 8 -34 32 -49 18 -11 42 -19 53
-18 18 3 20 11 20 86 0 71 3 86 19 98 34 24 54 16 82 -31 18 -32 28 -66 33
-116 l6 -71 92 -29 c113 -36 353 -157 394 -199 17 -16 37 -30 44 -30 21 0 26
-13 36 -111 7 -74 6 -102 -7 -152 -9 -34 -17 -98 -18 -142 -2 -44 -8 -96 -14
-115 -16 -53 -23 -120 -13 -120 5 0 12 25 16 56 4 33 12 57 21 61 8 3 14 11
14 19 0 8 5 14 10 14 16 0 12 -20 -10 -47 -21 -27 -28 -83 -10 -83 6 0 10 18
10 40 0 38 2 40 31 40 33 0 68 32 69 63 0 9 4 17 10 17 5 0 15 18 21 40 9 30
17 40 33 40 12 0 16 4 11 8 -6 4 -11 20 -12 35 -1 22 2 27 17 22 10 -3 21 -1
25 5 3 5 17 10 31 10 15 0 23 4 19 11 -4 6 2 13 14 16 12 3 21 9 21 14 0 5 -7
6 -15 3 -31 -12 -11 13 65 81 72 63 81 76 100 135 12 36 28 75 36 87 8 12 14
29 14 38 0 8 4 15 9 15 13 0 43 134 51 225 4 44 15 166 25 270 15 164 16 198
4 250 l-13 60 -7 -45 -6 -45 -1 41 c-1 26 4 46 13 54 9 8 13 22 10 39 -3 14
-2 20 1 14 8 -17 29 -16 44 2 10 12 10 15 -4 15 -23 0 -21 61 2 91 14 18 19
39 17 87 -1 51 1 62 15 62 24 0 54 25 46 38 -5 8 -13 8 -30 0 -21 -9 -29 -6
-53 16 -21 20 -38 26 -70 26 -24 0 -43 2 -43 5 0 3 11 18 25 33 29 31 31 38 9
46 -24 9 -32 0 -39 -44 -4 -22 -11 -42 -16 -45 -5 -4 -6 1 -2 10 3 10 0 21 -7
25 -8 5 -10 16 -5 31 8 23 8 23 16 4 6 -13 7 -5 3 23 -5 40 -4 42 20 42 35 0
42 18 17 43 -16 16 -34 22 -72 23 l-51 0 -43 90 c-106 217 -266 421 -380 482
-27 15 -54 37 -60 48 -6 12 -17 29 -25 39 -17 20 -70 48 -71 38z m122 -219
c13 -16 12 -16 -7 -6 -11 6 -27 19 -35 28 -13 16 -12 16 7 6 11 -6 27 -19 35
-28z m29 -80 c0 -8 -4 -12 -10 -9 -5 3 -10 10 -10 16 0 5 5 9 10 9 6 0 10 -7
10 -16z m172 -88 c18 -34 -12 -13 -34 24 l-22 35 23 -20 c13 -11 27 -28 33
-39z m-793 22 c12 -16 10 -18 -19 -18 -32 0 -33 0 -15 20 10 11 19 19 19 18 1
-2 8 -11 15 -20z m1121 -423 c0 -11 -4 -27 -10 -35 -7 -11 -11 -9 -19 13 -15
39 -14 43 9 43 14 0 20 -7 20 -21z m-330 -30 c0 -9 -9 -15 -25 -15 -16 0 -25
6 -25 15 0 9 9 15 25 15 16 0 25 -6 25 -15z m347 -117 c-3 -8 -6 -5 -6 6 -1
11 2 17 5 13 3 -3 4 -12 1 -19z m-937 -293 c7 -9 8 -15 2 -15 -5 0 -12 7 -16
15 -3 8 -4 15 -2 15 2 0 9 -7 16 -15z m157 -37 c-2 -13 -4 -5 -4 17 -1 22 1
32 4 23 2 -10 2 -28 0 -40z m-93 13 c3 -5 -1 -11 -9 -15 -9 -3 -15 0 -15 9 0
16 16 20 24 6z m-137 -78 c-3 -10 -5 -4 -5 12 0 17 2 24 5 18 2 -7 2 -21 0
-30z m53 33 c0 -3 -4 -8 -10 -11 -5 -3 -10 -1 -10 4 0 6 5 11 10 11 6 0 10 -2
10 -4z m250 -11 c0 -16 -45 -21 -54 -6 -8 12 4 21 31 21 14 0 23 -6 23 -15z
m40 -83 c0 -26 -11 -34 -27 -21 -10 9 -13 8 -13 -5 0 -18 -8 -20 -29 -7 -8 5
-11 16 -6 30 9 29 75 31 75 3z m387 -29 c-3 -10 -5 -2 -5 17 0 19 2 27 5 18 2
-10 2 -26 0 -35z m-311 -98 c0 -14 -9 -28 -18 -31 -10 -3 -18 -10 -18 -15 0
-5 -18 -9 -40 -9 -33 0 -40 3 -40 20 0 11 7 20 15 20 8 0 15 -4 15 -10 0 -23
46 -9 65 20 11 16 21 30 21 30 1 0 1 -11 0 -25z m25 2 c-10 -9 -11 -8 -5 6 3
10 9 15 12 12 3 -3 0 -11 -7 -18z m576 -139 c-3 -8 -6 -5 -6 6 -1 11 2 17 5
13 3 -3 4 -12 1 -19z m-397 -262 c0 -30 -19 -62 -50 -84 -17 -13 -33 -22 -36
-20 -7 8 25 101 38 109 21 14 48 10 48 -5z m-170 -135 c0 -21 -20 -61 -31 -61
-7 0 -8 7 -4 18 4 9 7 25 7 35 0 9 6 17 14 17 8 0 14 -4 14 -9z m450 -91 c0
-5 -4 -10 -10 -10 -5 0 -10 5 -10 10 0 6 5 10 10 10 6 0 10 -4 10 -10z m-155
-320 c-3 -5 -12 -10 -18 -10 -7 0 -6 4 3 10 19 12 23 12 15 0z m-222 -115 c-3
-9 -8 -14 -10 -11 -3 3 -2 9 2 15 9 16 15 13 8 -4z"/>
<path d="M9343 8280 c-13 -5 -23 -16 -23 -25 0 -17 25 -20 43 -5 7 6 21 17 32
25 19 14 19 14 -5 14 -14 0 -35 -4 -47 -9z"/>
<path d="M5662 8272 c-12 -2 -26 -11 -31 -20 -5 -9 -30 -39 -55 -67 -25 -27
-45 -54 -43 -60 2 -5 25 -21 53 -35 53 -28 114 -105 114 -145 0 -36 24 -50 68
-37 42 12 141 27 158 24 14 -3 27 26 18 40 -3 5 -12 7 -18 5 -9 -4 -13 10 -15
49 -1 38 2 54 11 54 8 0 13 14 14 35 1 43 9 53 33 38 10 -6 22 -8 27 -3 5 5
20 10 34 12 l25 4 -27 12 c-16 6 -28 18 -28 27 0 18 3 18 -130 20 -143 3 -198
6 -177 12 20 5 23 29 5 35 -7 2 -23 2 -36 0z m128 -312 c0 -5 -4 -10 -10 -10
-5 0 -10 5 -10 10 0 6 5 10 10 10 6 0 10 -4 10 -10z m-43 -22 c-3 -8 -6 -5 -6
6 -1 11 2 17 5 13 3 -3 4 -12 1 -19z"/>
<path d="M5730 8250 c-11 -7 -4 -10 25 -9 31 0 36 2 20 9 -26 11 -28 11 -45 0z"/>
<path d="M5828 8243 c7 -3 16 -2 19 1 4 3 -2 6 -13 5 -11 0 -14 -3 -6 -6z"/>
<path d="M6740 8185 c0 -14 -5 -25 -10 -25 -6 0 -5 -8 2 -19 10 -16 9 -25 -2
-46 -12 -23 -12 -28 0 -35 22 -14 -4 -35 -43 -35 -24 0 -35 -6 -42 -22 -5 -13
-15 -23 -22 -23 -7 0 -34 -8 -60 -17 -26 -9 -77 -17 -113 -18 -79 -2 -136 -13
-149 -29 -7 -8 -5 -21 4 -40 8 -16 15 -36 15 -45 0 -32 73 -84 120 -86 45 -2
120 -18 120 -26 0 -12 37 -12 60 1 13 7 19 6 24 -6 4 -11 14 -13 41 -8 24 4
46 1 71 -11 34 -16 38 -16 69 1 27 14 36 15 48 5 10 -8 17 -9 22 -1 10 15 36
12 50 -7 11 -15 13 -15 25 6 8 17 9 26 1 34 -6 6 -11 24 -11 40 0 15 -4 26 -9
23 -5 -3 -14 0 -20 8 -9 11 -9 25 0 60 10 39 9 54 -6 91 -9 25 -23 45 -31 45
-8 0 -14 9 -14 20 0 10 -9 24 -20 30 -16 8 -20 21 -20 60 0 29 -5 50 -11 50
-5 0 -8 4 -5 9 8 12 -38 41 -64 41 -15 0 -20 -7 -20 -25z"/>
<path d="M9213 8182 c-6 -4 -30 -23 -52 -42 -42 -35 -53 -60 -26 -60 9 0 40
-25 69 -55 53 -55 76 -68 76 -40 0 8 -7 15 -16 15 -12 0 -15 6 -11 23 28 119
30 137 17 152 -13 16 -38 19 -57 7z"/>
<path d="M9447 8023 c-4 -3 -7 -19 -7 -35 0 -15 -4 -28 -8 -28 -13 0 -72 -86
-72 -104 0 -9 -6 -16 -12 -16 -16 0 -15 -127 1 -143 6 -6 11 -16 11 -23 0 -7
21 -31 46 -53 47 -41 47 -41 128 -41 74 0 84 2 116 28 19 16 43 32 54 35 12 5
17 14 13 27 -8 30 45 37 82 11 16 -12 33 -21 39 -21 5 0 26 -13 47 -30 34 -27
35 -30 15 -30 -18 0 -20 -3 -10 -14 6 -8 24 -16 38 -18 16 -2 31 -12 37 -25 6
-14 18 -23 32 -23 13 0 23 -6 23 -13 0 -18 39 -97 48 -97 4 0 14 -15 21 -32
26 -58 69 -120 74 -106 3 8 6 6 6 -5 1 -26 40 -97 56 -104 8 -3 15 -16 15 -29
0 -14 7 -35 15 -48 16 -24 33 -93 42 -163 3 -24 9 -43 14 -43 5 0 9 -20 9 -45
0 -25 5 -45 10 -45 6 0 15 -11 20 -25 24 -64 30 -19 30 240 0 261 0 266 -24
313 -14 27 -32 54 -40 61 -9 8 -16 19 -16 26 0 7 -11 24 -25 39 -14 15 -25 29
-25 30 0 2 -25 30 -55 61 -30 32 -57 67 -61 78 -14 44 -92 135 -268 308 -86
86 -97 91 -209 86 -47 -2 -71 1 -79 10 -11 13 -119 19 -131 6z"/>
<path d="M8060 8010 c-13 -8 -12 -10 3 -10 9 0 17 5 17 10 0 12 -1 12 -20 0z"/>
<path d="M3047 7874 c3 -8 11 -14 19 -14 21 0 17 17 -5 23 -14 3 -18 1 -14 -9z"/>
<path d="M2737 7799 c-8 -11 -23 -22 -33 -23 -27 -4 -28 -28 -4 -53 11 -12 20
-25 20 -28 0 -15 47 -44 70 -44 14 0 61 7 105 15 44 9 108 16 142 15 92 0 100
19 23 56 -33 17 -57 32 -55 35 5 4 -53 16 -115 23 -9 1 -25 7 -37 14 -37 19
-100 14 -116 -10z"/>
<path d="M7033 7740 c-21 -32 -8 -46 42 -42 47 4 63 22 20 22 -18 0 -25 5 -25
20 0 26 -22 26 -37 0z"/>
<path d="M1421 7674 c0 -11 3 -14 6 -6 3 7 2 16 -1 19 -3 4 -6 -2 -5 -13z"/>
<path d="M10371 7627 c0 -16 -5 -26 -11 -22 -6 3 -4 -6 2 -22 l13 -28 3 28 c2
15 1 37 -1 50 -4 18 -5 17 -6 -6z"/>
<path d="M10335 7630 c3 -5 11 -10 16 -10 6 0 7 5 4 10 -3 6 -11 10 -16 10 -6
0 -7 -4 -4 -10z"/>
<path d="M1600 7495 c0 -23 4 -25 41 -25 l42 0 -37 25 c-20 14 -39 25 -41 25
-3 0 -5 -11 -5 -25z"/>
<path d="M9790 7513 c-98 -15 -105 -31 -102 -233 3 -175 11 -209 53 -245 36
-29 106 -34 153 -10 15 8 40 15 55 15 14 0 42 14 61 30 33 27 35 32 35 87 0
64 -24 203 -35 203 -4 0 -13 14 -20 30 -7 17 -16 30 -21 30 -4 0 -18 18 -30
40 -12 22 -30 42 -38 44 -32 9 -87 13 -111 9z"/>
<path d="M1821 7401 c-10 -6 -10 -10 -1 -16 13 -8 24 -1 19 14 -3 6 -10 7 -18
2z"/>
<path d="M1013 7366 c-1 -30 2 -35 26 -39 22 -5 32 -16 45 -47 20 -50 36 -45
26 7 -9 50 -24 77 -54 97 -35 23 -41 20 -43 -18z"/>
<path d="M1840 7343 c0 -21 2 -24 15 -13 8 7 15 16 15 20 0 4 -7 10 -15 14
-11 4 -15 -2 -15 -21z"/>
<path d="M6485 7288 c-2 -7 -6 -26 -8 -43 -3 -16 -13 -75 -21 -129 -9 -54 -15
-113 -14 -130 3 -52 -6 -58 -75 -50 -71 8 -85 16 -104 63 -17 41 -41 66 -70
75 -20 6 -23 4 -23 -21 0 -29 33 -93 48 -93 5 0 21 -24 36 -54 23 -45 27 -65
26 -127 -1 -41 4 -100 11 -131 12 -54 12 -61 -11 -110 -37 -82 -140 -398 -140
-430 0 -15 6 -28 13 -29 34 -3 67 5 117 31 30 15 72 33 93 40 21 7 57 23 80
36 23 13 51 24 62 24 11 0 58 18 104 41 68 32 93 40 130 37 37 -2 46 0 49 15
5 23 -15 47 -40 47 -33 0 -76 28 -92 61 -23 45 -21 52 21 74 34 18 39 26 50
80 6 33 14 69 18 80 4 14 -1 29 -15 45 -39 44 -63 92 -76 148 -11 46 -11 59 1
82 22 42 43 45 65 7 23 -37 24 -41 9 -65 -9 -14 -8 -37 6 -97 22 -102 32 -122
66 -137 28 -12 43 -39 69 -123 7 -22 30 -63 51 -91 22 -28 39 -58 39 -67 0
-27 29 -19 42 11 6 15 11 30 10 34 -1 3 5 12 13 18 8 7 15 21 15 31 0 10 11
42 24 71 37 81 56 156 56 217 0 64 -14 124 -34 144 -8 7 -23 32 -35 55 -26 51
-78 112 -96 112 -12 0 -42 -65 -37 -82 2 -10 -25 -69 -48 -103 -11 -16 -20
-40 -20 -52 0 -46 -33 -40 -69 12 -25 36 -31 97 -12 103 6 2 11 19 11 38 0 20
4 43 9 53 13 24 -10 135 -36 169 -17 24 -74 60 -96 62 -17 1 7 -106 29 -133
27 -32 28 -36 15 -56 -7 -11 -16 -8 -45 14 -20 15 -36 34 -36 41 0 8 -17 22
-37 32 -37 17 -38 19 -38 73 0 56 -15 89 -42 89 -7 0 -15 -6 -18 -12z m-55
-453 c17 -20 3 -154 -18 -177 -34 -40 -48 -22 -58 77 -5 51 -3 70 10 90 18 28
47 33 66 10z"/>
<path d="M2952 7168 c5 -15 68 -24 68 -10 0 12 -24 22 -52 22 -11 0 -18 -5
-16 -12z"/>
<path d="M2833 7163 c-61 -4 -82 -16 -45 -27 27 -8 137 8 135 19 -2 12 -9 12
-90 8z"/>
<path d="M1063 7076 c-13 -6 -23 -14 -23 -18 0 -4 -6 -5 -14 -2 -8 3 -17 1
-20 -5 -4 -5 3 -12 14 -16 25 -8 26 -24 3 -41 -17 -12 -17 -14 0 -31 10 -10
17 -13 17 -5 0 7 9 12 20 12 17 0 20 -7 22 -42 l1 -43 4 38 c5 49 18 47 30 -5
9 -42 10 -41 7 20 -2 52 -7 66 -26 81 -22 18 -22 20 -5 38 26 30 11 40 -30 19z"/>
<path d="M3415 7070 c-3 -11 -11 -20 -16 -20 -5 0 -9 -6 -9 -14 0 -16 -100
-115 -134 -133 -42 -22 -57 -58 -60 -146 -4 -99 -13 -137 -33 -137 -9 0 -13
-6 -10 -14 3 -8 -3 -23 -14 -34 -10 -12 -19 -26 -19 -31 0 -5 -9 -13 -20 -16
-11 -3 -21 -9 -21 -13 -7 -31 -5 -163 1 -167 18 -11 202 60 239 91 47 40 55
69 112 384 18 104 25 224 13 254 -8 22 -21 20 -29 -4z"/>
<path d="M2995 6949 c-5 -5 -40 -32 -76 -60 -37 -27 -69 -59 -72 -69 -6 -25 8
-27 17 -3 6 15 8 15 16 3 7 -10 10 -11 10 -2 0 6 10 12 23 12 27 0 47 17 47
41 0 11 7 15 23 12 28 -5 53 14 61 50 6 23 3 27 -16 27 -13 -1 -27 -5 -33 -11z"/>
<path d="M952 6915 c0 -16 2 -22 5 -12 2 9 2 23 0 30 -3 6 -5 -1 -5 -18z"/>
<path d="M2316 6915 c-5 -15 -17 -16 -89 -11 -45 3 -101 8 -124 12 -39 5 -44
4 -52 -17 -19 -53 9 -65 117 -49 127 20 152 22 262 25 157 3 154 3 141 19 -6
7 -39 16 -74 20 -34 3 -87 9 -118 12 -47 5 -57 4 -63 -11z"/>
<path d="M2094 6756 c-16 -42 -2 -50 111 -68 61 -9 128 -17 150 -17 50 0 111
21 108 37 -2 7 2 12 7 12 6 0 10 7 10 15 0 11 -10 14 -49 11 -27 -3 -66 -1
-87 4 -29 7 -43 5 -55 -6 -21 -19 -35 -18 -104 6 -69 24 -84 25 -91 6z"/>
<path d="M1121 6654 c0 -11 3 -14 6 -6 3 7 2 16 -1 19 -3 4 -6 -2 -5 -13z"/>
<path d="M2780 6430 c-25 -5 -178 -12 -340 -14 -259 -5 -350 -11 -489 -32 -20
-3 -45 -18 -62 -37 -26 -29 -29 -30 -29 -10 0 12 6 24 13 26 7 3 5 6 -6 6 -32
2 -35 -37 -11 -136 13 -51 26 -126 29 -166 7 -80 32 -177 46 -177 12 0 11 17
-1 25 -5 3 -10 15 -10 26 0 13 7 19 23 19 12 0 85 3 162 7 148 6 175 -3 55
-18 -39 -5 -78 -15 -86 -24 -23 -23 0 -27 76 -15 36 6 79 12 95 14 71 7 125
19 125 27 0 5 -11 9 -25 9 -14 0 -25 4 -25 9 0 11 112 21 250 21 153 0 268 18
286 45 7 12 15 60 18 110 3 50 9 132 15 184 6 52 9 96 7 98 -9 9 -75 11 -116
3z"/>
<path d="M9646 6385 c4 -9 11 -14 16 -13 15 5 11 23 -6 26 -11 2 -14 -2 -10
-13z"/>
<path d="M7860 6360 c0 -5 5 -10 10 -10 6 0 10 5 10 10 0 6 -4 10 -10 10 -5 0
-10 -4 -10 -10z"/>
<path d="M7440 5830 c19 -13 30 -13 30 0 0 6 -10 10 -22 10 -19 0 -20 -2 -8
-10z"/>
<path d="M1032 5545 c0 -16 2 -22 5 -12 2 9 2 23 0 30 -3 6 -5 -1 -5 -18z"/>
<path d="M943 5380 c-7 -47 -23 -150 -37 -230 -51 -296 -47 -264 -76 -525 -11
-95 -32 -197 -57 -278 -8 -27 -13 -50 -12 -51 2 -1 60 -10 129 -20 69 -9 148
-21 175 -26 102 -19 313 -52 415 -65 58 -8 150 -23 205 -34 122 -25 163 -27
146 -7 -9 11 -9 15 1 19 10 3 9 9 -5 24 -10 12 -22 34 -26 49 -7 28 -9 29 -65
26 l-58 -3 4 31 c4 25 1 30 -17 30 -25 0 -46 -37 -40 -69 2 -13 -5 -25 -23
-37 -15 -9 -22 -11 -16 -4 13 13 7 50 -7 50 -5 0 -9 9 -9 20 0 11 5 20 10 20
6 0 10 5 10 10 0 6 -17 10 -37 11 -21 0 -32 3 -25 6 6 2 12 20 12 39 0 27 -4
34 -20 34 -25 0 -40 28 -33 64 4 20 2 27 -6 22 -8 -5 -11 8 -11 42 0 32 -5 54
-15 62 -17 14 -20 50 -5 50 6 0 10 18 10 40 0 36 -3 40 -24 40 -31 0 -36 -8
-38 -58 -2 -52 -20 -76 -51 -68 -18 4 -24 13 -25 33 -1 16 -4 59 -8 97 -4 47
-3 70 5 75 19 12 -15 81 -39 81 -21 0 -27 15 -10 25 14 8 1 127 -14 137 -7 4
-4 9 7 14 37 14 6 63 -40 64 -33 0 -28 16 9 29 30 11 31 12 13 31 -21 24 -45
26 -45 5 0 -10 -11 -15 -35 -15 -21 0 -35 5 -35 13 0 8 -14 11 -45 9 -43 -4
-45 -3 -45 22 0 31 16 35 25 6 9 -29 39 -27 31 3 -3 12 -6 30 -6 40 0 9 -5 17
-11 17 -7 0 -18 8 -25 18 -13 16 -13 16 -14 0 0 -23 -36 -24 -58 -2 -15 15
-16 15 -24 -2 -4 -11 -5 -1 -1 21 3 22 10 42 15 43 5 2 5 9 -1 16 -5 6 -11 29
-13 51 -2 32 -5 23 -15 -45z m136 -250 l38 0 -10 -39 c-9 -34 -8 -42 11 -66
12 -15 22 -33 22 -39 0 -7 5 -17 12 -24 11 -11 18 -39 43 -158 4 -18 -1 -22
-33 -27 -20 -4 -47 -4 -60 0 -14 3 -30 -1 -41 -11 -15 -13 -20 -14 -24 -4 -2
7 -8 9 -13 5 -5 -5 -2 -14 8 -21 11 -8 15 -20 11 -34 -5 -20 -1 -22 35 -22 30
0 42 5 46 18 3 9 4 -9 1 -42 -2 -32 -6 -60 -8 -63 -3 -2 -19 3 -37 12 -18 9
-33 15 -34 13 -15 -28 -22 -68 -12 -72 11 -4 -10 -25 -26 -26 -3 0 -9 44 -13
98 -4 53 -11 105 -16 114 -15 29 -23 138 -10 138 15 0 14 22 -3 54 -8 16 -12
47 -10 74 2 26 3 66 4 88 0 39 3 43 38 57 35 14 37 14 40 -4 3 -15 12 -19 41
-19z m171 -500 c0 -5 -9 -10 -20 -10 -11 0 -20 5 -20 10 0 6 9 10 20 10 11 0
20 -4 20 -10z"/>
<path d="M1040 4650 c0 -5 18 -10 40 -10 22 0 40 5 40 10 0 6 -18 10 -40 10
-22 0 -40 -4 -40 -10z"/>
<path d="M1020 5350 c0 -5 5 -10 10 -10 6 0 10 5 10 10 0 6 -4 10 -10 10 -5 0
-10 -4 -10 -10z"/>
<path d="M5836 5063 c-3 -10 -15 -67 -27 -128 -18 -97 -31 -177 -70 -425 -5
-36 -14 -82 -20 -104 -6 -21 -9 -40 -7 -41 2 -2 21 0 43 5 56 13 127 12 146
-3 41 -32 50 -86 20 -131 -11 -16 -17 -35 -14 -42 7 -19 67 -40 166 -58 49 -9
102 -23 120 -31 18 -8 65 -23 104 -35 76 -21 93 -37 93 -84 0 -18 12 -33 44
-56 25 -16 54 -30 66 -30 35 0 141 -30 198 -56 53 -24 72 -29 72 -18 0 12 -24
50 -44 70 -33 32 -138 154 -164 188 -12 17 -54 72 -93 121 -38 50 -104 140
-145 200 -41 61 -88 128 -105 150 -16 22 -54 78 -85 125 -56 84 -133 190 -145
200 -4 3 -17 24 -30 48 -38 68 -43 77 -69 115 -27 40 -46 47 -54 20z"/>
<path d="M1280 5030 c0 -5 5 -10 10 -10 6 0 10 5 10 10 0 6 -4 10 -10 10 -5 0
-10 -4 -10 -10z"/>
<path d="M8400 4870 c0 -5 -11 -12 -24 -16 -37 -9 -61 -50 -47 -80 17 -38 70
-43 144 -15 21 8 27 17 27 41 0 20 -6 33 -17 37 -10 3 -30 15 -45 25 -30 20
-38 22 -38 8z"/>
<path d="M9905 4840 c-3 -5 -1 -10 4 -10 6 0 11 5 11 10 0 6 -2 10 -4 10 -3 0
-8 -4 -11 -10z"/>
<path d="M0 4580 c0 -143 2 -260 4 -260 2 0 25 43 51 95 26 53 50 94 53 91 2
-3 -12 -43 -32 -90 -54 -126 -48 -138 44 -91 38 19 63 25 107 24 32 -1 85 2
118 6 52 6 68 4 105 -14 25 -12 72 -24 105 -27 33 -2 72 -7 88 -10 27 -6 27
-5 27 48 -1 29 -7 64 -15 78 -8 14 -14 34 -15 45 0 10 -13 33 -30 50 -31 32
-100 140 -100 157 0 14 -57 34 -135 48 -38 7 -77 18 -85 25 -9 8 -51 15 -99
17 -55 2 -86 8 -89 16 -2 6 -11 12 -20 12 -9 0 -32 9 -49 20 l-33 20 0 -260z"/>
<path d="M7841 4726 c-47 -40 -65 -43 -116 -22 -34 15 -35 14 -71 -20 -20 -19
-40 -34 -45 -34 -17 0 -57 -53 -70 -92 -14 -43 -60 -81 -112 -93 -31 -8 -37
-15 -54 -65 -9 -25 -9 -38 -1 -48 10 -11 17 -7 42 21 17 19 60 58 96 88 36 30
76 64 90 77 39 36 78 53 132 58 28 2 57 9 64 15 16 13 192 32 294 32 42 0 99
-7 129 -16 30 -9 71 -17 90 -17 l36 0 -25 20 c-26 20 -107 52 -176 70 -22 5
-51 19 -64 30 -19 16 -36 20 -75 19 -27 -1 -66 1 -86 5 -31 7 -40 3 -78 -28z"/>
<path d="M10105 4487 c-44 -10 -96 -23 -115 -28 -19 -5 -44 -11 -55 -13 -11
-2 -51 -18 -90 -36 -97 -45 -222 -64 -390 -57 -102 4 -139 2 -170 -10 -22 -8
-55 -18 -72 -21 -33 -7 -76 -36 -118 -79 -12 -13 -27 -23 -34 -23 -13 0 -14
-10 -3 -25 4 -6 88 -51 187 -100 99 -50 183 -94 187 -100 4 -5 26 -9 50 -8 24
0 86 0 138 0 190 -2 427 4 507 13 76 8 191 50 201 73 6 13 31 7 42 -10 16 -28
6 288 -12 364 -8 35 -16 65 -19 67 -14 14 -163 9 -234 -7z"/>
<path d="M4865 4371 c-6 -5 -32 -21 -58 -36 -40 -22 -55 -25 -92 -20 -56 9
-61 -1 -70 -135 -6 -86 -4 -109 8 -125 15 -20 16 -19 51 19 32 35 53 72 126
229 12 26 28 47 36 47 8 0 14 7 14 15 0 17 -2 18 -15 6z"/>
<path d="M1640 4350 c0 -11 5 -20 10 -20 6 0 10 9 10 20 0 11 -4 20 -10 20 -5
0 -10 -9 -10 -20z"/>
<path d="M1707 4364 c-3 -3 -1 -17 5 -30 l11 -24 19 20 c11 11 16 25 13 30 -7
11 -38 14 -48 4z"/>
<path d="M1740 4310 c0 -5 5 -10 10 -10 6 0 10 5 10 10 0 6 -4 10 -10 10 -5 0
-10 -4 -10 -10z"/>
<path d="M7338 4297 c-16 -6 -28 -14 -28 -18 0 -4 -6 -14 -13 -21 -7 -7 -41
-50 -75 -94 -39 -52 -75 -87 -95 -95 -44 -18 -142 -94 -167 -128 -37 -53 -23
-165 26 -218 13 -14 24 -30 24 -34 0 -5 4 -9 9 -9 6 0 22 -11 37 -25 30 -28
78 -33 108 -10 10 8 39 17 65 21 54 8 101 29 102 47 0 6 2 71 4 142 3 72 9
159 15 195 5 36 14 95 20 131 12 78 13 129 3 128 -5 -1 -20 -6 -35 -12z"/>
<path d="M8740 4293 c-28 -13 -72 -16 -209 -15 -95 0 -184 -4 -197 -8 -18 -7
-26 -5 -32 7 -13 23 -35 6 -29 -23 5 -27 -9 -42 -50 -53 l-28 -8 30 -13 c116
-48 249 -52 276 -9 3 6 26 13 50 15 24 3 60 10 79 15 42 12 90 -2 90 -27 0
-15 37 -53 53 -54 4 0 7 6 7 13 0 22 39 57 64 57 13 0 31 -9 40 -19 18 -20 17
-42 -6 -88 -6 -13 -9 -25 -6 -28 3 -3 47 -3 97 1 75 6 91 10 86 22 -4 10 0 12
11 8 9 -3 34 -9 57 -12 47 -8 112 -38 181 -84 35 -24 46 -38 47 -58 l1 -27 9
30 c8 26 6 33 -17 53 -14 12 -33 22 -43 22 -11 0 -21 6 -24 14 -8 19 -111 74
-177 93 -62 18 -269 141 -270 161 0 6 -4 12 -10 12 -5 0 -10 -3 -10 -8 0 -11
-62 -84 -67 -78 -7 7 36 86 47 86 6 0 10 5 10 10 0 14 -18 11 -60 -7z m219
-149 c23 -29 29 -78 9 -72 -7 3 -15 19 -19 36 -4 18 -12 39 -19 47 -8 9 -8 15
-2 15 6 0 20 -12 31 -26z"/>
<path d="M4220 4219 c-14 -11 -35 -29 -47 -40 -13 -10 -68 -55 -124 -101 -97
-79 -118 -102 -105 -115 8 -9 83 31 142 76 27 20 71 47 98 60 50 25 76 64 76
116 0 30 -7 31 -40 4z"/>
<path d="M8027 4172 l-58 -37 7 -40 c13 -79 15 -76 -73 -120 -82 -40 -99 -55
-64 -55 11 0 23 -5 26 -10 9 -14 -72 -1 -109 18 -27 13 -31 13 -43 -4 -9 -12
-10 -20 -3 -22 15 -5 12 -22 -5 -22 -18 0 -18 -1 -1 -34 l14 -27 26 33 c24 30
26 31 26 11 0 -13 -4 -23 -10 -23 -13 0 -57 -77 -79 -141 -10 -30 -26 -67 -35
-84 -27 -51 -21 -106 15 -143 17 -18 35 -32 40 -32 13 0 11 -34 -3 -48 -7 -7
-22 -12 -34 -12 -12 0 -36 -12 -53 -26 -29 -24 -31 -25 -31 -6 0 33 49 276 59
293 6 9 12 45 16 80 3 35 8 82 10 104 4 27 2 35 -4 26 -5 -8 -13 -42 -16 -75
-11 -99 -13 -107 -39 -208 -14 -53 -32 -133 -40 -178 -9 -45 -18 -86 -21 -91
-10 -15 -34 -113 -41 -168 -4 -29 -10 -48 -13 -43 -3 6 -7 -9 -7 -31 -2 -55
-31 -137 -57 -161 -14 -14 -17 -21 -8 -24 22 -7 37 19 70 116 28 85 61 153 61
125 0 -11 75 -34 85 -25 3 3 5 33 5 66 0 66 22 116 59 136 17 9 21 21 21 63 0
112 43 211 103 241 34 16 44 17 85 6 104 -29 202 -98 182 -130 -5 -8 -10 -33
-11 -55 0 -22 -8 -62 -18 -90 l-18 -50 -107 0 -107 0 -33 -35 c-28 -31 -31
-41 -28 -78 l4 -42 37 29 c54 42 76 51 109 45 28 -6 31 -4 34 22 2 15 8 29 15
31 8 3 9 -6 3 -32 -7 -30 -5 -37 8 -42 24 -9 52 -34 52 -48 0 -6 -13 -27 -30
-45 -23 -25 -30 -43 -30 -73 0 -48 -31 -102 -70 -122 -34 -17 -111 -20 -127
-4 -7 7 -15 5 -27 -6 -18 -19 -20 -31 -6 -40 14 -9 13 -25 -2 -25 -18 0 -78
43 -78 56 0 20 -53 34 -117 32 -75 -4 -82 -14 -15 -23 107 -14 121 -17 133
-31 9 -11 8 -14 -2 -15 -8 0 1 -5 19 -10 44 -13 34 -25 -30 -35 l-53 -8 60 -4
60 -4 -40 -12 -40 -12 91 -12 c50 -7 107 -12 127 -12 42 0 53 -12 31 -34 -14
-14 -8 -15 60 -9 42 3 76 3 76 0 0 -3 -34 -13 -75 -23 -82 -19 -100 -34 -31
-27 24 3 51 1 61 -4 9 -6 35 -7 56 -3 42 8 94 -5 124 -30 15 -12 56 -15 204
-16 102 0 234 -4 292 -9 75 -5 121 -4 154 4 66 17 266 42 285 36 8 -3 58 5
110 18 80 19 95 26 95 42 0 11 10 25 23 31 13 6 30 21 38 33 13 18 22 20 50
15 60 -11 198 15 249 47 54 34 64 53 41 78 -14 15 -14 20 -4 24 7 3 -3 6 -23
6 -31 1 -37 6 -55 44 l-21 42 29 40 c20 27 28 48 25 64 -3 14 1 31 9 38 16 16
19 37 4 28 -6 -4 -5 4 1 19 7 14 19 27 28 29 13 4 12 5 -3 6 -15 1 -17 6 -12
33 10 49 33 77 81 98 24 10 49 28 55 39 6 12 20 21 31 21 20 0 20 1 -5 31 -14
17 -26 36 -26 44 0 7 -7 30 -16 51 l-17 39 -16 -58 -17 -58 -21 45 c-22 44
-70 84 -129 106 -14 6 -40 21 -58 35 -38 29 -49 24 -40 -22 4 -20 2 -33 -4
-33 -16 0 -20 20 -15 75 6 60 -8 81 -57 90 -33 6 -37 4 -53 -29 -9 -20 -21
-36 -26 -36 -5 0 -20 15 -32 33 -27 38 -38 47 -62 47 -10 0 -27 8 -38 19 -36
34 -132 41 -163 12 -12 -10 -39 -28 -61 -40 -37 -20 -40 -20 -47 -4 -3 10 -7
32 -7 48 -1 17 -8 40 -16 51 -12 19 -23 21 -86 19 -64 -2 -82 2 -145 31 -109
49 -150 60 -170 43 -9 -7 -20 -23 -25 -36 -8 -22 -10 -22 -49 -8 -49 17 -61
13 -97 -33 -46 -61 -57 -72 -70 -72 -9 0 -13 -17 -13 -55 0 -30 -4 -55 -8 -55
-14 0 -31 22 -26 34 2 6 -8 19 -21 29 -24 17 -24 17 -19 0 4 -13 0 -12 -15 6
-12 13 -21 29 -21 36 0 17 -47 55 -67 55 -13 0 -13 -3 1 -25 9 -13 16 -31 16
-39 0 -23 -28 -8 -45 23 -23 44 -30 0 -11 -77 9 -37 16 -71 16 -75 0 -4 -22
-5 -50 -1 -42 6 -50 4 -50 -10 0 -23 -14 -20 -25 7 -6 13 -19 22 -31 22 -12 1
-29 7 -37 14 -20 16 -37 7 -37 -20 0 -10 -6 -19 -13 -19 -7 0 -28 -15 -47 -34
-19 -19 -38 -32 -43 -29 -11 7 30 61 53 68 11 4 17 12 14 20 -5 12 -10 12 -35
-1 -21 -11 -32 -27 -41 -59 -8 -28 -15 -40 -20 -32 -13 20 -9 71 7 93 19 28
45 105 32 97 -5 -3 -7 0 -5 8 3 8 10 13 16 12 6 -2 14 6 17 17 4 12 15 20 28
20 11 0 35 13 52 29 46 43 212 97 190 61 -3 -6 5 -10 19 -10 14 0 28 5 31 10
10 16 41 12 56 -7 8 -9 34 -25 58 -36 32 -14 40 -21 30 -28 -11 -7 -9 -9 8 -9
24 0 28 9 42 95 5 33 19 82 30 108 12 27 21 51 21 53 0 3 -16 12 -35 20 -20 8
-68 35 -108 59 -39 25 -78 45 -87 45 -8 0 -41 -17 -73 -38z m543 -281 c0 -12
-28 -22 -34 -12 -3 5 -3 11 1 15 9 9 33 7 33 -3z m121 -73 c30 -18 31 -22 25
-66 -3 -26 -22 -94 -41 -152 -19 -58 -44 -138 -55 -177 -12 -40 -24 -73 -27
-73 -3 0 -14 11 -25 25 -20 26 -54 47 -95 59 -18 6 -23 3 -23 -10 0 -15 -3
-14 -21 5 -19 20 -28 22 -68 17 -25 -3 -50 -11 -55 -16 -6 -6 -14 -10 -18 -10
-12 0 -10 79 3 120 6 19 19 70 30 113 18 74 48 146 72 173 9 9 47 12 139 12
107 -1 133 -4 159 -20z m459 -56 c0 -15 -22 -30 -36 -25 -24 9 -16 33 11 33
14 0 25 -4 25 -8z m-935 -42 c3 -5 -1 -10 -10 -10 -9 0 -13 5 -10 10 3 6 8 10
10 10 2 0 7 -4 10 -10z m910 -20 c124 -25 165 -45 165 -81 0 -35 -16 -83 -50
-149 -16 -30 -38 -80 -49 -111 -12 -30 -27 -64 -35 -74 -12 -17 -15 -17 -52
12 -45 36 -79 48 -89 33 -9 -15 -25 -12 -25 5 0 36 -109 10 -170 -42 -28 -23
-31 -24 -22 -6 7 12 24 31 39 43 16 12 20 19 11 16 -10 -3 -18 -2 -18 2 0 47
114 308 153 350 25 27 18 27 142 2z m196 -128 c-5 -10 -18 -25 -27 -33 -16
-12 -16 -10 1 19 20 33 43 46 26 14z m207 -16 l44 0 -6 -38 -6 -37 47 -3 c46
-3 47 -3 64 -53 10 -27 18 -63 18 -79 2 -51 -76 -205 -140 -280 -4 -5 -33 14
-64 43 -66 60 -90 68 -158 52 -27 -6 -52 -9 -54 -7 -3 2 5 14 16 25 25 25 27
41 6 41 -14 0 -14 4 -2 28 8 15 19 56 26 92 22 120 32 144 74 188 35 36 46 42
67 36 14 -4 45 -7 68 -8z m-1154 -153 c-14 -69 -15 -68 56 -68 55 0 69 -4 89
-24 38 -38 44 -85 21 -166 -10 -38 -22 -82 -25 -98 l-5 -27 -22 20 c-27 25
-112 53 -137 45 -10 -3 -22 -17 -25 -31 -5 -20 -10 -23 -20 -15 -7 6 -21 9
-30 5 -9 -3 -16 -1 -16 5 0 6 14 11 31 11 20 0 29 4 27 13 -7 21 -53 20 -73
-3 -22 -25 -40 -26 -30 -2 4 9 16 64 26 120 11 57 26 120 34 139 13 30 17 33
30 23 13 -11 15 -8 16 14 2 43 3 46 19 56 28 18 40 12 34 -17z m1346 -27 c0
-3 -4 -8 -10 -11 -5 -3 -10 -1 -10 4 0 6 5 11 10 11 6 0 10 -2 10 -4z m-775
-76 c0 -22 -39 -19 -43 3 -3 15 1 18 20 15 12 -2 23 -10 23 -18z m91 -27 c-1
-15 46 -55 77 -66 9 -3 7 -9 -4 -23 -9 -10 -27 -41 -40 -69 -13 -27 -36 -68
-51 -89 -16 -21 -28 -47 -28 -58 0 -27 -23 -22 -61 15 -19 17 -46 42 -59 53
-14 12 -39 37 -56 56 -17 20 -37 37 -44 40 -11 3 -10 15 6 57 21 58 41 75 79
65 17 -4 25 -2 26 7 0 8 4 4 9 -8 8 -19 17 -23 54 -23 39 0 49 4 68 30 25 35
26 35 24 13z m-1212 -44 c-10 -11 -28 -25 -39 -31 -12 -5 -7 3 13 21 37 35 55
42 26 10z m90 6 c-4 -8 -10 -15 -15 -15 -4 0 -6 7 -3 15 4 8 10 15 15 15 4 0
6 -7 3 -15z m1431 -115 c-3 -5 -13 -10 -21 -10 -8 0 -14 5 -14 10 0 6 9 10 21
10 11 0 17 -4 14 -10z m127 -74 l36 -29 -69 -113 c-38 -63 -69 -118 -69 -123
0 -13 -62 -71 -76 -71 -17 0 -42 32 -46 60 -1 14 -10 28 -18 31 -11 5 -8 9 12
17 32 13 44 30 30 44 -13 13 -65 14 -69 2 -12 -35 -22 -38 -42 -13 -23 27 -25
41 -12 67 5 9 15 30 22 46 8 16 30 46 51 68 31 33 40 38 57 29 34 -19 76 -13
101 14 25 27 22 27 92 -29z m-1240 -36 c36 -22 107 -27 140 -9 17 9 25 6 49
-17 30 -29 36 -52 20 -82 -14 -26 -48 -105 -55 -128 -7 -24 -100 -106 -110
-97 -3 3 -20 7 -37 8 -23 2 -38 -4 -55 -23 l-24 -25 -21 24 c-12 13 -25 33
-29 45 -10 26 3 98 29 155 10 24 27 72 37 107 9 34 19 62 20 62 2 0 18 -9 36
-20z m578 -35 c24 -8 53 -13 64 -9 15 4 17 3 7 -4 -10 -8 -7 -15 18 -33 26
-19 30 -28 27 -53 -14 -93 -37 -142 -82 -173 -15 -10 -40 -31 -55 -46 -16 -16
-33 -26 -38 -23 -5 4 -12 2 -16 -4 -7 -11 -45 9 -45 25 0 6 -18 18 -39 27
l-39 17 5 63 c9 105 83 226 139 228 6 0 31 -7 54 -15z"/>
<path d="M8477 3667 c-3 -8 -2 -19 3 -26 5 -10 9 -8 14 4 3 9 6 21 6 26 0 14
-17 11 -23 -4z"/>
<path d="M9037 3543 c-4 -3 -7 -12 -7 -20 0 -15 26 -18 34 -4 7 11 -18 33 -27
24z"/>
<path d="M9390 3499 c0 -11 5 -17 10 -14 6 3 10 13 10 21 0 8 -4 14 -10 14 -5
0 -10 -9 -10 -21z"/>
<path d="M9508 3313 c6 -2 18 -2 25 0 6 3 1 5 -13 5 -14 0 -19 -2 -12 -5z"/>
<path d="M8240 2826 c0 -8 9 -24 19 -37 17 -21 20 -22 26 -7 4 9 2 26 -5 37
-12 24 -40 28 -40 7z"/>
<path d="M8693 2772 c-13 -2 -23 -10 -23 -18 0 -18 11 -18 36 0 22 17 18 23
-13 18z"/>
<path d="M8680 2709 c0 -5 5 -7 10 -4 6 3 10 8 10 11 0 2 -4 4 -10 4 -5 0 -10
-5 -10 -11z"/>
<path d="M5092 4148 c-5 -7 -13 -29 -17 -48 -8 -41 -41 -80 -67 -80 -10 0 -29
7 -41 15 -20 13 -27 13 -57 -3 -45 -22 -50 -57 -15 -94 14 -15 25 -31 25 -37
0 -5 6 -11 13 -14 6 -2 9 -8 5 -12 -4 -4 -12 -4 -19 1 -7 4 -26 8 -42 10 -17
1 -37 11 -46 23 -9 12 -41 30 -71 42 -30 11 -63 29 -73 40 -22 24 -38 24 -69
0 -13 -11 -37 -23 -51 -26 -15 -4 -27 -14 -27 -22 0 -8 -24 -39 -54 -69 -39
-40 -61 -54 -82 -54 -37 0 -96 21 -111 40 -18 23 -28 4 -41 -79 -10 -56 -10
-77 -1 -88 13 -15 24 -160 38 -518 6 -147 15 -252 25 -290 8 -33 16 -87 18
-120 l3 -60 -43 -3 c-29 -2 -47 2 -58 13 -10 10 -26 14 -43 11 -114 -22 -271
-17 -271 9 0 8 14 23 30 35 17 12 28 25 25 29 -2 5 2 17 10 27 13 17 14 17 15
2 0 -20 47 -19 60 2 5 8 16 15 26 16 9 2 20 8 25 15 12 20 -21 38 -68 39 -23
0 -44 4 -47 9 -3 4 -19 11 -35 14 -20 4 -31 14 -35 32 -6 25 -29 34 -41 15 -3
-5 -15 -10 -26 -10 -13 0 -19 -7 -20 -22 0 -22 -1 -22 -9 -3 -6 17 -9 13 -16
-20 l-8 -40 -13 65 c-8 36 -17 128 -22 205 -4 77 -16 172 -27 212 -18 70 -19
71 -55 77 -23 4 -50 0 -73 -9 -58 -24 -83 -20 -91 15 -7 34 -41 48 -72 31 -11
-5 -43 -9 -72 -9 l-52 1 32 14 c17 7 35 11 39 8 5 -3 31 4 58 14 27 11 52 18
55 15 2 -3 35 -6 73 -8 38 -1 76 -5 84 -9 22 -10 38 4 42 38 3 28 0 30 -32 33
-74 5 -81 10 -78 45 l3 32 -75 0 c-47 -1 -89 -7 -112 -17 -36 -16 -36 -17 -25
-47 21 -58 -38 -69 -66 -13 -10 23 -18 27 -47 24 -99 -8 -115 -7 -117 8 -2 8
7 28 19 43 17 21 35 30 72 35 45 6 48 8 31 22 -12 10 -43 15 -103 15 l-86 0
-7 -32 c-7 -37 -44 -85 -78 -105 -13 -7 -53 -13 -88 -13 -70 0 -73 -4 -52 -64
9 -27 8 -35 -6 -51 -9 -10 -23 -16 -31 -13 -9 3 -14 -2 -14 -16 0 -16 -6 -21
-25 -21 -23 0 -24 2 -24 64 1 36 -2 74 -6 85 -9 29 -46 27 -75 -4 -13 -14 -34
-25 -47 -25 -13 0 -23 -4 -23 -10 0 -5 -13 -16 -30 -25 -17 -9 -30 -22 -30
-30 0 -12 -16 -15 -77 -15 -60 -1 -89 -6 -124 -23 -40 -20 -50 -21 -65 -10
-10 7 -29 13 -42 13 -16 0 -22 4 -19 14 4 9 -7 17 -31 24 -30 10 -38 9 -45 -3
-10 -19 -46 -20 -53 -1 -4 11 -43 23 -99 31 -37 5 -75 18 -75 26 0 5 -15 9
-34 9 -19 0 -42 7 -50 16 -12 12 -47 16 -167 18 -83 2 -154 8 -158 13 -9 14
-81 26 -81 14 0 -20 -146 14 -154 35 -3 8 -12 11 -21 8 -20 -8 -198 14 -250
31 -22 8 -47 14 -55 14 -155 5 -256 16 -266 29 -6 8 -35 18 -65 23 -30 5 -59
15 -65 23 -8 12 -14 12 -22 4 -13 -13 -67 6 -58 21 10 16 -21 20 -48 6 -24
-13 -32 -12 -69 4 -23 10 -60 26 -82 36 -47 20 -254 85 -273 85 -10 0 -12
-143 -10 -697 l3 -697 105 -12 c145 -17 231 -37 243 -55 8 -12 2 -27 -20 -60
-17 -24 -44 -77 -61 -117 -29 -70 -32 -102 -10 -102 6 0 3 -11 -6 -25 -9 -13
-16 -32 -16 -41 0 -9 -13 -42 -29 -73 -58 -113 -82 -204 -63 -245 16 -35 30
-88 37 -138 5 -37 1 -60 -18 -110 -48 -121 -59 -168 -59 -244 1 -41 4 -89 7
-107 17 -84 68 -283 75 -292 4 -5 13 -30 20 -55 6 -25 20 -54 29 -65 10 -11
24 -36 31 -55 17 -44 22 -51 36 -42 22 14 64 85 64 108 0 13 4 24 9 24 5 0 12
15 16 32 4 18 15 62 25 98 10 36 23 92 29 125 31 160 66 287 97 348 27 54 103
117 140 117 l32 0 5 -72 c2 -40 4 -92 5 -115 0 -25 9 -58 21 -79 31 -52 12
-123 -39 -144 -15 -6 -36 -21 -47 -33 -10 -12 -33 -34 -51 -49 -91 -76 -176
-337 -157 -481 8 -61 -4 -59 -48 8 -28 43 -37 50 -62 47 -49 -4 -68 -9 -107
-26 -42 -18 -74 -21 -83 -6 -12 20 -32 10 -32 -16 0 -32 -12 -40 -74 -48 l-49
-7 0 -249 0 -250 573 1 c493 1 568 3 541 14 -17 8 -34 21 -37 30 -4 8 -12 15
-19 15 -7 0 -24 9 -38 19 -19 16 -35 18 -75 14 -27 -3 -62 -12 -77 -19 -45
-23 -84 -18 -107 15 -12 16 -21 34 -21 39 0 6 -9 14 -20 17 -11 4 -28 18 -37
31 -10 16 -23 24 -34 21 -14 -4 -19 6 -28 58 -21 119 -9 128 209 160 46 7 192
39 245 54 31 9 77 20 200 46 63 13 115 12 115 -2 0 -11 -57 -49 -103 -69 -32
-14 -55 -32 -69 -55 -11 -19 -46 -63 -77 -98 -59 -68 -81 -112 -86 -173 -3
-39 3 -46 23 -26 8 8 15 8 24 1 7 -6 29 -13 48 -16 62 -10 114 -23 137 -35 39
-21 73 -14 108 22 18 19 37 41 42 49 27 48 323 99 323 56 0 -5 -9 -9 -19 -9
-11 0 -22 -8 -25 -17 -3 -10 -23 -29 -43 -43 -87 -58 -96 -80 -33 -80 22 0 40
-4 40 -10 0 -15 49 -12 66 4 8 8 14 33 14 55 0 23 4 41 10 41 5 0 12 11 16 25
5 20 12 25 38 25 32 0 110 22 153 42 11 6 27 8 35 6 7 -3 25 1 40 9 16 7 28
10 28 5 0 -17 59 1 81 24 12 13 31 24 40 24 10 0 23 10 30 21 14 27 66 79 79
79 5 0 15 6 22 13 7 7 46 19 87 26 41 7 89 20 108 27 20 9 33 10 33 4 0 -14
30 -12 58 4 31 17 79 9 85 -14 3 -13 19 -20 58 -25 45 -6 55 -5 66 11 13 17
11 22 -23 52 -23 19 -40 28 -44 22 -8 -13 -70 -10 -89 4 -7 6 -41 20 -74 31
-56 20 -64 26 -90 73 -26 48 -27 52 -9 52 40 0 82 -13 82 -25 0 -7 18 -14 43
-17 23 -3 62 -15 86 -27 25 -11 55 -21 68 -21 13 0 23 -4 23 -10 0 -5 27 -12
60 -16 33 -4 63 -11 66 -15 3 -5 16 -9 30 -9 14 0 34 -5 46 -11 11 -6 36 -13
56 -15 40 -5 162 -69 162 -85 0 -16 -57 -96 -85 -117 -14 -11 -25 -22 -25 -25
0 -2 -27 -31 -61 -63 -93 -90 -139 -138 -139 -146 0 -5 -9 -8 -20 -8 -10 0
-24 -9 -30 -20 -11 -20 -8 -20 347 -19 244 1 344 4 313 10 -25 5 -55 7 -66 4
-13 -3 -27 2 -34 10 -7 8 -27 15 -44 15 -59 0 -124 31 -149 70 -16 25 -15 29
13 88 16 35 36 62 44 62 8 0 21 9 29 20 21 30 64 41 167 42 101 2 135 -8 285
-81 33 -16 114 -42 180 -56 66 -15 131 -31 145 -36 14 -5 43 -12 65 -15 22 -3
61 -17 87 -30 26 -13 54 -24 63 -24 8 0 15 -5 15 -10 0 -7 7 -7 21 0 11 7 23
9 26 6 3 -3 18 1 33 9 28 15 74 4 288 -65 63 -20 80 -20 1680 -20 888 0 1613
3 1610 6 -4 3 -37 14 -75 24 -126 33 -278 80 -295 90 -10 5 -26 10 -35 10 -10
1 -43 10 -73 21 -48 18 -138 40 -277 69 -24 5 -56 16 -72 24 -35 18 -103 35
-188 46 -36 5 -74 17 -92 29 -16 12 -39 21 -52 21 -13 0 -57 11 -99 25 -41 14
-95 30 -119 36 -24 6 -54 22 -66 35 -20 21 -29 24 -60 18 -24 -4 -50 -1 -80
11 -25 9 -51 15 -58 12 -6 -2 -27 2 -46 9 -18 8 -48 14 -65 14 -18 0 -37 5
-42 10 -6 6 -35 13 -65 17 -30 3 -61 11 -69 18 -8 7 -42 19 -75 28 -33 8 -85
22 -115 31 -30 8 -68 17 -85 19 -37 6 -118 37 -126 49 -3 5 -23 11 -44 14 -41
5 -78 14 -165 38 -30 9 -63 16 -72 16 -9 0 -29 5 -45 12 -15 7 -32 12 -38 13
-31 4 -102 31 -118 43 -9 9 -29 17 -45 18 -36 4 -152 34 -174 45 -10 5 -27 9
-38 9 -11 0 -43 11 -72 24 -60 27 -184 56 -240 56 -21 0 -38 4 -38 9 0 5 -18
11 -40 15 -22 3 -40 10 -40 15 0 5 -30 13 -67 16 -38 4 -88 15 -113 25 -25 9
-65 20 -90 24 -72 11 -402 111 -435 131 -11 7 -54 16 -95 20 -41 4 -83 11 -93
16 -10 6 -66 24 -125 40 -59 16 -174 48 -257 70 -82 23 -181 52 -220 65 -38
12 -81 25 -95 28 -14 3 -49 12 -77 21 -29 8 -77 22 -105 30 -29 9 -63 18 -75
20 -50 12 -374 98 -448 120 -44 13 -154 44 -245 70 -91 26 -203 59 -250 75
-47 16 -105 31 -130 35 -25 4 -115 25 -200 47 -85 22 -224 57 -309 79 -200 51
-226 67 -205 123 8 20 55 21 92 2 29 -15 64 -25 252 -76 106 -28 253 -72 405
-121 33 -10 103 -28 155 -39 95 -20 355 -89 505 -135 44 -13 98 -27 120 -30
22 -4 83 -16 135 -26 55 -12 109 -18 129 -14 23 5 38 2 51 -10 10 -9 23 -14
28 -11 5 3 15 -1 22 -9 7 -8 23 -15 35 -15 13 0 25 -4 27 -9 2 -5 35 -12 74
-16 l71 -7 6 29 c11 53 91 68 182 34 60 -22 88 -63 62 -88 -9 -9 -29 -16 -46
-17 -17 -1 -31 -3 -31 -6 0 -3 28 -16 63 -30 34 -13 67 -27 73 -31 5 -5 41
-10 80 -11 l69 -3 -2 33 c0 18 -8 41 -17 51 -9 10 -13 20 -10 24 3 3 -5 11
-18 18 -12 6 -26 16 -29 21 -7 10 -48 19 -91 20 -16 1 -28 5 -28 9 0 5 -6 9
-12 9 -14 0 -74 71 -70 83 1 4 -2 7 -8 7 -15 0 -50 42 -50 62 0 10 10 20 25
24 31 8 31 11 -1 36 -14 11 -22 23 -19 26 3 4 9 2 13 -3 4 -6 28 -21 53 -34
35 -18 54 -22 82 -17 27 5 35 11 30 22 -5 13 1 14 28 10 19 -3 61 -8 94 -12
33 -3 62 -9 65 -13 9 -12 153 3 158 17 2 7 21 15 43 18 28 5 39 11 39 24 0 10
8 21 17 24 24 9 55 -31 49 -64 -6 -29 13 -161 25 -174 4 -4 5 -33 2 -62 -4
-32 -2 -54 4 -54 11 0 5 -60 -8 -76 -6 -7 -4 -16 6 -24 9 -7 13 -21 9 -34 -6
-25 19 -55 31 -36 3 5 15 10 26 10 10 0 19 4 19 8 0 4 14 16 30 25 22 14 30
15 30 5 1 -7 8 -1 16 15 16 30 48 36 62 12 7 -14 15 -14 58 -3 l49 13 -3 43
c-2 23 -8 42 -15 43 -7 1 -2 4 11 7 28 8 29 27 2 26 -11 0 -20 4 -20 11 0 6
16 11 37 11 20 0 38 5 41 12 2 7 9 12 16 12 7 0 12 18 14 47 1 26 7 50 14 54
14 9 117 24 122 18 2 -2 -1 -29 -7 -60 -13 -75 -8 -86 39 -83 61 2 124 16 124
26 0 5 4 7 9 3 5 -3 12 -1 16 5 8 13 72 13 80 1 12 -20 70 -5 104 27 19 19 44
32 60 33 69 1 594 10 736 12 167 3 194 9 267 59 27 18 32 19 110 4 64 -12 88
-22 112 -45 31 -29 32 -29 186 -36 132 -6 175 -12 290 -42 74 -19 166 -42 204
-50 106 -22 171 -50 186 -78 17 -32 45 -39 118 -31 35 4 79 1 115 -8 44 -10
66 -11 87 -3 22 8 37 7 67 -5 21 -9 65 -19 98 -22 33 -2 89 -14 124 -25 35
-12 77 -21 92 -21 16 0 37 -4 47 -9 9 -5 69 -19 132 -31 63 -12 133 -26 155
-32 22 -5 67 -13 100 -17 33 -4 85 -19 116 -34 31 -15 62 -27 70 -27 24 0 39
-22 39 -55 0 -17 5 -36 12 -43 17 -17 119 -15 142 3 10 8 23 12 29 8 5 -3 66
-5 136 -4 122 1 127 0 156 -25 28 -24 33 -25 105 -18 82 8 204 9 435 5 138 -3
155 -1 220 22 95 33 202 64 250 73 22 3 49 14 60 24 30 25 97 54 210 88 95 29
136 38 266 61 32 5 80 24 108 41 l51 32 0 198 c0 165 -3 200 -15 210 -14 12
-14 15 0 30 11 13 15 42 15 123 0 111 -3 117 -42 96 -20 -11 -20 -11 2 -26 32
-23 21 -52 -34 -90 -36 -24 -59 -33 -90 -33 -30 0 -44 -5 -54 -20 -17 -27 -84
-60 -124 -60 -37 0 -67 -15 -54 -27 4 -4 53 -10 109 -13 95 -5 102 -7 105 -26
4 -29 -69 -91 -122 -105 -65 -16 -66 -17 -72 -47 -5 -23 -15 -32 -52 -45 -26
-9 -65 -19 -87 -23 -22 -3 -51 -13 -64 -21 -13 -9 -43 -16 -65 -16 -26 0 -47
-7 -58 -18 -10 -9 -43 -25 -75 -34 -31 -9 -74 -25 -95 -36 -20 -10 -45 -20
-55 -22 -10 -2 -27 -8 -38 -13 -61 -32 -107 -35 -220 -15 -60 11 -135 27 -165
36 -30 8 -66 15 -80 15 -72 1 -96 33 -32 44 20 3 50 13 66 21 15 8 38 15 50
15 11 0 35 10 51 21 l30 21 -33 -6 c-19 -3 -48 -12 -65 -19 -163 -70 -408 -82
-542 -27 -11 5 -74 18 -140 30 -66 12 -140 25 -165 30 -334 68 -420 84 -505
96 -254 36 -384 56 -425 64 -134 28 -677 106 -785 114 -96 7 -87 2 75 -41 135
-35 113 -38 -75 -9 -125 19 -187 37 -193 56 -4 12 -2 13 9 3 8 -6 20 -9 26 -5
22 14 -2 30 -52 35 -81 9 -145 23 -157 35 -7 7 -18 12 -26 12 -7 0 -38 11 -68
25 -30 14 -61 25 -68 25 -7 0 -33 7 -57 16 -40 14 -139 42 -229 65 -19 5 -73
16 -120 24 -97 16 -187 41 -194 54 -3 5 6 16 20 26 20 13 62 19 174 25 162 9
194 19 221 65 18 32 17 42 -8 143 -12 46 -13 68 -6 85 6 12 16 41 23 64 12 38
17 42 65 58 l53 16 4 77 c3 42 6 83 9 90 2 8 -5 19 -16 25 -88 50 -85 45 -85
129 0 84 2 86 68 86 27 1 37 -6 59 -39 14 -21 29 -39 33 -39 12 0 21 112 14
174 -9 78 -41 94 -120 59 -27 -11 -68 -17 -129 -17 -99 -1 -114 -7 -158 -65
-26 -32 -28 -41 -23 -88 14 -123 -70 -186 -175 -132 l-40 20 25 20 c18 14 26
30 26 50 0 17 4 39 10 49 11 21 -4 38 -40 42 -20 3 -25 -4 -38 -51 -12 -41
-13 -61 -5 -82 13 -34 12 -35 -77 -80 -35 -18 -86 -34 -112 -37 -68 -6 -71
-22 -4 -22 45 0 58 -4 70 -22 21 -30 20 -61 -4 -108 -30 -59 -64 -56 -130 12
-49 50 -68 87 -56 107 3 5 -6 19 -20 30 -24 19 -26 26 -22 78 3 56 2 58 -23
61 -26 3 -26 2 -25 -57 1 -50 -3 -63 -24 -86 -21 -23 -30 -26 -60 -20 -19 4
-65 8 -102 9 -101 3 -117 26 -73 101 25 43 79 75 127 75 12 0 40 9 62 20 23
10 57 22 76 25 19 3 42 14 50 24 8 10 46 33 83 51 37 18 64 37 60 41 -4 4 -47
9 -95 11 -78 3 -90 6 -130 34 -29 22 -44 40 -46 59 -3 25 -1 27 20 22 23 -6
23 -6 -3 17 -45 39 -62 72 -54 107 5 23 10 28 16 18 7 -12 9 -11 10 1 1 17 3
22 14 68 6 27 12 32 35 32 16 0 30 -6 32 -12 3 -9 9 -8 22 5 10 9 21 17 26 17
4 0 6 9 3 20 -4 15 0 20 13 20 43 -1 67 -53 32 -71 -14 -8 -19 -18 -15 -35 2
-13 0 -24 -4 -24 -5 0 -9 -7 -9 -16 0 -8 4 -13 9 -10 5 3 11 -3 14 -14 3 -11
19 -25 36 -31 17 -6 31 -15 31 -20 0 -5 13 -9 29 -9 32 0 64 -25 58 -44 -5
-13 36 -53 79 -78 16 -10 36 -22 44 -27 33 -21 84 -41 106 -41 13 0 42 7 64
16 30 12 40 22 40 39 0 12 7 28 16 36 8 7 22 26 31 42 14 29 23 41 50 71 7 8
9 17 5 21 -4 3 1 13 12 20 18 13 18 15 -3 48 -26 43 -26 48 0 76 21 22 26 23
113 16 108 -8 143 2 151 42 4 15 14 44 24 63 19 39 40 47 132 49 48 1 61 -3
97 -31 l42 -33 -36 -31 c-21 -17 -35 -35 -31 -41 3 -5 25 -15 49 -22 24 -7 51
-17 60 -22 12 -6 28 -2 53 13 31 18 36 25 30 47 -4 14 -13 30 -21 34 -18 10
-18 37 0 63 8 12 18 44 22 73 6 44 4 57 -15 81 -11 16 -21 33 -21 39 0 5 -18
31 -40 57 -39 48 -119 94 -161 94 -21 0 -62 -58 -54 -77 8 -21 -21 -15 -75 17
-28 17 -53 30 -55 30 -2 0 -20 11 -40 24 -46 32 -68 34 -450 51 -38 2 -96 8
-128 15 -51 11 -61 17 -83 51 -27 44 -28 44 -42 27z m925 -272 c40 11 56 -9
59 -72 2 -81 -14 -93 -123 -94 -73 0 -85 3 -112 26 -17 14 -31 34 -31 44 0 22
71 76 112 85 16 4 32 13 35 21 5 13 8 13 22 0 10 -9 26 -13 38 -10z m-812 -81
c45 -19 55 -28 55 -48 0 -35 -42 -41 -105 -14 -66 27 -94 53 -87 79 4 17 10
19 43 14 22 -3 64 -17 94 -31z m-1932 -291 c26 -5 37 -12 37 -24 0 -13 -12
-19 -56 -24 -64 -7 -74 -4 -74 30 0 26 18 30 93 18z m-1059 -121 c9 -21 -6
-36 -33 -31 -20 3 -21 4 -6 26 19 26 31 28 39 5z m2452 -218 c4 -9 19 -15 40
-15 24 0 43 -9 64 -29 53 -50 30 -84 -38 -55 -20 9 -53 18 -72 21 -44 6 -60
19 -60 49 0 36 54 60 66 29z m-746 -219 c0 -9 -7 -12 -20 -9 -11 3 -20 9 -20
14 0 5 9 9 20 9 11 0 20 -6 20 -14z m-95 -115 c3 -5 1 -12 -5 -16 -5 -3 -10 1
-10 9 0 18 6 21 15 7z m212 3 c-3 -3 -12 -4 -19 -1 -8 3 -5 6 6 6 11 1 17 -2
13 -5z m764 -54 c25 -14 24 -52 0 -74 -20 -18 -31 -16 -63 11 -13 12 -15 20
-6 38 6 13 18 26 27 28 9 3 17 5 19 6 2 0 12 -4 23 -9z m-965 -85 c-20 -15
-21 -84 -2 -140 l14 -40 100 -6 c54 -4 121 -12 148 -18 28 -7 94 -10 154 -8
118 4 242 -13 266 -37 8 -9 20 -16 25 -16 6 0 7 -4 4 -10 -3 -5 -15 -10 -26
-10 -10 0 -19 -4 -19 -9 0 -20 -34 -20 -93 1 -81 28 -265 31 -312 5 -20 -11
-54 -17 -103 -17 -64 0 -174 -23 -249 -51 -21 -8 -21 -10 -8 -60 8 -29 19 -57
24 -62 18 -18 12 -32 -19 -44 -55 -21 -49 -65 11 -78 38 -9 40 -14 24 -61 -8
-21 -14 -31 -15 -22 0 11 -5 15 -14 12 -8 -3 -25 2 -38 10 -17 11 -62 18 -144
22 -68 4 -122 12 -126 18 -5 8 -14 7 -30 -3 -24 -15 -128 -29 -263 -35 -44 -1
-100 -9 -125 -17 -25 -7 -52 -13 -60 -14 -8 0 -16 -10 -18 -21 -3 -21 -7 -22
-89 -17 -48 2 -99 11 -114 19 -15 8 -33 14 -39 14 -6 0 -24 10 -41 22 -47 35
-179 45 -509 37 -157 -4 -361 -13 -455 -19 -179 -13 -261 -11 -335 10 -204 57
-270 79 -270 91 0 4 12 14 26 23 17 12 24 25 22 39 -4 27 -20 25 -105 -14 -35
-16 -67 -29 -71 -29 -4 0 -30 -12 -59 -26 -36 -19 -57 -37 -68 -60 -9 -19 -21
-33 -28 -31 -6 1 -16 -8 -22 -21 -5 -13 -22 -26 -37 -29 -15 -3 -43 -23 -62
-44 -23 -24 -49 -40 -71 -45 -19 -3 -38 -10 -41 -15 -3 -5 -9 -7 -14 -4 -4 3
-13 -2 -20 -10 -7 -8 -17 -15 -23 -15 -6 0 -18 -7 -27 -15 -18 -16 -60 -9 -60
10 0 8 -12 23 -27 35 -37 29 -64 110 -56 168 5 33 2 48 -9 56 -21 16 -29 43
-18 70 13 34 197 216 219 216 10 0 21 3 25 7 16 16 85 33 136 32 30 0 96 -6
145 -14 50 -7 140 -20 200 -29 107 -16 272 -42 328 -52 26 -5 39 -24 16 -24
-5 0 -7 -4 -4 -10 6 -10 -49 -16 -113 -11 -29 2 -35 -2 -45 -28 -6 -17 -15
-31 -19 -31 -4 0 -8 -7 -8 -15 0 -10 10 -15 29 -15 16 0 34 7 41 15 7 8 17 15
22 15 5 0 16 7 24 15 9 8 26 15 39 15 13 0 31 7 39 16 11 10 25 14 44 9 16 -3
48 -1 73 4 24 5 67 12 94 16 28 3 76 10 107 16 41 8 70 9 100 1 24 -6 97 -16
163 -22 66 -6 185 -18 265 -26 245 -25 416 -37 442 -31 23 6 24 10 20 65 -7
101 37 143 59 56 14 -54 33 -65 62 -35 19 19 22 32 20 95 -2 79 7 94 49 80 13
-4 29 2 46 18 15 13 43 32 62 43 19 10 41 25 48 32 16 16 54 17 69 2 8 -8 20
-7 44 4 19 8 69 18 112 20 78 6 112 19 103 42 -5 13 12 35 26 35 5 0 13 -11
18 -25 13 -35 38 -42 73 -21 21 12 71 20 166 27 113 8 139 13 156 29 18 18 20
18 29 3 6 -11 4 -20 -8 -28z m804 -358 c0 -8 -9 -22 -20 -32 -16 -14 -30 -17
-72 -12 -75 9 -79 22 -11 39 76 20 103 21 103 5z m1600 -467 c0 -5 -5 -10 -11
-10 -5 0 -7 5 -4 10 3 6 8 10 11 10 2 0 4 -4 4 -10z m-2328 -183 c7 -7 30 -23
51 -36 47 -29 50 -53 5 -50 -55 3 -68 -8 -68 -57 0 -26 -5 -44 -11 -44 -8 0
-10 23 -5 78 7 84 -1 108 -32 100 -15 -4 -19 -2 -15 8 7 18 57 18 75 1z m-92
-267 c0 -11 -4 -20 -10 -20 -5 0 -10 9 -10 20 0 11 5 20 10 20 6 0 10 -9 10
-20z m-1220 -950 c0 -5 -6 -10 -14 -10 -8 0 -18 5 -21 10 -3 6 3 10 14 10 12
0 21 -4 21 -10z"/>
<path d="M1980 4141 c0 -11 39 -26 47 -17 8 8 3 12 -24 20 -13 4 -23 3 -23 -3z"/>
<path d="M1935 4110 c3 -5 15 -10 26 -10 10 0 19 5 19 10 0 6 -12 10 -26 10
-14 0 -23 -4 -19 -10z"/>
<path d="M7853 4093 c-18 -6 -16 -43 1 -43 22 0 46 11 46 21 0 12 -33 27 -47
22z"/>
<path d="M2151 4081 c-9 -6 8 -12 51 -20 79 -13 78 -13 78 -1 0 6 -15 10 -32
10 -25 0 -29 3 -18 10 11 7 4 10 -25 10 -22 0 -46 -4 -54 -9z"/>
<path d="M2098 4073 c6 -2 18 -2 25 0 6 3 1 5 -13 5 -14 0 -19 -2 -12 -5z"/>
<path d="M8376 4065 c-3 -8 -1 -15 3 -15 5 0 11 7 15 15 3 8 1 15 -3 15 -5 0
-11 -7 -15 -15z"/>
<path d="M7800 4060 c0 -6 7 -10 15 -10 8 0 15 2 15 4 0 2 -7 6 -15 10 -8 3
-15 1 -15 -4z"/>
<path d="M4211 3994 c0 -11 3 -14 6 -6 3 7 2 16 -1 19 -3 4 -6 -2 -5 -13z"/>
<path d="M8830 3973 c0 -13 5 -23 10 -23 13 0 13 11 0 30 -8 12 -10 11 -10 -7z"/>
<path d="M3764 3820 c3 -30 5 -58 6 -62 2 -35 117 2 198 64 l56 43 -63 3 c-49
2 -70 -1 -97 -18 -45 -26 -58 -25 -85 3 l-21 22 6 -55z"/>
<path d="M6438 3813 c-9 -2 -21 -17 -28 -33 -7 -16 -18 -35 -26 -41 -20 -16
-17 -63 4 -81 35 -31 60 -31 117 1 56 32 103 39 122 20 15 -15 92 -29 99 -17
10 16 -16 36 -84 63 -37 14 -83 37 -102 50 -43 29 -79 43 -102 38z"/>
<path d="M9404 3812 c5 -8 66 -4 66 4 0 2 -16 4 -36 4 -19 0 -33 -4 -30 -8z"/>
<path d="M10373 3720 c0 -25 2 -35 4 -22 2 12 2 32 0 45 -2 12 -4 2 -4 -23z"/>
<path d="M9527 3743 c-3 -5 3 -15 14 -22 18 -11 20 -10 17 5 -3 19 -23 30 -31
17z"/>
<path d="M6170 3448 c-7 -24 -22 -61 -35 -83 -13 -22 -26 -58 -30 -80 -4 -22
-18 -52 -32 -66 l-25 -27 39 -28 c21 -16 49 -39 63 -52 14 -12 43 -35 65 -50
22 -15 55 -40 73 -57 55 -49 226 -165 244 -165 9 0 52 -22 95 -49 92 -57 123
-69 123 -48 0 16 -41 47 -63 47 -8 0 -22 9 -32 20 -10 11 -22 20 -26 20 -4 0
-19 4 -34 10 -22 8 -24 13 -15 30 10 18 78 60 98 60 15 0 126 -90 184 -151 91
-94 106 -77 30 35 -27 39 -57 87 -67 106 -10 19 -26 41 -36 48 -37 26 -49 44
-49 73 0 45 -39 118 -72 135 -24 12 -38 13 -88 3 -67 -13 -108 -6 -117 19 -14
38 -24 43 -53 22 -31 -22 -89 -27 -91 -7 -1 6 -2 46 -3 87 -1 89 -18 124 -81
163 -23 15 -45 27 -48 27 -3 0 -11 -19 -17 -42z"/>
<path d="M5718 3403 c7 -3 16 -2 19 1 4 3 -2 6 -13 5 -11 0 -14 -3 -6 -6z"/>
<path d="M6393 3382 c-20 -15 -21 -20 -10 -41 22 -44 43 -49 74 -19 l27 27
-24 26 c-28 29 -37 30 -67 7z"/>
<path d="M9812 3285 c-1 -42 -6 -63 -17 -71 -14 -10 -14 -13 0 -24 9 -7 28
-13 42 -14 23 -1 28 -7 34 -36 5 -22 3 -44 -7 -62 -16 -30 -18 -58 -6 -58 10
0 34 53 52 112 15 50 -18 152 -50 154 -23 1 -22 0 -37 34 -9 22 -11 17 -11
-35z"/>
<path d="M7378 3094 c-37 -8 -86 -23 -110 -34 l-43 -20 65 5 c104 10 170 31
170 56 0 11 2 11 -82 -7z"/>
<path d="M5040 3029 c0 -5 5 -7 10 -4 6 3 10 8 10 11 0 2 -4 4 -10 4 -5 0 -10
-5 -10 -11z"/>
<path d="M7896 2978 c3 -13 3 -20 -1 -16 -11 11 -45 -10 -45 -27 0 -25 27 -17
49 14 25 35 27 51 5 51 -11 0 -14 -6 -8 -22z"/>
<path d="M9820 2983 c0 -7 4 -13 9 -13 5 0 11 6 14 13 3 8 -1 14 -9 14 -8 0
-14 -6 -14 -14z"/>
<path d="M9750 2940 c-6 -11 -18 -20 -26 -20 -8 0 -12 -4 -9 -10 13 -21 43
-10 54 20 11 34 -2 41 -19 10z"/>
<path d="M9927 2113 c-4 -3 -7 -14 -7 -24 0 -18 -35 -49 -57 -49 -6 0 -13 8
-15 19 -3 17 -7 18 -53 6 -27 -7 -85 -20 -127 -29 -74 -17 -108 -35 -108 -58
0 -6 15 -25 34 -42 18 -18 38 -42 45 -54 12 -22 92 -52 139 -52 41 0 90 29
101 61 11 31 64 69 97 69 13 0 24 8 27 20 3 11 13 20 22 20 15 0 15 3 5 15 -9
11 -23 14 -45 9 -45 -8 -67 15 -54 58 9 32 8 43 -4 31z"/>
<path d="M10138 2033 c-23 -6 -23 -26 0 -46 27 -24 32 -21 32 18 0 19 -3 34
-7 34 -5 -1 -16 -3 -25 -6z"/>
<path d="M6320 1880 c0 -5 5 -10 10 -10 6 0 10 5 10 10 0 6 -4 10 -10 10 -5 0
-10 -4 -10 -10z"/>
<path d="M9553 1728 c-29 -11 -53 -24 -53 -29 0 -25 176 -31 250 -8 59 18 58
19 -25 44 -66 20 -109 18 -172 -7z"/>
<path d="M9147 1593 c-14 -13 -6 -31 11 -26 10 2 19 11 19 19 0 14 -19 19 -30
7z"/>
<path d="M6020 1443 c0 -80 6 -103 26 -103 8 0 17 -13 21 -30 3 -16 9 -30 13
-30 4 0 11 -11 14 -25 4 -17 13 -25 27 -25 16 0 20 -5 16 -20 -7 -26 18 -39
61 -33 31 5 56 23 31 23 -15 0 -49 39 -49 57 0 13 15 22 43 27 25 3 44 25 66
71 21 44 49 66 103 79 21 5 26 10 20 24 -6 16 -7 16 -10 0 -3 -14 -13 -18 -43
-18 -50 0 -52 20 -1 21 l37 0 -50 16 c-37 11 -54 12 -67 4 -22 -14 -56 -14
-95 -1 -22 8 -36 7 -58 -4 -26 -14 -31 -14 -47 1 -10 9 -21 13 -25 10 -3 -4
-12 1 -19 11 -11 15 -13 7 -14 -55z m60 -18 c0 -8 -7 -15 -15 -15 -16 0 -20
12 -8 23 11 12 23 8 23 -8z"/>
<path d="M5695 1471 c-11 -19 5 -49 34 -64 21 -11 34 -11 61 -2 33 11 53 35
29 35 -7 0 -20 6 -28 14 -22 19 -87 31 -96 17z"/>
<path d="M9737 1183 c-13 -12 -7 -23 13 -23 11 0 20 7 20 15 0 15 -21 21 -33
8z"/>
<path d="M8844 985 c-24 -18 -7 -19 26 0 16 9 19 14 9 15 -8 0 -24 -7 -35 -15z"/>
<path d="M8508 949 c-7 -11 -29 -27 -48 -36 l-35 -15 33 -14 c60 -26 118 -29
149 -8 16 10 32 17 36 16 5 -1 6 2 2 8 -3 5 3 10 14 10 11 0 23 5 26 10 3 6
16 10 29 10 12 0 31 7 42 15 17 13 17 14 2 15 -10 0 -18 -4 -18 -10 0 -5 -13
-7 -30 -3 -23 4 -34 1 -45 -13 -8 -11 -15 -14 -15 -7 0 26 -32 43 -81 43 -39
0 -51 -4 -61 -21z"/>
<path d="M5675 850 c-3 -6 1 -7 9 -4 18 7 21 14 7 14 -6 0 -13 -4 -16 -10z"/>
<path d="M9003 752 c9 -10 15 -28 12 -41 -5 -29 -32 -71 -45 -71 -6 0 -10 -6
-10 -12 0 -14 -59 -53 -73 -50 -4 1 -17 -4 -29 -12 -20 -14 -20 -14 0 -25 11
-6 22 -8 25 -4 4 3 13 1 20 -6 17 -14 137 -3 137 12 0 6 23 32 50 58 28 26 50
51 50 56 0 12 -45 52 -96 86 -46 31 -64 35 -41 9z"/>
<path d="M10365 739 c-5 -8 -18 -18 -27 -22 -17 -6 -23 -33 -20 -79 1 -9 -5
-22 -13 -28 -8 -7 -15 -18 -15 -26 0 -7 -7 -17 -16 -22 -18 -10 -16 -43 4 -50
6 -2 33 17 57 43 l46 47 -3 76 c-2 56 -6 73 -13 61z"/>
<path d="M8616 712 c-12 -23 -13 -42 -6 -93 5 -35 7 -74 3 -86 -6 -25 10 -30
36 -14 12 8 12 12 2 25 -12 14 -10 16 9 16 21 0 22 3 16 73 -3 39 -5 75 -6 79
0 4 -9 12 -20 18 -16 9 -22 6 -34 -18z"/>
<path d="M390 664 c0 -14 4 -23 10 -19 6 3 10 15 10 26 0 10 -4 19 -10 19 -5
0 -10 -12 -10 -26z"/>
<path d="M9460 675 l-25 -13 28 -7 c15 -4 36 -5 47 -2 24 6 24 3 6 -26 -8 -12
-17 -50 -21 -84 -5 -48 -11 -63 -23 -63 -12 0 -11 -4 6 -20 12 -12 22 -30 22
-40 0 -11 5 -20 11 -20 7 0 10 -18 8 -47 -5 -93 2 -103 84 -118 27 -5 43 -1
76 19 22 14 47 26 56 26 8 0 15 8 15 19 0 10 9 21 20 24 11 3 23 13 26 24 4
10 14 26 22 36 18 20 19 95 2 127 -6 12 -12 46 -12 75 -1 57 0 57 -82 90 -50
20 -230 20 -266 0z"/>
<path d="M9368 653 c6 -2 18 -2 25 0 6 3 1 5 -13 5 -14 0 -19 -2 -12 -5z"/>
<path d="M9334 602 c-6 -4 -13 -15 -17 -24 -3 -10 -13 -18 -22 -18 -8 0 -15
-4 -15 -9 0 -5 -2 -15 -5 -23 -4 -10 8 -12 55 -10 47 3 64 8 73 23 6 10 17 19
24 19 7 0 13 9 13 20 0 16 -7 20 -34 20 -19 0 -40 2 -48 5 -7 3 -18 1 -24 -3z"/>
<path d="M2860 436 c0 -8 5 -18 10 -21 6 -3 10 3 10 14 0 12 -4 21 -10 21 -5
0 -10 -6 -10 -14z"/>
<path d="M2705 390 c4 -6 11 -8 16 -5 14 9 11 15 -7 15 -8 0 -12 -5 -9 -10z"/>
<path d="M10290 340 c-15 -16 -33 -30 -39 -30 -6 0 -11 -7 -11 -15 0 -8 -4
-15 -10 -15 -5 0 -10 -9 -10 -20 0 -11 -4 -20 -10 -20 -5 0 -10 -4 -10 -9 0
-5 22 1 48 14 46 22 122 94 122 115 0 22 -53 9 -80 -20z"/>
<path d="M8843 350 c-13 -5 -23 -14 -23 -20 0 -5 -6 -10 -13 -10 -9 0 -11 -12
-9 -40 2 -23 0 -40 -6 -40 -6 0 -14 -15 -17 -32 -4 -18 -15 -44 -25 -58 -11
-16 -15 -37 -13 -58 2 -18 -1 -40 -7 -48 -10 -11 -9 -15 1 -18 8 -2 29 -9 48
-15 22 -7 150 -11 352 -11 294 0 318 1 323 18 8 26 4 82 -6 76 -4 -3 -8 4 -8
15 0 12 -6 21 -14 21 -7 0 -19 7 -26 15 -7 8 -22 15 -35 15 -25 0 -52 26 -56
55 -2 11 5 35 14 53 15 27 15 32 3 32 -19 0 -96 -75 -96 -93 0 -8 -6 -20 -14
-26 -8 -7 -12 -20 -9 -31 4 -14 -2 -22 -21 -30 -14 -5 -26 -16 -26 -25 0 -22
-18 -18 -25 6 -6 17 -9 19 -16 8 -7 -11 -9 -10 -9 4 0 10 -4 16 -9 13 -5 -3
-14 8 -20 24 -5 17 -17 33 -26 36 -19 8 -19 24 0 38 13 10 12 15 -2 44 -15 31
-20 33 -58 31 -26 -2 -50 3 -65 14 -13 9 -28 13 -34 10 -6 -3 -8 -3 -4 2 6 6
-14 36 -24 34 -2 0 -13 -4 -25 -9z m307 -290 c0 -5 -8 -10 -17 -10 -15 0 -16
2 -3 10 19 12 20 12 20 0z"/>
<path d="M10023 212 c-35 -9 -71 -24 -82 -33 -12 -11 -23 -14 -32 -8 -19 12
-186 11 -194 -1 -3 -5 -32 -10 -63 -10 -55 -1 -58 -2 -73 -35 -15 -31 -15 -39
-1 -80 l14 -45 109 0 c90 0 109 3 109 15 0 18 30 20 30 3 1 -8 6 -6 14 5 7 9
25 17 39 17 14 0 49 12 78 28 30 15 77 37 104 48 56 24 107 70 103 92 -4 22
-81 24 -155 4z"/>
<path d="M1520 70 c0 -17 7 -20 40 -20 45 0 57 23 18 34 -42 11 -58 7 -58 -14z"/>
<path d="M4365 40 c3 -5 8 -10 11 -10 2 0 4 5 4 10 0 6 -5 10 -11 10 -5 0 -7
-4 -4 -10z"/>
</g>
</svg>
