<?xml version="1.0" standalone="no"?>
<!DOCTYPE svg PUBLIC "-//W3C//DTD SVG 20010904//EN"
 "http://www.w3.org/TR/2001/REC-SVG-20010904/DTD/svg10.dtd">
<svg version="1.0" xmlns="http://www.w3.org/2000/svg"
 width="1280.000000pt" height="688.000000pt" viewBox="0 0 1280.000000 688.000000"
 preserveAspectRatio="xMidYMid meet">

<g transform="translate(0.000000,688.000000) scale(0.100000,-0.100000)"
fill="#000000" stroke="none">
<path d="M1420 6840 c0 -22 -4 -40 -10 -40 -5 0 -10 -18 -10 -40 0 -22 5 -40
10 -40 6 0 10 -18 10 -40 0 -38 -2 -40 -30 -40 -23 0 -30 -4 -30 -20 0 -17 7
-20 40 -20 33 0 40 3 40 20 0 13 7 20 20 20 17 0 20 -7 20 -40 0 -33 -3 -40
-20 -40 -17 0 -20 -7 -20 -40 0 -38 -2 -40 -30 -40 -28 0 -30 -2 -30 -40 0
-22 -4 -40 -10 -40 -6 0 -10 27 -10 60 l0 60 -40 0 c-22 0 -40 -4 -40 -10 0
-5 -18 -10 -40 -10 -33 0 -40 -3 -40 -20 0 -17 -7 -20 -40 -20 -24 0 -40 5
-40 12 0 6 -18 -8 -40 -31 -34 -38 -40 -50 -43 -100 l-3 -56 -2 58 c-1 31 -6
57 -10 57 -5 0 -15 18 -22 40 -7 22 -20 40 -28 40 -10 0 -13 9 -10 35 2 19 2
32 -1 30 -7 -7 -31 67 -25 77 6 9 -21 63 -44 86 -9 10 -25 30 -35 45 -13 21
-23 26 -35 21 -9 -4 -48 -8 -87 -10 -89 -3 -168 -18 -173 -33 -2 -6 -16 -11
-32 -11 -16 0 -31 -6 -34 -12 -5 -10 -7 -10 -12 0 -3 6 -12 12 -20 12 -9 0
-13 -4 -10 -9 3 -4 0 -22 -6 -39 -10 -26 -19 -32 -53 -37 -22 -3 -69 -2 -105
3 -44 7 -67 6 -72 -1 -7 -12 -90 -25 -165 -26 l-53 -1 0 -304 0 -303 48 -7
c88 -11 675 -35 1132 -45 1000 -24 944 -20 996 -62 20 -16 49 -29 63 -29 14
-1 37 -7 50 -14 14 -8 31 -12 37 -9 13 5 74 -71 74 -92 0 -29 -65 -63 -136
-70 -38 -4 -82 -14 -99 -22 -50 -24 -109 -28 -128 -8 -11 10 -24 14 -35 10
-37 -14 -506 -2 -615 16 -51 8 -84 8 -130 0 -34 -7 -98 -11 -142 -10 -44 2
-102 -3 -130 -9 -27 -7 -98 -13 -157 -13 -67 -1 -108 -5 -108 -11 0 -13 -153
0 -161 14 -5 7 -45 6 -124 -2 -99 -12 -123 -18 -159 -42 -39 -26 -47 -28 -154
-28 -95 0 -114 -3 -119 -16 -4 -10 0 -22 10 -28 8 -7 18 -29 22 -49 5 -23 13
-37 22 -37 13 0 15 -9 9 -45 -5 -39 -3 -45 11 -43 10 2 25 10 34 18 49 42 49
42 49 15 0 -20 -5 -25 -27 -25 -25 0 -25 -1 -9 -19 15 -16 15 -19 1 -24 -8 -4
-22 -4 -30 -1 -8 4 -15 1 -15 -5 0 -7 -6 -11 -12 -10 -7 1 -25 -1 -41 -5 l-27
-8 0 -310 0 -309 603 2 c681 3 1432 -7 1522 -22 33 -5 83 -20 110 -34 28 -13
57 -25 65 -25 8 0 28 -7 44 -15 15 -8 38 -15 51 -15 12 0 28 -7 35 -15 7 -8
27 -15 44 -15 17 0 45 -4 62 -9 32 -9 89 3 163 36 23 10 55 14 102 11 58 -3
73 -8 95 -30 21 -21 25 -31 19 -56 -7 -34 -31 -59 -60 -63 -11 -2 -73 3 -139
10 -90 11 -123 18 -137 32 -14 14 -19 15 -19 5 0 -8 -11 -13 -27 -13 -16 0
-50 -3 -78 -7 -45 -6 -154 -17 -317 -33 -38 -3 -58 -10 -58 -18 0 -15 -64 -40
-79 -31 -14 9 -422 20 -597 17 -107 -2 -158 1 -175 9 -16 9 -24 10 -27 2 -2
-7 -11 -8 -26 -2 -13 5 -29 4 -37 -1 -8 -4 -104 -9 -214 -9 -274 0 -624 -16
-658 -29 -16 -6 -64 -11 -108 -11 -43 0 -79 -2 -79 -5 0 -3 8 -14 17 -25 10
-11 20 -30 23 -43 4 -13 15 -23 28 -25 16 -3 20 1 16 12 -5 13 2 16 35 16 39
0 41 -2 41 -30 0 -28 2 -30 40 -30 22 0 40 -4 40 -9 0 -11 115 -22 228 -21 59
1 92 -2 92 -9 0 -6 19 -11 42 -11 35 0 46 -6 80 -42 25 -28 38 -36 38 -25 0
13 9 17 40 17 l40 0 0 -61 c0 -37 -4 -58 -10 -54 -5 3 -10 -3 -10 -14 0 -10 6
-22 13 -24 9 -4 9 -8 -2 -15 -12 -9 -12 -13 2 -26 8 -9 23 -16 31 -16 23 0 19
30 -6 53 -16 13 -19 21 -10 24 6 3 10 9 6 14 -3 5 11 9 32 9 l37 0 -6 -50 c-4
-31 -2 -48 3 -45 6 4 10 13 10 21 0 14 2 13 16 0 8 -9 23 -15 32 -15 15 1 15
2 0 6 -13 3 -18 15 -18 44 0 28 -4 39 -15 39 -8 0 -15 9 -15 20 0 11 7 20 15
20 8 0 15 9 15 20 0 13 -7 20 -20 20 -11 0 -20 5 -20 10 0 13 77 13 85 0 3 -5
22 -10 41 -10 34 0 34 0 34 -47 1 -41 2 -45 12 -28 21 36 68 78 68 61 0 -12
10 -16 39 -16 22 0 42 -6 45 -12 2 -7 4 -2 3 11 -1 13 4 25 11 27 7 1 8 0 2
-3 -15 -7 -12 -21 7 -25 16 -3 16 -4 0 -20 -9 -9 -17 -22 -17 -28 0 -7 -8 -9
-21 -5 -15 5 -19 4 -15 -4 13 -21 33 -11 80 39 54 57 75 65 157 57 38 -3 78 0
112 10 30 8 89 14 140 13 77 -1 87 1 88 17 0 10 3 13 5 7 3 -7 32 -9 81 -7 57
3 88 0 118 -13 77 -32 108 -49 119 -66 9 -16 29 -18 153 -18 107 0 144 3 150
13 17 28 70 57 113 61 25 2 79 13 120 24 41 12 95 24 120 28 106 16 193 135
211 288 16 140 28 161 171 307 137 140 246 234 301 259 94 44 235 93 277 97
25 3 76 -3 114 -11 48 -11 73 -13 80 -6 7 7 1 10 -20 11 -29 1 -29 1 -4 10 20
7 18 8 -11 4 l-36 -5 -2 85 c-2 78 0 85 17 85 22 0 92 -65 92 -85 0 -12 27
-20 118 -31 30 -4 42 -11 42 -22 0 -11 12 -3 35 23 19 22 35 34 35 26 0 -11 3
-11 15 -1 20 17 19 32 -5 63 -11 14 -20 32 -20 41 0 9 -4 16 -9 16 -5 0 -15
54 -21 120 -11 102 -16 123 -33 131 -20 11 -383 4 -519 -10 -36 -4 -77 -3 -90
2 -13 5 -44 10 -70 11 -50 1 -79 22 -92 64 -4 12 -12 22 -17 22 -5 0 -9 19 -9
43 0 32 8 57 32 93 18 27 35 51 38 54 13 11 40 80 40 103 0 13 9 35 19 49 19
24 23 24 88 16 37 -4 92 -13 121 -20 43 -9 55 -9 61 1 7 10 14 10 38 -3 33
-17 182 -23 270 -11 64 9 113 1 146 -25 l25 -20 -20 -41 c-15 -32 -21 -72 -26
-168 -8 -139 3 -233 37 -318 15 -38 17 -53 8 -56 -9 -3 -9 -8 1 -18 10 -11 12
-11 12 1 0 9 10 2 24 -15 13 -16 22 -34 19 -39 -4 -5 -1 -6 5 -2 6 4 33 -9 59
-27 62 -44 102 -57 175 -57 66 0 115 20 174 73 46 40 110 137 127 191 l12 41
6 -35 c5 -34 6 -33 18 25 7 33 17 62 21 65 4 3 11 19 17 35 5 17 14 28 19 25
17 -9 8 -74 -19 -143 l-27 -67 43 3 c23 2 52 8 64 15 29 16 34 5 23 -59 -12
-74 -50 -148 -96 -186 -52 -42 -82 -69 -69 -62 5 4 24 10 40 13 88 20 199 213
211 371 3 39 12 84 19 100 7 17 15 37 18 45 13 35 6 -111 -8 -162 -24 -94 -93
-259 -136 -324 -56 -86 -129 -150 -182 -158 -9 -1 -20 -5 -23 -9 -4 -4 -14 -7
-22 -7 -11 0 -12 3 -2 15 10 12 7 13 -17 6 -33 -9 -171 -7 -195 4 -10 4 -18 4
-18 1 0 -4 11 -11 25 -16 14 -5 25 -17 25 -28 0 -16 30 -59 126 -176 12 -16
61 -68 109 -117 48 -49 85 -96 85 -107 0 -15 9 -21 35 -26 19 -4 35 -12 35
-19 0 -7 24 -27 53 -45 28 -18 63 -49 77 -67 23 -32 82 -61 101 -50 4 3 9 -1
12 -7 2 -7 7 -10 11 -7 4 4 1 18 -5 33 -9 19 -20 26 -39 26 -23 0 -81 44 -69
53 36 25 122 78 147 91 18 9 46 39 63 67 17 27 39 54 49 59 10 5 24 36 34 72
23 85 85 238 107 263 9 11 20 36 24 55 11 55 63 244 101 366 30 99 34 120 29
185 -9 106 -34 219 -51 226 -8 3 -14 15 -14 28 0 24 -22 92 -42 135 -22 43
-100 172 -122 199 -48 60 -157 162 -166 156 -6 -4 -37 18 -70 48 -66 62 -94
75 -116 56 -12 -10 -20 -7 -43 19 -17 18 -46 35 -72 42 -24 6 -66 18 -93 26
-82 23 -227 -6 -292 -59 -79 -65 -199 -291 -173 -324 9 -10 8 -13 -5 -13 -32
0 -19 60 41 189 33 74 62 114 128 181 19 19 35 40 35 46 0 12 277 222 325 246
126 64 488 41 991 -62 172 -35 256 -61 351 -108 18 -9 35 -13 39 -9 4 4 0 7
-9 7 -10 0 -17 5 -17 11 0 7 -8 18 -17 26 -17 13 -16 14 5 10 14 -3 22 0 22 9
0 7 11 16 25 20 14 3 29 11 33 18 9 14 88 52 127 62 17 4 35 11 42 16 12 10
56 19 108 23 52 4 54 5 65 25 11 20 8 20 -2635 20 l-2645 0 0 -40z m100 -110
c0 -5 -5 -10 -11 -10 -5 0 -7 5 -4 10 3 6 8 10 11 10 2 0 4 -4 4 -10z m177
-168 c-12 -3 -17 -14 -17 -43 0 -39 0 -39 -40 -39 l-40 0 0 49 0 50 43 3 c43
3 88 -14 54 -20z m383 10 c0 -5 11 -15 25 -22 14 -7 25 -17 25 -22 0 -5 -11
-13 -25 -18 -14 -5 -25 -14 -25 -20 0 -5 -11 -10 -24 -10 -13 0 -28 -6 -34
-13 -12 -14 -102 -11 -102 4 0 5 -18 9 -40 9 -22 0 -40 5 -40 10 0 6 -18 10
-40 10 -33 0 -40 3 -40 20 0 17 7 20 40 20 22 0 40 5 40 10 0 6 10 10 23 10
12 0 29 5 37 10 18 12 180 13 180 2z m400 -42 c0 -28 -2 -30 -40 -30 -38 0
-40 2 -40 30 0 28 2 30 40 30 38 0 40 -2 40 -30z m2360 -37 c0 -9 -133 -54
-139 -47 -8 8 8 16 61 35 59 20 78 23 78 12z m136 -21 c-9 -9 -37 8 -31 18 5
8 11 7 21 -1 8 -6 12 -14 10 -17z m-3296 -27 c0 -12 -16 -15 -80 -15 -84 0
-111 16 -37 23 98 9 117 7 117 -8z m3326 -40 c-3 -9 -11 -13 -16 -10 -8 5 -7
11 1 21 14 18 24 11 15 -11z m86 -27 c-7 -7 -12 -8 -12 -2 0 14 12 26 19 19 2
-3 -1 -11 -7 -17z m-57 2 c3 -5 1 -10 -4 -10 -6 0 -11 5 -11 10 0 6 2 10 4 10
3 0 8 -4 11 -10z m185 -42 c0 -13 -23 -5 -28 10 -2 7 2 10 12 6 9 -3 16 -11
16 -16z m-390 -26 c0 -13 -12 -22 -22 -16 -10 6 -1 24 13 24 5 0 9 -4 9 -8z
m162 -14 c-7 -7 -12 -19 -12 -28 0 -9 -11 -26 -25 -38 -27 -24 -35 -27 -35
-14 0 10 69 92 78 92 3 0 1 -5 -6 -12z m-172 -27 c0 -6 -4 -13 -10 -16 -5 -3
-10 1 -10 9 0 9 5 16 10 16 6 0 10 -4 10 -9z m90 -11 c0 -5 -4 -10 -10 -10 -5
0 -10 5 -10 10 0 6 5 10 10 10 6 0 10 -4 10 -10z m418 -20 c7 -11 11 -20 9
-20 -2 0 -12 9 -22 20 -10 11 -14 20 -9 20 5 0 15 -9 22 -20z m-509 -35 c24
-8 71 -34 104 -56 45 -31 64 -39 76 -32 12 8 21 1 41 -31 30 -47 42 -84 30
-91 -5 -3 -14 5 -21 17 -15 30 -60 78 -73 78 -5 0 1 -10 14 -22 36 -34 142
-290 126 -305 -3 -4 -6 1 -6 10 0 10 -4 17 -10 17 -5 0 -10 10 -10 23 0 12 -7
31 -15 41 -15 20 -15 20 -15 0 -1 -12 -6 -7 -16 16 -10 22 -18 30 -22 23 -5
-8 -27 16 -61 67 -29 43 -60 84 -69 91 -14 11 -15 11 -4 -1 6 -8 12 -27 12
-44 0 -16 12 -49 26 -73 19 -33 24 -52 19 -73 -7 -33 -24 -48 -34 -32 -3 6
-13 12 -21 14 -8 2 -26 22 -41 45 -99 151 -293 227 -417 164 -23 -12 -42 -24
-42 -27 0 -2 9 0 21 6 11 7 23 9 26 7 5 -5 -33 -20 -53 -21 -17 -1 -107 -110
-132 -160 -26 -51 -42 -66 -42 -38 0 37 132 231 158 232 6 0 12 7 12 15 0 8 5
15 10 15 6 0 10 -5 10 -11 0 -5 5 -7 11 -3 8 4 7 9 -2 16 -10 7 -7 8 11 4 14
-3 32 -1 40 5 11 8 9 9 -9 4 -16 -5 -21 -4 -17 4 13 20 -17 11 -65 -20 -27
-17 -67 -52 -90 -77 -22 -26 -36 -36 -29 -23 33 65 219 205 315 238 50 16 193
10 254 -12z m-2210 -84 c109 -1 191 -15 191 -33 0 -4 6 -8 13 -8 7 0 26 -15
42 -32 41 -46 40 -103 -4 -192 -18 -36 -31 -72 -28 -79 7 -18 -26 -69 -50 -79
-10 -3 -39 -7 -65 -7 -38 -1 -52 4 -74 26 -21 21 -25 32 -21 60 3 18 2 46 -3
61 -4 15 -11 39 -14 55 -4 15 -12 27 -19 27 -6 0 -23 9 -37 20 -14 11 -32 20
-40 20 -8 0 -26 17 -40 38 -14 20 -31 41 -38 45 -7 5 -10 12 -7 17 3 5 1 11
-5 15 -5 3 -10 10 -10 15 0 15 74 49 85 40 6 -4 61 -8 124 -9z m2701 -25 c0
-2 -7 -6 -15 -10 -8 -3 -15 -1 -15 4 0 6 7 10 15 10 8 0 15 -2 15 -4z m-2910
-31 c0 -9 -6 -12 -15 -9 -8 4 -15 10 -15 15 0 5 7 9 15 9 8 0 15 -7 15 -15z
m2967 -7 c-3 -8 -6 -5 -6 6 -1 11 2 17 5 13 3 -3 4 -12 1 -19z m-814 -5 c-13
-2 -35 -2 -50 0 -16 2 -5 4 22 4 28 0 40 -2 28 -4z m627 -25 c0 -6 -7 -5 -15
2 -8 7 -15 17 -15 22 0 6 7 5 15 -2 8 -7 15 -17 15 -22z m165 2 c-3 -5 -10
-10 -16 -10 -5 0 -9 5 -9 10 0 6 7 10 16 10 8 0 12 -4 9 -10z m-563 -79 c42
-49 69 -112 74 -168 l4 -58 -21 65 c-12 36 -36 88 -55 116 -19 28 -34 54 -34
58 0 12 16 6 32 -13z m742 -157 c6 -15 4 -15 -11 -3 -10 7 -20 15 -22 16 -2 2
3 3 11 3 9 0 19 -7 22 -16z m-1164 -154 c0 -5 -2 -10 -4 -10 -3 0 -8 5 -11 10
-3 6 -1 10 4 10 6 0 11 -4 11 -10z m278 -12 c7 -7 12 -26 12 -43 0 -38 -16
-55 -49 -54 -24 1 -24 2 4 8 23 5 31 12 33 34 2 16 -2 27 -8 27 -7 0 -10 -7
-7 -15 4 -8 2 -17 -3 -20 -6 -4 -10 3 -10 14 0 28 -20 27 -21 -1 -1 -22 -1
-22 -9 2 -7 24 -7 23 -12 -10 l-5 -35 -1 38 c-1 21 4 44 11 52 15 18 49 19 65
3z m-238 -98 c0 -5 -4 -10 -10 -10 -5 0 -10 5 -10 10 0 6 5 10 10 10 6 0 10
-4 10 -10z m-153 -52 c-3 -7 -5 -2 -5 12 0 14 2 19 5 13 2 -7 2 -19 0 -25z
m178 22 c3 -5 2 -10 -4 -10 -5 0 -13 5 -16 10 -3 6 -2 10 4 10 5 0 13 -4 16
-10z m50 -20 c-3 -5 -10 -10 -16 -10 -5 0 -9 5 -9 10 0 6 7 10 16 10 8 0 12
-4 9 -10z m-4295 -40 c-19 -12 -33 2 -24 24 6 16 8 16 23 1 14 -14 14 -17 1
-25z m4247 24 c-3 -3 -12 -4 -19 -1 -8 3 -5 6 6 6 11 1 17 -2 13 -5z m-4189
-66 c3 -37 3 -38 -32 -38 -34 0 -36 2 -36 34 0 36 11 46 45 43 15 -2 21 -10
23 -39z m4889 0 c-3 -8 -6 -5 -6 6 -1 11 2 17 5 13 3 -3 4 -12 1 -19z m313
-13 c0 -14 -4 -25 -10 -25 -11 0 -14 33 -3 43 11 11 13 8 13 -18z m-5180 -115
c0 -5 -4 -10 -10 -10 -5 0 -10 5 -10 10 0 6 5 10 10 10 6 0 10 -4 10 -10z
m5120 -84 c0 -2 -7 -6 -15 -10 -8 -3 -15 -1 -15 4 0 6 7 10 15 10 8 0 15 -2
15 -4z m-414 -182 c-3 -8 1 -28 9 -44 8 -16 15 -35 15 -42 -1 -7 -8 3 -16 22
-33 75 -35 80 -18 80 11 0 14 -6 10 -16z m-287 -50 c2 -2 -10 -4 -27 -4 -17 0
-34 4 -37 10 -5 9 53 3 64 -6z m388 -6 c-3 -8 -6 -5 -6 6 -1 11 2 17 5 13 3
-3 4 -12 1 -19z m-277 -44 c0 -8 -4 -14 -10 -14 -5 0 -10 9 -10 21 0 11 5 17
10 14 6 -3 10 -13 10 -21z m620 1 c-7 -8 -17 -15 -23 -15 -5 0 -2 9 8 20 21
23 35 19 15 -5z m-363 -42 c-3 -10 -5 -4 -5 12 0 17 2 24 5 18 2 -7 2 -21 0
-30z m319 -8 c-3 -9 -11 -13 -16 -10 -8 5 -7 11 1 21 14 18 24 11 15 -11z
m-386 1 c0 -2 -7 -9 -15 -16 -13 -11 -14 -10 -9 4 5 14 24 23 24 12z m-170
-22 c0 -8 -5 -12 -10 -9 -6 4 -8 11 -5 16 9 14 15 11 15 -7z m220 -24 c0 -5
-2 -10 -4 -10 -3 0 -8 5 -11 10 -3 6 -1 10 4 10 6 0 11 -4 11 -10z m-172 -55
c-3 -4 -16 9 -28 27 l-23 33 28 -27 c16 -15 26 -30 23 -33z m392 21 c0 -3 -4
-8 -10 -11 -5 -3 -10 -1 -10 4 0 6 5 11 10 11 6 0 10 -2 10 -4z m-312 -55 c3
-8 -1 -12 -9 -9 -7 2 -15 10 -17 17 -3 8 1 12 9 9 7 -2 15 -10 17 -17z m111
-15 c-3 -3 -16 -2 -29 1 -22 6 -22 7 -4 14 18 6 43 -5 33 -15z m-128 -28 c15
-28 5 -21 -21 15 -15 20 -17 27 -6 18 9 -8 22 -23 27 -33z m419 15 c0 -5 -5
-15 -10 -23 -8 -12 -10 -11 -10 8 0 12 5 22 10 22 6 0 10 -3 10 -7z m-223 -59
c-3 -3 -12 -4 -19 -1 -8 3 -5 6 6 6 11 1 17 -2 13 -5z m-37 -134 c0 -5 -2 -10
-4 -10 -3 0 -8 5 -11 10 -3 6 -1 10 4 10 6 0 11 -4 11 -10z m-3212 -309 c8 -4
14 -12 14 -16 0 -4 -6 -12 -14 -17 -8 -6 15 -8 65 -5 44 2 73 0 65 -4 -18 -12
-135 -11 -143 1 -3 5 -11 8 -18 6 -7 -1 -9 -1 -4 1 4 3 7 13 7 24 0 21 8 23
28 10z m-103 -41 c-3 -5 -12 -10 -18 -10 -7 0 -6 4 3 10 19 12 23 12 15 0z
m-12 -27 c-7 -2 -19 -2 -25 0 -7 3 -2 5 12 5 14 0 19 -2 13 -5z"/>
<path d="M6952 6864 c-30 -8 -58 -12 -63 -8 -5 3 -9 0 -9 -5 0 -6 -18 -11 -40
-11 -33 0 -40 -3 -40 -20 0 -16 -7 -20 -30 -20 -16 0 -30 -4 -30 -8 0 -5 -6
-9 -12 -10 -57 -5 -110 -27 -126 -50 -9 -15 -28 -36 -41 -46 -13 -11 -28 -26
-35 -34 -6 -7 -21 -24 -33 -37 -13 -12 -23 -29 -23 -38 0 -22 -18 -31 -35 -17
-9 7 -15 8 -15 2 0 -9 63 -62 74 -62 3 0 54 -34 113 -76 125 -88 238 -202 323
-326 73 -107 81 -122 124 -239 85 -227 82 -309 -26 -719 -28 -107 -59 -231
-68 -275 -24 -113 -28 -122 -58 -133 -32 -11 -182 -163 -245 -247 -24 -33 -88
-100 -141 -149 -103 -94 -205 -224 -185 -236 6 -4 45 -8 87 -9 90 -2 112 -6
172 -31 25 -10 59 -24 77 -30 18 -7 56 -30 84 -51 29 -21 59 -39 66 -39 26 0
112 32 124 46 6 8 19 14 28 14 9 0 22 5 28 11 17 17 63 2 63 -19 0 -10 -5 -23
-12 -30 -18 -18 -4 -25 61 -33 62 -7 168 -53 182 -79 25 -45 73 -152 90 -199
38 -107 18 -278 -36 -309 -21 -11 -12 -32 13 -32 28 0 61 -28 56 -48 -3 -9
-23 -37 -44 -62 -22 -25 -40 -48 -40 -52 0 -3 -13 -11 -29 -16 -37 -13 -83 10
-153 76 -27 26 -69 66 -93 89 -63 61 -86 56 -100 -22 -6 -32 -20 -51 -71 -98
-55 -49 -68 -57 -91 -51 -66 15 -122 53 -213 143 -102 101 -142 166 -206 336
-25 63 -83 162 -117 196 -20 21 -85 109 -89 121 -3 8 -65 -26 -87 -47 -2 -3 9
-17 25 -32 18 -17 24 -28 16 -31 -14 -4 -16 -40 -3 -61 5 -8 18 -12 28 -9 15
4 26 -5 46 -39 15 -24 27 -46 27 -49 0 -2 9 -23 19 -47 49 -108 62 -144 76
-219 8 -44 15 -111 15 -148 0 -67 16 -126 59 -222 37 -81 44 -73 57 62 3 41
11 83 16 93 8 15 12 16 36 4 15 -8 53 -20 85 -27 31 -7 57 -17 57 -22 0 -4 5
-8 11 -8 7 0 17 -7 23 -15 9 -12 33 -21 69 -24 18 -2 4 -57 -25 -95 -17 -22
-33 -43 -35 -45 -2 -3 -9 1 -15 7 -7 7 -25 12 -40 12 -15 0 -28 5 -28 10 0 13
-48 32 -60 25 -17 -10 2 -35 27 -35 13 0 31 -7 40 -15 8 -9 28 -19 44 -22 16
-3 29 -6 29 -8 0 -1 -11 -28 -24 -61 -27 -66 -91 -144 -118 -144 -13 0 -18 -8
-18 -25 0 -26 -30 -61 -79 -93 -20 -14 -22 -21 -17 -60 4 -30 1 -53 -10 -73
-11 -23 -16 -75 -19 -232 -2 -112 -8 -214 -14 -230 -6 -16 -11 -70 -11 -122
l0 -93 30 -7 c106 -23 272 -192 392 -400 44 -76 89 -147 99 -155 16 -13 59
-112 65 -149 15 -91 -66 -104 -172 -28 -18 12 -39 27 -48 32 -9 6 -22 26 -29
45 -17 46 -39 80 -53 80 -15 0 -34 53 -34 94 0 17 7 42 16 54 27 40 11 84 -49
134 -29 23 -55 48 -60 55 -4 6 -27 19 -52 29 -39 14 -55 15 -118 5 -46 -7
-137 -9 -254 -6 -101 3 -183 2 -183 -2 0 -5 11 -29 25 -56 14 -26 22 -47 18
-47 -4 0 -28 21 -54 46 -83 81 -169 68 -169 -26 0 -22 5 -40 10 -40 6 0 10 -8
10 -17 0 -10 23 -57 51 -106 28 -48 49 -90 46 -93 -2 -3 -19 12 -36 31 -53 61
-82 67 -192 45 -52 -11 -107 -20 -124 -20 -42 0 -112 -23 -131 -42 -13 -13
-16 -33 -14 -90 8 -253 14 -290 53 -332 15 -16 27 -36 27 -45 0 -10 5 -22 11
-28 13 -13 16 -114 4 -132 -3 -6 -30 -11 -58 -11 -49 0 -55 3 -87 40 -32 38
-38 41 -79 38 l-44 -3 -19 70 c-10 39 -19 85 -20 103 -1 19 -7 32 -15 32 -7 0
-14 9 -15 20 -3 41 -8 77 -16 138 -5 35 -5 65 0 68 4 3 8 13 7 22 0 11 -3 12
-6 5 -7 -19 -25 -15 -22 5 2 9 -1 27 -5 40 -10 29 29 98 76 131 43 32 78 64
78 74 0 12 -51 8 -85 -9 -36 -17 -83 -76 -133 -168 -27 -50 -32 -55 -28 -29 6
38 27 86 56 130 21 31 21 33 3 33 -10 0 -25 5 -33 10 -12 8 -9 15 19 44 l33
34 -43 -5 c-66 -7 -66 -7 -114 -82 -29 -45 -47 -86 -52 -116 -6 -49 -20 -66
-35 -44 -12 18 -4 160 11 187 7 13 7 23 1 27 -28 18 -89 -66 -190 -262 -34
-67 -71 -131 -82 -142 -18 -20 -138 -253 -138 -269 0 -20 -92 -226 -133 -299
-26 -45 -47 -88 -47 -96 0 -52 -102 -49 -263 9 -70 26 -222 54 -368 69 -177
18 -188 20 -219 34 -29 13 -174 30 -207 24 -13 -2 -23 0 -23 4 0 5 -30 9 -67
11 -37 2 -74 7 -83 12 -17 9 -165 32 -285 45 -32 4 -64 9 -70 13 -18 12 -173
26 -235 22 -14 -1 -81 6 -150 15 -69 9 -177 20 -240 25 -135 11 -199 26 -222
54 -18 22 -52 117 -62 176 -4 19 -11 105 -16 190 -5 106 -14 169 -25 198 -17
42 -17 43 9 102 14 33 22 60 18 61 -4 0 11 8 34 17 22 9 62 36 89 60 l48 42
-11 88 c-19 144 -25 229 -18 257 8 30 8 30 118 -13 62 -23 68 -28 68 -54 0
-15 -4 -28 -10 -28 -5 0 -10 -4 -10 -10 0 -5 7 -10 15 -10 21 0 84 -42 119
-79 39 -41 26 -39 -31 4 -58 44 -104 48 -122 9 -9 -21 -9 -30 1 -42 11 -13 11
-14 -2 -7 -8 4 -23 15 -32 23 -34 29 -19 -9 17 -44 34 -33 37 -34 93 -28 36 4
64 14 75 25 23 24 40 24 33 1 -7 -20 -9 -20 102 -6 33 4 42 9 42 24 0 28 14
32 33 9 17 -19 37 -18 37 2 0 20 -71 119 -131 183 -34 37 -67 73 -73 80 -14
17 -75 32 -212 51 -116 17 -455 21 -554 7 -30 -4 -66 -5 -80 -1 -20 6 -16 7
20 9 l45 3 -35 7 c-32 7 -31 8 20 10 43 2 50 4 30 10 -15 5 9 7 60 5 55 -3 71
-1 45 3 l-40 7 33 7 c36 8 94 0 87 -12 -3 -5 26 -10 64 -12 38 -2 67 0 64 5
-2 4 3 7 11 7 8 0 17 -4 21 -9 6 -11 56 -18 165 -24 55 -3 68 -2 50 5 -14 5
-52 10 -85 10 -58 0 -93 10 -106 31 -7 10 -151 20 -310 21 -90 1 -100 -1 -170
-35 -41 -20 -92 -44 -114 -53 -100 -44 -189 -120 -201 -174 -7 -27 -34 -83
-45 -92 -3 -3 -11 -18 -17 -35 -6 -16 -11 -24 -11 -17 -1 7 6 29 15 50 8 20
31 109 49 197 19 88 48 216 64 285 16 69 32 147 36 174 5 35 9 45 16 35 6 -10
9 -4 9 21 0 19 9 73 20 120 11 47 20 110 20 140 0 56 13 86 62 142 24 27 60
34 161 30 42 -2 51 -24 17 -42 -11 -6 -18 -15 -15 -21 8 -11 82 -12 89 0 3 4
19 11 35 14 17 4 47 13 68 22 37 16 37 17 18 32 -19 14 -17 14 24 8 24 -4 41
-3 38 1 -3 5 6 10 20 11 14 0 30 6 36 12 8 8 -1 11 -35 10 -30 -2 -57 5 -79
17 -37 22 -50 58 -24 68 9 3 13 2 10 -4 -7 -12 32 -38 76 -51 29 -8 36 -6 51
11 20 25 100 60 137 60 34 0 44 9 30 27 -10 11 -5 12 27 8 22 -3 75 -9 119
-14 44 -5 93 -14 108 -20 52 -20 63 -14 91 44 30 64 31 71 12 90 -12 12 -10
23 15 73 46 96 80 378 48 398 -9 5 -10 -1 -5 -20 4 -15 2 -26 -4 -26 -5 0 -10
9 -10 20 0 11 -6 20 -13 20 -11 0 -27 -41 -53 -142 -7 -25 -44 -68 -58 -68 -9
0 -15 29 -19 100 -3 55 -13 115 -21 133 -7 17 -22 56 -32 85 -10 28 -21 52
-24 52 -4 0 -1 -30 7 -67 7 -38 13 -110 13 -161 0 -85 -3 -99 -34 -160 -18
-37 -37 -78 -41 -92 -6 -22 -54 -127 -62 -139 -2 -3 -8 0 -14 6 -8 8 -18 4
-35 -14 -13 -14 -24 -29 -24 -33 0 -4 -11 -10 -25 -12 -22 -5 -23 -3 -13 10
11 13 10 15 -3 10 -12 -5 -18 0 -22 18 -3 15 0 24 9 24 18 0 27 36 15 59 -15
28 -15 28 28 35 41 6 57 29 63 91 2 23 -1 30 -17 32 -11 2 -37 6 -57 9 -33 5
-41 2 -68 -27 -16 -18 -30 -39 -30 -45 0 -6 -7 -17 -15 -24 -13 -10 -15 -9
-15 9 0 28 -16 27 -25 -1 -7 -22 -7 -22 -12 -3 -3 10 0 21 6 23 6 2 11 22 11
45 0 27 -3 37 -9 29 -7 -11 -10 -10 -15 3 -3 9 -4 20 -1 25 6 10 -13 164 -27
210 -10 34 -19 56 -67 164 -28 62 -111 145 -176 175 -60 28 -162 43 -169 25
-3 -7 11 -14 36 -18 62 -10 142 -52 181 -95 44 -48 101 -151 127 -226 24 -70
25 -99 2 -35 -9 25 -32 73 -51 108 -94 173 -271 247 -418 175 -56 -28 -133
-96 -133 -118 0 -7 -7 -19 -16 -26 -20 -16 37 96 64 127 30 35 113 94 132 94
10 0 28 9 41 20 25 20 21 26 -9 12 -89 -43 -132 -68 -132 -75 0 -5 -9 -7 -19
-4 -13 3 -18 0 -15 -8 3 -7 -1 -15 -8 -17 -7 -3 -33 -47 -58 -97 -25 -50 -49
-91 -53 -91 -4 0 -3 8 2 18 6 11 6 24 0 33 -7 11 -9 11 -9 -3 0 -10 -5 -18
-11 -18 -7 0 -9 10 -5 25 4 14 2 25 -4 25 -5 0 -10 -9 -10 -19 0 -27 -28 -53
-54 -50 -27 3 -60 -12 -64 -29 -4 -20 -33 -62 -43 -62 -5 0 -9 -4 -9 -10 0 -5
6 -10 14 -10 8 0 16 -10 18 -23 3 -21 6 -22 84 -18 45 1 84 -1 87 -5 3 -5 6
-36 8 -68 3 -50 1 -59 -13 -62 -10 -1 -18 1 -18 5 0 3 -26 8 -57 9 -92 4 -125
10 -172 27 -64 23 -79 33 -86 54 -4 14 -17 20 -52 23 -40 3 -51 -1 -76 -23
-60 -55 -169 -62 -187 -13 -11 27 -7 27 -135 -7 -38 -11 -84 -19 -102 -19
l-33 0 0 -1730 0 -1730 753 1 752 1 -160 33 c-88 18 -191 40 -230 49 -38 9
-142 30 -230 46 -88 17 -227 43 -310 59 -82 16 -213 39 -290 51 -137 22 -225
49 -225 69 0 6 17 11 38 11 21 0 83 7 138 14 139 21 794 53 760 38 -37 -16 63
-33 209 -36 219 -4 970 -54 1140 -75 39 -5 126 -16 195 -25 126 -16 340 -28
815 -46 143 -5 307 -14 365 -20 57 -5 240 -10 405 -9 165 0 350 -5 410 -10 61
-6 191 -18 290 -26 99 -9 187 -18 195 -20 18 -6 216 -27 504 -55 115 -12 237
-26 270 -31 37 -7 293 -12 651 -14 527 -3 579 -2 490 10 -55 7 -120 20 -145
28 -25 8 -97 20 -160 27 -63 6 -149 15 -190 20 -41 5 -154 14 -250 20 -96 6
-213 15 -259 20 -47 4 -91 6 -98 3 -22 -8 -14 21 10 38 39 28 88 39 173 39 47
0 86 5 89 10 4 7 24 8 50 4 24 -3 49 -2 57 2 7 4 31 9 53 11 77 5 161 12 265
23 58 6 133 13 168 17 133 13 29 23 -236 23 -298 0 -294 -1 -275 57 5 15 22
35 39 43 16 8 40 23 53 32 16 11 34 15 57 11 27 -5 40 -1 59 17 14 13 25 29
25 36 0 7 12 22 26 33 21 17 25 26 19 50 -4 17 -3 35 0 42 4 6 8 31 10 55 3
45 26 84 51 84 7 0 22 -13 34 -30 24 -34 47 -39 57 -12 4 9 17 27 30 40 25 23
23 45 -2 36 -8 -3 -27 3 -42 13 -15 10 -40 25 -54 32 -14 7 -33 26 -43 42 -9
16 -20 28 -24 28 -19 -3 -25 2 -12 11 10 6 11 10 3 10 -7 0 -13 7 -13 15 0 8
-9 15 -20 15 -37 0 -21 29 23 41 58 17 178 18 195 2 7 -7 25 -13 38 -13 20 0
29 -9 46 -47 19 -43 19 -48 4 -77 -9 -17 -22 -40 -30 -51 -13 -19 -8 -27 84
-123 90 -94 102 -103 127 -98 23 5 31 1 48 -24 26 -40 129 -130 148 -130 8 0
27 -16 43 -35 57 -71 32 -24 -48 94 -90 131 -158 244 -158 261 0 8 19 10 58 6
31 -3 156 -8 277 -12 175 -5 231 -11 274 -25 30 -11 56 -19 59 -19 2 0 -9 15
-25 33 -48 55 -107 167 -94 180 22 22 8 95 -24 120 -5 4 -29 5 -52 2 -25 -4
-52 -1 -65 6 -23 12 -78 68 -78 81 0 4 -6 13 -12 20 -7 7 -22 29 -32 48 -36
65 -124 181 -164 213 -21 18 -52 48 -68 68 -16 20 -47 50 -69 67 -22 17 -50
40 -63 52 -12 11 -52 44 -90 72 -77 58 -262 245 -262 264 0 15 -33 35 -52 32
-22 -5 -22 58 0 74 20 14 52 69 52 90 0 30 22 88 31 83 14 -10 11 12 -10 53
-10 21 -19 63 -20 97 -2 64 -17 96 -27 57 -7 -26 -24 -29 -25 -4 -1 28 -21
-28 -23 -63 -1 -20 -7 -31 -18 -33 -23 -4 -24 25 -2 56 8 12 13 22 10 22 -3 0
3 16 14 35 11 20 20 42 20 50 0 8 4 15 8 15 4 0 13 15 20 33 6 18 25 40 41 50
17 10 40 32 53 50 12 18 25 34 28 37 3 3 17 21 30 40 14 19 55 68 93 109 58
62 68 78 65 104 -3 27 1 32 27 40 38 11 63 56 40 73 -21 15 -19 37 5 59 19 17
20 17 30 -9 5 -15 10 -33 10 -41 0 -7 9 -17 20 -20 11 -3 20 -13 20 -20 0 -8
9 -19 19 -25 25 -13 170 -20 177 -9 18 30 116 -13 170 -73 16 -18 47 -46 69
-63 22 -16 119 -107 215 -204 184 -183 309 -291 339 -291 10 0 46 -19 81 -43
158 -107 150 -99 192 -162 40 -60 120 -140 159 -160 19 -9 50 -32 69 -50 30
-28 45 -34 101 -39 145 -14 339 -107 513 -245 23 -18 50 -31 67 -31 33 0 69
-31 69 -58 0 -38 49 -202 68 -229 11 -15 35 -41 52 -58 18 -16 68 -74 112
-127 44 -54 83 -98 85 -98 3 0 3 13 0 30 -4 16 -2 32 3 35 6 3 10 14 10 24 0
60 187 110 486 130 109 8 141 13 150 26 8 11 13 71 13 183 1 92 9 280 18 417
22 328 21 426 -1 459 -20 32 -41 33 -51 3 -3 -12 -11 -128 -16 -257 -13 -297
-19 -354 -40 -358 -9 -2 -23 4 -32 12 -12 13 -15 55 -16 251 -1 151 2 242 9
255 8 15 8 21 -2 25 -7 3 -121 9 -252 14 -267 9 -268 10 -261 80 2 20 4 42 4
50 1 12 40 13 251 8 l249 -5 37 29 c40 32 56 33 60 5 4 -25 24 -46 45 -46 11
0 19 -5 19 -12 0 -7 15 2 33 18 104 97 139 119 199 124 32 3 58 8 58 13 0 12
44 52 60 53 8 1 27 2 43 3 22 1 29 7 34 32 4 21 19 40 44 58 21 14 38 29 39
32 0 3 -11 11 -23 16 -34 16 -117 116 -117 141 0 44 21 70 62 77 45 8 59 0
139 -73 51 -47 53 -52 40 -73 -13 -21 -10 -26 43 -76 31 -29 58 -53 61 -53 9
0 -14 38 -51 87 -35 46 -36 63 -4 63 21 0 54 -42 63 -80 4 -14 28 -66 55 -116
27 -50 53 -101 57 -115 l8 -24 -23 20 c-13 11 -32 40 -43 65 -31 71 -36 74
-64 43 -24 -25 -24 -27 -7 -40 17 -12 17 -13 -4 -13 -12 0 -22 4 -22 9 0 4
-17 11 -37 14 -27 5 -46 1 -71 -14 l-34 -20 -43 26 c-50 29 -55 30 -55 11 0
-8 -7 -17 -16 -20 -19 -7 -16 -82 4 -78 10 2 10 -2 2 -19 -8 -14 -9 -34 -3
-63 5 -22 8 -105 8 -183 -2 -152 3 -175 33 -157 9 6 33 15 52 18 67 14 70 16
70 47 0 29 0 29 -55 28 -30 -1 -58 0 -61 4 -3 3 -3 30 1 61 8 64 21 70 67 31
16 -14 37 -25 46 -25 22 0 67 -57 103 -129 16 -31 36 -65 46 -76 29 -31 77
-55 101 -48 12 3 28 1 35 -5 27 -23 87 -2 87 30 0 7 9 40 19 73 14 45 17 78
14 132 -4 53 -1 83 11 113 11 27 14 54 10 83 -6 42 -51 135 -83 171 -9 10 -25
35 -36 56 -65 124 -90 168 -111 193 -28 33 -31 65 -7 74 12 5 28 -7 57 -40 35
-39 44 -45 60 -36 14 9 24 7 47 -10 18 -14 30 -17 35 -10 4 6 20 8 39 5 31 -6
34 -4 40 24 5 25 11 30 35 30 16 0 41 -5 55 -12 l26 -12 -1 -215 c-1 -119 1
-225 4 -236 28 -102 75 -199 102 -209 8 -3 14 -12 14 -21 0 -8 4 -15 10 -15
14 0 6 136 -13 205 -8 33 -21 132 -27 220 -6 88 -13 183 -16 210 -7 70 5 81
94 88 l72 6 25 -38 c53 -79 104 -272 118 -446 2 -32 6 -33 75 -19 27 5 32 3
32 -12 0 -11 -8 -28 -18 -39 -9 -11 -16 -18 -14 -16 1 3 -12 11 -30 18 -25 11
-33 11 -40 1 -14 -22 -9 -70 9 -83 15 -11 16 -17 3 -56 -17 -52 -25 -674 -10
-714 12 -31 44 -39 112 -28 51 8 53 9 51 39 -1 17 -13 66 -28 108 -34 99 -28
185 23 309 14 35 18 37 46 31 17 -3 33 -10 34 -15 2 -5 7 -7 12 -4 9 6 21 -38
22 -85 1 -38 10 -44 61 -42 28 2 46 9 63 27 13 15 24 30 24 34 0 5 7 14 15 21
8 7 15 21 15 31 0 11 5 19 10 19 6 0 10 7 10 15 0 18 61 45 100 45 19 0 29 6
33 20 7 28 51 26 71 -2 18 -25 22 -103 6 -113 -5 -3 -10 -22 -10 -42 0 -30 2
-34 15 -23 20 16 19 0 -1 -28 -8 -12 -14 -28 -12 -34 3 -7 17 14 33 45 15 32
36 63 45 70 10 7 20 24 22 37 2 20 9 25 32 25 41 0 58 -30 30 -53 -41 -33 -37
-102 6 -102 17 0 18 -6 13 -56 -6 -55 -6 -56 15 -45 12 6 27 10 34 9 8 -2 13
9 13 32 0 29 -4 36 -22 38 -42 6 -23 21 35 27 81 9 79 8 87 67 4 29 9 1170 11
2536 l4 2482 -2897 -1 c-2487 0 -2906 -2 -2951 -15z m3468 -300 c72 -65 66
-158 -15 -206 -25 -16 -51 -28 -58 -28 -7 0 -17 -4 -23 -10 -5 -5 -43 -14 -84
-20 -87 -13 -240 -58 -240 -71 0 -5 -11 -9 -25 -9 -22 0 -62 -9 -260 -56 -155
-38 -248 -64 -291 -83 -25 -12 -55 -21 -65 -21 -30 0 -143 -42 -154 -57 -6 -7
-37 -15 -75 -18 -36 -2 -74 -7 -85 -9 -11 -3 -40 -11 -65 -17 -25 -6 -70 -17
-100 -25 -30 -8 -73 -19 -95 -25 -22 -5 -89 -25 -150 -44 -60 -20 -162 -47
-225 -61 -63 -14 -135 -32 -160 -40 -66 -22 -188 -44 -241 -44 -65 0 -100 15
-127 55 -34 48 -32 97 5 143 38 48 59 57 168 78 50 9 137 30 195 46 58 16 164
45 235 63 72 18 186 49 255 69 69 19 188 51 265 71 77 20 174 45 215 57 140
38 205 56 345 93 77 20 223 59 325 87 317 87 434 116 462 117 19 1 41 -11 68
-35z m-683 -1435 c15 -13 0 -39 -23 -39 -25 0 -26 -22 -2 -48 13 -15 31 -43
40 -62 13 -29 186 -246 251 -315 34 -37 50 -75 36 -91 -6 -8 -17 -14 -24 -14
-13 0 -78 67 -165 170 -30 36 -57 67 -60 70 -16 15 -79 99 -89 119 -12 21 -18
23 -58 17 -43 -6 -45 -5 -56 24 -23 61 -84 42 -122 -38 -43 -89 -49 -22 -6 76
15 37 31 74 33 82 3 8 30 28 59 43 47 25 61 28 113 23 32 -3 65 -11 73 -17z
m108 -95 c19 -20 16 -35 -11 -44 -40 -15 -85 26 -57 53 12 13 51 7 68 -9z
m533 -17 c21 -22 22 -33 21 -184 0 -185 -1 -187 -87 -199 -46 -6 -56 -4 -72
14 -12 13 -20 34 -19 54 1 44 22 165 30 173 4 3 5 24 2 46 -4 25 -2 39 6 39 6
0 11 8 11 18 1 33 29 56 76 61 6 0 20 -9 32 -22z m-438 -57 c0 -5 -4 -10 -9
-10 -6 0 -13 5 -16 10 -3 6 1 10 9 10 9 0 16 -4 16 -10z m-743 -312 c-3 -7 -5
-2 -5 12 0 14 2 19 5 13 2 -7 2 -19 0 -25z m113 -22 c0 -8 11 -23 25 -34 32
-25 31 -31 -8 -68 -48 -46 -54 -47 -92 -24 -40 25 -45 51 -15 82 22 24 26 38
10 38 -5 0 -10 5 -10 10 0 6 20 10 45 10 32 0 45 -4 45 -14z m932 -250 c71
-87 128 -162 128 -167 0 -5 -4 -9 -10 -9 -5 0 -10 -9 -10 -20 0 -11 -2 -20 -6
-20 -18 0 -294 333 -294 354 0 20 12 27 39 24 20 -2 57 -42 153 -162z m-220
-224 c39 -49 40 -66 0 -27 -51 51 -102 115 -102 128 0 10 62 -52 102 -101z
m554 54 c17 -13 17 -15 2 -21 -24 -9 -71 -2 -75 12 -2 6 6 13 19 16 13 2 26 5
29 6 3 0 14 -5 25 -13z m-146 -98 c13 -21 16 -36 10 -42 -13 -13 -37 11 -45
47 -10 38 10 35 35 -5z m337 -14 c28 -13 53 -29 55 -36 2 -6 -1 -33 -8 -59
-11 -42 -10 -55 8 -111 12 -35 25 -68 30 -74 12 -16 143 -46 200 -46 57 0 49
7 204 -173 67 -77 143 -162 168 -190 36 -39 46 -56 42 -75 -6 -34 11 -62 33
-55 12 4 24 -6 41 -36 14 -22 34 -55 46 -73 48 -75 51 -140 4 -88 -32 36 -24
34 -360 58 -135 9 -252 20 -261 25 -9 5 -40 4 -70 0 -37 -7 -61 -6 -75 2 -12
7 -49 27 -83 45 -49 26 -65 41 -81 76 -12 23 -48 72 -80 107 -60 64 -138 199
-126 218 9 13 -5 92 -14 86 -4 -3 -11 -17 -15 -32 -3 -15 -19 -41 -35 -59 -15
-18 -33 -48 -39 -67 -14 -42 -60 -64 -90 -45 -10 6 -26 8 -35 5 -27 -11 -18
-51 20 -93 20 -21 48 -56 62 -77 14 -20 39 -44 56 -52 17 -8 39 -27 50 -42 10
-16 38 -44 62 -63 52 -42 57 -73 15 -94 -31 -16 -41 -34 -41 -72 0 -13 -6 -24
-12 -24 -7 0 -27 -16 -43 -36 l-31 -37 -89 86 c-150 142 -151 142 -191 128
-48 -17 -111 -6 -130 24 -12 18 -13 40 -8 106 l7 84 94 91 c91 90 93 93 94
141 3 113 9 186 14 192 12 11 35 -33 35 -66 0 -33 6 -37 43 -33 10 1 27 -6 37
-15 29 -26 68 -12 86 30 16 40 42 56 72 48 18 -4 22 -1 22 16 0 11 6 21 13 21
8 0 7 4 -3 10 -8 5 -32 10 -52 10 -36 0 -38 2 -38 32 0 19 -9 41 -22 56 l-23
23 21 37 c12 20 56 65 98 100 60 48 82 61 102 58 17 -3 27 0 31 12 4 9 11 20
17 24 19 13 119 -3 173 -28z m-659 -70 c-4 -3 -12 5 -18 18 -12 22 -12 22 6 6
10 -10 15 -20 12 -24z m52 -60 c0 -8 -4 -12 -10 -9 -5 3 -10 10 -10 16 0 5 5
9 10 9 6 0 10 -7 10 -16z m-8780 -34 c45 -25 37 -25 -30 0 -36 13 -47 19 -30
19 14 0 41 -8 60 -19z m210 -212 c17 -34 29 -63 27 -64 -4 -4 -75 103 -97 146
-7 14 -20 34 -29 46 -9 11 3 0 27 -24 23 -24 56 -71 72 -104z m-252 -66 c38
-29 39 -38 8 -77 l-24 -29 -28 33 c-45 52 -47 60 -29 87 17 26 20 26 73 -14z
m310 -97 c0 -16 -2 -15 -8 5 -11 34 -11 60 0 35 5 -11 8 -29 8 -40z m-414 19
c25 -24 19 -40 -6 -17 -13 11 -30 23 -38 26 -10 4 -8 6 7 6 12 1 29 -6 37 -15z
m423 -76 c-3 -8 -6 -5 -6 6 -1 11 2 17 5 13 3 -3 4 -12 1 -19z m8732 -52 c9
-11 9 -19 1 -33 -10 -16 -7 -24 19 -52 58 -62 31 -72 -31 -11 -23 22 -45 40
-50 40 -4 0 -8 7 -8 15 0 8 4 15 9 15 5 0 13 9 16 20 7 23 28 26 44 6z m-9119
-21 c0 -12 -46 -45 -63 -45 -16 0 -13 5 14 24 33 24 49 31 49 21z m94 -61 c22
-9 20 -27 -6 -52 -27 -25 -78 -40 -78 -23 0 7 -6 11 -12 9 -18 -3 -58 12 -58
21 0 13 86 42 104 35 9 -3 16 -1 16 5 0 12 11 14 34 5z m253 -55 c-24 -75 -57
-136 -99 -179 -22 -22 -43 -39 -46 -36 -3 3 1 12 8 21 8 10 9 15 1 15 -6 0
-16 -9 -23 -20 -7 -11 -21 -20 -32 -20 -14 0 -8 8 21 29 43 31 77 72 109 131
10 19 27 43 36 54 10 11 20 28 24 39 3 10 8 17 10 14 2 -2 -2 -24 -9 -48z
m8893 -69 c0 -5 -7 -7 -15 -4 -8 4 -15 8 -15 10 0 2 7 4 15 4 8 0 15 -4 15
-10z m-9368 -83 c40 -18 55 -21 51 -11 -6 15 5 18 32 8 12 -5 13 -9 5 -14 -7
-4 6 -10 28 -14 22 -3 46 -13 53 -23 13 -15 9 -16 -44 -10 -79 8 -247 103
-247 140 0 6 15 -3 33 -20 17 -17 58 -43 89 -56z m968 7 c-14 -42 -24 -55 -59
-73 -26 -15 -28 -14 -33 17 -2 16 10 35 42 66 51 50 68 46 50 -10z m-335 26
c-3 -5 -11 -10 -16 -10 -6 0 -7 5 -4 10 3 6 11 10 16 10 6 0 7 -4 4 -10z
m-118 -52 c-3 -8 -6 -5 -6 6 -1 11 2 17 5 13 3 -3 4 -12 1 -19z m8952 -7 c11
-20 5 -31 -16 -31 -7 0 -13 11 -13 25 0 29 15 33 29 6z m-8938 -28 c-12 -20
-14 -14 -5 12 4 9 9 14 11 11 3 -2 0 -13 -6 -23z m-501 -35 c0 4 5 -1 10 -10
8 -13 21 -16 55 -12 26 2 45 -1 45 -6 0 -6 7 -10 16 -10 8 0 12 5 9 10 -3 6 3
10 14 10 29 0 35 -17 8 -24 -68 -18 -159 -2 -201 36 -19 17 -18 17 12 8 18 -5
32 -6 32 -2z m495 -8 c3 -5 1 -10 -4 -10 -6 0 -11 5 -11 10 0 6 2 10 4 10 3 0
8 -4 11 -10z m50 -90 c-3 -5 -11 -10 -16 -10 -6 0 -7 5 -4 10 3 6 11 10 16 10
6 0 7 -4 4 -10z m-18 -46 c-3 -3 -12 -4 -19 -1 -8 3 -5 6 6 6 11 1 17 -2 13
-5z m-109 -55 c-2 -12 -13 -26 -26 -30 -22 -8 -22 -8 -7 21 18 35 38 40 33 9z
m8710 -44 c2 -11 13 -30 24 -42 17 -18 18 -25 9 -37 -10 -12 -19 -12 -64 4
-59 21 -70 43 -36 78 25 28 62 26 67 -3z m669 9 c7 -20 -11 -38 -31 -31 -9 4
-12 13 -9 26 6 25 31 28 40 5z m1581 -124 c26 -17 28 -57 8 -134 -10 -40 -20
-53 -47 -68 -18 -10 -47 -18 -64 -18 -48 0 -77 -11 -71 -26 5 -14 -30 -28 -86
-33 -12 -1 -9 -26 7 -57 19 -38 19 -47 -4 -61 -15 -9 -24 -6 -55 20 -34 30
-36 36 -36 88 0 53 -2 57 -29 69 -52 21 -63 42 -65 122 l-1 73 43 22 c39 20
57 21 210 20 129 -2 172 -5 190 -17z m-2138 -10 c0 -11 -7 -20 -15 -20 -15 0
-21 21 -8 33 12 13 23 7 23 -13z m1570 -108 c0 -5 16 -14 35 -22 34 -13 35
-15 35 -71 0 -32 -5 -70 -10 -85 -6 -15 -11 -42 -12 -61 -1 -21 -6 -33 -15
-33 -9 0 -12 7 -9 18 3 9 2 22 -2 28 -14 21 -101 74 -122 74 -26 0 -45 39 -36
75 7 27 58 65 89 65 9 0 17 5 17 10 0 6 7 10 15 10 8 0 15 -4 15 -8z m445
-142 c3 -5 1 -10 -4 -10 -6 0 -11 5 -11 10 0 6 2 10 4 10 3 0 8 -4 11 -10z m4
-76 c12 -28 7 -44 -13 -44 -26 0 -38 26 -24 49 17 27 22 26 37 -5z m71 -44 c0
-5 -5 -10 -11 -10 -5 0 -7 5 -4 10 3 6 8 10 11 10 2 0 4 -4 4 -10z m-483 -52
c-3 -7 -5 -2 -5 12 0 14 2 19 5 13 2 -7 2 -19 0 -25z m218 -6 c1 -9 2 -30 3
-45 1 -16 6 -26 11 -23 5 4 11 -20 13 -51 4 -55 2 -60 -28 -88 -46 -43 -59
-72 -42 -93 12 -15 11 -16 -4 -4 -9 8 -21 11 -26 8 -5 -3 -5 17 0 47 5 29 11
71 13 95 1 24 6 46 9 49 3 3 3 31 -1 61 -5 48 -4 55 10 49 9 -3 18 1 21 10 7
18 20 10 21 -15z m-5787 -46 c-16 -19 -31 10 -16 33 l13 21 6 -22 c3 -13 2
-27 -3 -32z m3562 -382 c6 -14 7 -43 4 -65 -6 -33 -10 -40 -28 -37 -43 6 -44
128 -1 128 9 0 20 -12 25 -26z m-8516 -150 c-6 -96 -5 -108 13 -133 26 -35 63
-111 63 -129 0 -10 -7 -12 -25 -8 -20 5 -25 3 -25 -12 0 -26 37 -62 72 -69 19
-4 33 -14 39 -30 12 -32 12 -33 -6 -33 -9 0 -25 -9 -36 -19 -18 -16 -20 -26
-14 -62 10 -59 8 -120 -4 -132 -6 -6 -11 -19 -11 -28 0 -27 -26 -41 -79 -43
l-50 -2 19 24 c24 30 60 125 60 157 0 35 -30 95 -67 133 -36 37 -40 48 -20 55
9 3 7 10 -6 23 -18 19 -19 18 -15 -5 5 -40 -20 -36 -28 3 -7 41 -26 49 -90 44
-31 -2 -40 -8 -45 -28 -4 -14 -7 -20 -8 -13 -1 12 -38 6 -47 -8 -3 -5 0 -18 6
-29 10 -18 7 -21 -19 -26 -34 -7 -45 -29 -36 -67 8 -29 -2 -70 -15 -62 -4 3
-11 -11 -14 -30 -4 -20 -11 -33 -17 -29 -5 3 -7 14 -4 25 4 11 2 19 -4 19 -6
0 -11 5 -11 11 0 5 4 8 9 4 6 -3 11 14 13 37 2 27 8 42 15 41 7 -2 10 3 7 11
-3 8 -1 17 5 21 6 3 11 15 11 26 0 11 4 18 9 15 5 -3 8 9 7 27 -2 17 -7 31
-13 30 -6 -1 -8 9 -5 22 2 14 9 25 14 25 5 0 7 -4 3 -9 -11 -18 15 -22 39 -6
14 9 27 16 30 16 25 -4 36 2 36 16 0 13 -3 14 -12 5 -20 -20 -31 -14 -25 14 3
18 1 24 -9 20 -11 -4 -14 6 -14 43 0 56 -1 55 111 66 l67 7 6 37 c8 45 20 66
36 56 8 -5 9 -23 5 -56 -7 -47 -6 -49 18 -49 27 0 30 6 42 105 15 125 28 112
19 -21z m237 62 c11 -12 12 -26 1 -26 -15 0 -35 47 -26 62 7 10 9 8 12 -7 2
-11 8 -24 13 -29z m-524 -48 c-3 -8 -6 -5 -6 6 -1 11 2 17 5 13 3 -3 4 -12 1
-19z m502 -24 c4 3 8 -1 8 -9 0 -20 -11 -19 -31 4 -13 15 -14 20 -4 23 7 3 14
-1 16 -9 2 -7 7 -11 11 -9z m-72 -6 c-3 -8 -6 -5 -6 6 -1 11 2 17 5 13 3 -3 4
-12 1 -19z m-531 -66 c-36 -32 -56 -35 -56 -6 0 8 9 14 20 14 10 0 24 9 30 20
9 16 8 19 -6 13 -12 -4 -15 -2 -12 8 2 7 15 16 29 19 40 10 38 -28 -5 -68z
m970 -8 c-7 -26 -26 -33 -26 -10 0 8 5 27 12 43 9 23 12 25 15 10 3 -10 2 -29
-1 -43z m66 29 c23 -21 23 -34 1 -26 -18 7 -33 22 -33 36 0 12 12 8 32 -10z
m-424 -10 c-21 -5 -23 -19 -5 -27 6 -3 1 -3 -13 0 -14 4 -27 8 -30 11 -8 7 24
23 45 22 17 -1 17 -2 3 -6z m-588 -67 c0 -37 -29 -70 -77 -86 -33 -12 -60 -54
-42 -66 12 -7 29 13 29 36 0 11 3 11 12 2 8 -8 9 -15 3 -20 -6 -4 -12 -25 -13
-46 -3 -32 -1 -38 12 -33 25 10 19 -10 -30 -100 -51 -93 -84 -196 -77 -235 3
-15 -1 -29 -8 -33 -19 -13 -5 121 20 178 12 27 21 64 21 83 0 22 6 37 15 40 8
4 12 10 9 15 -3 5 -10 6 -16 3 -7 -5 -8 -2 -3 6 12 19 16 92 5 85 -6 -3 -7 1
-4 10 4 8 1 21 -5 29 -18 22 -3 92 23 105 11 6 41 24 66 40 25 15 48 26 53 24
4 -2 7 -19 7 -37z m-100 20 c0 -3 -4 -8 -10 -11 -5 -3 -10 -1 -10 4 0 6 5 11
10 11 6 0 10 -2 10 -4z m-103 -88 c-2 -13 -4 -5 -4 17 -1 22 1 32 4 23 2 -10
2 -28 0 -40z m218 -8 c3 -5 1 -10 -4 -10 -6 0 -11 5 -11 10 0 6 2 10 4 10 3 0
8 -4 11 -10z m515 -44 c0 -2 3 -11 6 -20 5 -12 0 -16 -20 -16 -19 0 -26 5 -26
20 0 13 7 20 20 20 11 0 20 -2 20 -4z m-340 -20 c0 -17 -15 -36 -29 -36 -13 0
-13 2 -2 9 7 5 10 14 7 20 -4 6 0 11 8 11 9 0 16 -2 16 -4z m-210 -46 c0 -5
-4 -10 -10 -10 -5 0 -10 5 -10 10 0 6 5 10 10 10 6 0 10 -4 10 -10z m-183 -52
c-2 -13 -4 -5 -4 17 -1 22 1 32 4 23 2 -10 2 -28 0 -40z m5549 -5 c18 -16 34
-34 34 -40 0 -18 -35 -16 -50 2 -7 8 -21 15 -31 15 -14 0 -19 7 -19 25 0 33
22 32 66 -2z m-1492 -55 c-45 -87 -41 -81 -48 -70 -9 15 63 142 81 142 2 0
-13 -33 -33 -72z m-3908 -35 c-10 -10 -19 5 -10 18 6 11 8 11 12 0 2 -7 1 -15
-2 -18z m218 -8 c-4 -8 -14 -15 -23 -15 -14 1 -13 3 3 15 25 19 27 19 20 0z
m-48 -14 c-3 -5 -15 -11 -26 -14 -17 -4 -19 -3 -9 9 12 15 44 20 35 5z m62
-23 c20 -20 14 -57 -14 -83 -50 -46 -115 -41 -113 9 0 11 3 15 6 9 9 -24 24
-13 21 15 -5 45 68 82 100 50z m3472 -33 c0 -8 -4 -15 -9 -15 -13 0 -22 16
-14 24 11 11 23 6 23 -9z m-3767 -32 c-22 -8 -14 -21 10 -16 22 6 22 6 -3 -18
-13 -13 -26 -22 -29 -21 -2 2 -8 -2 -12 -10 -7 -10 -9 -9 -9 4 0 32 19 68 37
67 11 0 13 -3 6 -6z m3617 -68 c0 -8 -4 -15 -10 -15 -5 0 -10 7 -10 15 0 8 5
15 10 15 6 0 10 -7 10 -15z m-2980 -35 c0 -23 -8 -25 -32 -6 -25 18 -22 26 7
26 18 0 25 -5 25 -20z m2970 0 c0 -5 -7 -10 -15 -10 -8 0 -15 5 -15 10 0 6 7
10 15 10 8 0 15 -4 15 -10z m1784 -25 c3 -8 1 -15 -4 -15 -6 0 -10 7 -10 15 0
8 2 15 4 15 2 0 6 -7 10 -15z m-5299 -27 c16 -37 72 -68 123 -68 42 0 102 25
145 60 9 8 20 13 24 12 3 -2 9 2 14 10 6 10 11 9 23 -7 22 -29 20 -62 -5 -68
-12 -3 -18 -10 -14 -16 3 -6 1 -11 -5 -11 -7 0 -9 8 -5 19 9 30 -10 33 -31 6
-10 -14 -24 -25 -31 -25 -6 0 -13 -6 -15 -12 -4 -10 -10 -10 -29 -2 -13 6 -33
8 -44 4 -18 -7 -45 -6 -101 6 -12 2 -24 13 -27 25 -3 12 -10 18 -15 15 -10 -6
-32 35 -32 59 0 22 14 18 25 -7z m3826 -21 c-17 -17 -24 -1 -10 25 12 21 14
21 17 4 2 -10 -1 -23 -7 -29z m-3541 -77 c0 -5 -5 -10 -11 -10 -5 0 -7 5 -4
10 3 6 8 10 11 10 2 0 4 -4 4 -10z m-212 -36 c15 -8 36 -14 47 -14 11 0 29 -7
39 -15 19 -14 18 -15 -13 -21 -22 -5 -30 -11 -27 -20 4 -11 -1 -13 -22 -8 -36
9 -106 48 -93 52 6 2 4 13 -6 29 l-17 25 33 -7 c18 -4 44 -13 59 -21z m3402
-103 c0 -5 -7 -12 -16 -15 -14 -5 -15 -4 -4 9 14 17 20 19 20 6z m365 0 c7
-12 -12 -24 -25 -16 -11 7 -4 25 10 25 5 0 11 -4 15 -9z m-3869 -38 c-6 -6
-36 9 -36 18 0 5 9 4 20 -3 10 -7 18 -14 16 -15z m287 -88 c-3 -9 -8 -14 -10
-11 -3 3 -2 9 2 15 9 16 15 13 8 -4z m385 -24 c37 -5 61 -16 81 -35 31 -30
115 -60 201 -71 122 -16 66 -22 -265 -29 -191 -4 -381 -9 -421 -13 -41 -3 -74
-3 -74 1 0 11 71 146 77 146 3 0 3 -9 0 -20 -6 -24 1 -25 23 -5 20 18 58 20
120 7 25 -6 50 -6 55 -2 6 5 27 7 48 6 41 -4 61 10 25 17 -40 8 75 6 130 -2z
m617 -136 c39 -3 133 -13 210 -22 101 -11 173 -13 260 -8 66 4 172 8 235 9
107 1 115 0 115 -18 0 -18 -16 -26 -55 -27 -55 -1 -502 21 -509 25 -4 3 -93
10 -197 16 -207 12 -234 15 -234 31 0 7 19 8 53 5 28 -3 84 -8 122 -11z m2451
-75 c82 -47 179 -55 243 -20 21 11 29 10 58 -5 37 -20 41 -30 16 -44 -16 -8
-14 -10 9 -16 34 -9 54 -30 37 -40 -29 -19 -186 -24 -377 -14 -221 12 -330 30
-154 26 86 -2 101 -1 86 10 -10 7 -31 13 -48 13 -16 0 -43 4 -60 10 -17 5 -66
12 -109 16 -64 5 -76 8 -67 19 17 21 66 34 163 44 49 5 94 14 100 20 14 14 61
6 103 -19z m1457 -117 c-7 -2 -19 -2 -25 0 -7 3 -2 5 12 5 14 0 19 -2 13 -5z"/>
<path d="M1265 1500 c-8 -26 5 -43 28 -34 22 8 21 17 -2 38 -18 17 -20 16 -26
-4z"/>
<path d="M1467 1473 c-4 -3 -7 -11 -7 -17 0 -6 5 -5 12 2 6 6 9 14 7 17 -3 3
-9 2 -12 -2z"/>
<path d="M1184 1414 c-18 -14 -18 -15 4 -4 12 6 22 13 22 15 0 8 -5 6 -26 -11z"/>
<path d="M1223 1115 c-9 -25 4 -29 17 -6 7 15 7 21 0 21 -6 0 -13 -7 -17 -15z"/>
<path d="M1810 490 c0 -5 9 -10 21 -10 11 0 17 5 14 10 -3 6 -13 10 -21 10 -8
0 -14 -4 -14 -10z"/>
<path d="M6690 6830 c-9 -6 -10 -10 -3 -10 6 0 15 5 18 10 8 12 4 12 -15 0z"/>
<path d="M5929 6714 c18 -8 47 -17 65 -19 24 -4 21 -1 -13 10 -67 22 -90 26
-52 9z"/>
<path d="M6054 6675 c26 -19 42 -19 26 0 -7 8 -20 15 -29 15 -13 -1 -13 -3 3
-15z"/>
<path d="M6360 6602 c0 -4 9 -13 20 -20 11 -7 20 -9 20 -4 0 4 -9 13 -20 20
-11 7 -20 9 -20 4z"/>
<path d="M6480 6285 c0 -12 93 -135 103 -135 4 0 -11 27 -34 60 -41 59 -69 89
-69 75z"/>
<path d="M6571 6130 c-11 -6 -9 -10 8 -19 17 -10 21 -9 21 3 0 20 -13 27 -29
16z"/>
<path d="M5560 6058 c0 -3 7 -23 16 -44 9 -22 21 -50 27 -64 5 -14 12 -34 14
-45 2 -11 12 -47 23 -80 50 -156 51 -289 5 -440 -48 -154 -44 -194 26 -263 37
-36 229 -135 229 -118 0 7 20 32 45 56 59 58 91 105 114 167 10 28 37 74 59
104 22 30 42 68 44 84 2 18 8 29 16 27 8 -1 11 2 8 7 -3 5 7 21 24 34 16 14
30 33 30 41 0 9 9 25 20 36 11 11 20 29 20 40 0 11 9 34 20 52 11 18 20 27 20
19 0 -25 13 -2 17 29 2 20 -4 37 -17 50 -11 11 -20 26 -20 33 0 18 -46 57 -67
57 -9 0 -30 16 -47 36 -29 33 -89 63 -127 64 -9 0 -26 9 -38 19 -12 10 -43 22
-69 26 -26 3 -63 9 -82 11 -19 3 -50 12 -68 20 -19 9 -42 14 -52 11 -10 -3
-46 2 -81 10 -34 8 -67 12 -74 9 -7 -2 -18 1 -24 7 -6 6 -11 8 -11 5z"/>
<path d="M4836 5275 c-3 -8 -1 -15 3 -15 5 0 11 7 15 15 3 8 1 15 -3 15 -5 0
-11 -7 -15 -15z"/>
<path d="M4317 5242 c6 -15 5 -15 -10 -3 -18 14 -22 5 -8 -18 5 -7 14 -11 20
-7 6 4 9 2 6 -6 -7 -17 87 -73 148 -89 31 -7 75 -9 125 -5 42 4 90 7 106 7 16
0 38 5 50 11 21 12 21 12 -3 18 -24 6 -24 6 13 28 21 13 36 26 32 29 -3 3 2
12 12 19 9 7 14 16 10 19 -4 4 -29 -9 -56 -28 -35 -27 -55 -34 -72 -30 -15 4
-21 2 -17 -4 4 -6 -3 -13 -16 -16 -118 -28 -201 -14 -286 48 -37 27 -58 38
-54 27z"/>
<path d="M4264 5165 c4 -14 2 -25 -3 -25 -5 0 -12 8 -14 18 -3 12 -5 13 -6 2
0 -8 4 -22 9 -30 9 -13 11 -13 20 0 9 13 11 13 20 0 15 -23 12 -2 -5 30 -19
37 -29 39 -21 5z"/>
<path d="M4538 5173 c7 -3 16 -2 19 1 4 3 -2 6 -13 5 -11 0 -14 -3 -6 -6z"/>
<path d="M3988 5083 c7 -3 16 -2 19 1 4 3 -2 6 -13 5 -11 0 -14 -3 -6 -6z"/>
<path d="M4048 5073 c6 -2 18 -2 25 0 6 3 1 5 -13 5 -14 0 -19 -2 -12 -5z"/>
<path d="M4129 5069 c-9 -6 8 -9 45 -9 33 0 57 2 55 4 -10 9 -88 13 -100 5z"/>
<path d="M4248 5063 c6 -2 18 -2 25 0 6 3 1 5 -13 5 -14 0 -19 -2 -12 -5z"/>
<path d="M3746 5000 c-28 -65 -119 -143 -155 -133 -10 3 -21 -1 -23 -9 -6 -15
33 -151 56 -196 9 -17 16 -38 16 -47 0 -9 9 -36 20 -60 17 -37 26 -45 58 -52
20 -4 42 -5 47 -3 6 2 35 8 65 15 l55 11 3 54 c2 36 -1 56 -10 62 -10 6 -7 14
15 33 15 13 27 29 27 35 0 5 5 10 11 10 6 0 20 12 31 26 11 14 27 23 34 20 9
-3 14 2 14 13 0 10 6 19 13 18 6 0 26 1 42 2 29 2 28 2 -17 22 -26 12 -48 29
-51 40 -3 10 -15 23 -27 27 -11 4 -27 19 -33 32 -9 18 -25 28 -57 35 -28 6
-58 23 -81 45 l-37 35 -16 -35z"/>
<path d="M4396 5005 c-3 -9 -6 -25 -6 -35 0 -10 -15 -27 -35 -39 -23 -13 -42
-36 -54 -64 -11 -25 -33 -54 -50 -66 -17 -12 -46 -53 -67 -94 -39 -77 -112
-160 -178 -203 -23 -15 -60 -40 -83 -55 -34 -23 -47 -26 -71 -20 -16 5 -56 12
-90 16 -57 6 -62 5 -62 -12 0 -24 19 -43 36 -36 8 3 14 1 14 -4 0 -5 25 -9 55
-8 58 1 65 -4 38 -26 -13 -11 -17 -11 -20 -1 -6 17 -33 15 -33 -3 0 -10 -10
-15 -30 -15 -23 0 -31 -5 -36 -24 -5 -21 8 -62 25 -76 3 -3 23 -32 43 -65 37
-62 68 -182 68 -266 0 -21 5 -51 11 -66 7 -15 18 -44 26 -63 8 -19 21 -47 29
-62 7 -14 14 -33 14 -43 0 -28 29 -75 44 -69 7 3 16 -2 19 -10 4 -10 1 -13 -9
-9 -19 7 -18 -11 2 -27 18 -16 38 -60 69 -155 32 -98 77 -205 109 -259 65
-111 193 -385 267 -571 64 -160 101 -217 156 -240 18 -8 50 -27 70 -44 46 -37
193 -105 248 -116 47 -9 69 -11 240 -20 147 -8 150 -7 160 61 5 31 3 43 -12
56 -23 20 -39 23 -83 14 -19 -4 -58 -3 -85 2 -38 6 -58 5 -82 -7 -45 -20 -83
-3 -83 38 0 32 40 67 66 57 26 -10 16 -34 -12 -28 -26 5 -44 -9 -44 -35 0 -19
56 -16 75 4 10 9 15 26 12 39 -4 23 5 30 63 54 14 5 35 17 46 25 21 15 23 14
54 -37 18 -29 55 -77 84 -107 132 -142 167 -182 236 -266 40 -49 110 -129 156
-178 l83 -87 128 -10 c70 -6 136 -12 146 -14 27 -6 21 10 -28 70 -45 55 -54
74 -35 74 7 0 7 7 0 20 -8 14 -17 19 -30 15 -10 -3 -21 -1 -25 4 -4 7 0 8 11
4 14 -5 15 -3 5 15 -6 11 -11 33 -11 48 0 22 -16 44 -67 94 -38 36 -81 86 -98
110 -16 25 -47 63 -68 84 -21 22 -45 52 -53 67 -7 15 -22 30 -31 33 -10 3 -4
4 14 2 18 -1 30 1 27 6 -3 4 2 72 11 150 14 116 16 198 11 433 -8 396 -11 425
-58 572 -22 69 -13 65 -155 83 -87 11 -132 25 -278 84 -121 49 -216 107 -250
152 -16 21 -65 74 -110 118 -44 45 -91 94 -103 109 -34 42 -92 156 -92 180 0
17 -2 19 -10 7 -6 -10 -9 -6 -8 15 1 37 -11 77 -21 71 -4 -3 -22 27 -41 66
-27 59 -35 93 -47 202 -8 72 -14 184 -13 249 l1 117 -28 11 c-55 21 -80 22
-87 4z m44 -95 c0 -10 -4 -22 -10 -25 -6 -4 -10 7 -10 25 0 18 4 29 10 25 6
-3 10 -15 10 -25z m-198 -308 c-19 -58 -32 -67 -32 -23 0 25 37 88 46 78 2 -1
-4 -26 -14 -55z m192 -14 c7 -12 6 -21 -3 -32 -19 -22 -30 -20 -37 8 -11 44
17 60 40 24z m-174 -47 c0 -6 -4 -13 -10 -16 -5 -3 -10 1 -10 9 0 9 5 16 10
16 6 0 10 -4 10 -9z m114 -17 c5 -14 4 -15 -9 -4 -17 14 -19 20 -6 20 5 0 12
-7 15 -16z m-204 -19 c0 -9 7 -18 15 -21 11 -5 12 -11 5 -24 -14 -26 -12 -40
5 -40 8 0 15 -4 15 -10 0 -5 7 -10 16 -10 8 0 12 -5 9 -11 -4 -5 -17 -9 -28
-8 -30 3 -57 -10 -57 -27 0 -8 -9 -13 -22 -11 -18 2 -24 -4 -26 -26 -3 -24 -6
-27 -25 -20 -12 4 -40 8 -62 7 -22 0 -46 6 -53 13 -11 11 -10 13 7 13 13 0 21
7 21 18 0 14 2 14 9 3 7 -11 22 -2 68 45 32 33 65 74 72 92 14 34 31 43 31 17z
m250 -9 c0 -2 -7 -7 -16 -10 -8 -3 -12 -2 -9 4 6 10 25 14 25 6z m50 -100 c0
-3 -4 -8 -10 -11 -5 -3 -10 -1 -10 4 0 6 5 11 10 11 6 0 10 -2 10 -4z m70 -61
c0 -8 -4 -15 -10 -15 -5 0 -10 7 -10 15 0 8 5 15 10 15 6 0 10 -7 10 -15z
m-593 -82 c3 -6 -10 -19 -26 -28 -19 -9 -31 -23 -31 -36 0 -24 -21 -33 -55
-25 -33 8 -32 31 3 53 15 9 35 25 45 36 20 19 58 20 64 0z m593 2 c7 -9 8 -15
2 -15 -5 0 -12 7 -16 15 -3 8 -4 15 -2 15 2 0 9 -7 16 -15z m-150 -45 c0 -13
-7 -20 -20 -20 -19 0 -27 20 -13 33 13 14 33 6 33 -13z m-375 -10 c3 -5 -1
-10 -10 -10 -9 0 -13 5 -10 10 3 6 8 10 10 10 2 0 7 -4 10 -10z m349 -36 c9
-22 1 -30 -34 -37 -34 -7 -40 -32 -11 -42 11 -3 23 -15 26 -26 4 -10 12 -19
18 -19 7 -1 1 -7 -12 -14 -14 -8 -31 -11 -39 -8 -8 3 -20 -1 -26 -9 -6 -9 -29
-25 -51 -38 -22 -12 -51 -36 -64 -54 -13 -18 -20 -23 -17 -13 4 11 14 41 22
68 9 26 27 59 40 73 13 15 33 44 44 65 31 61 90 91 104 54z m365 -150 c-32
-13 -37 -20 -42 -57 -3 -23 -3 -54 0 -70 6 -27 5 -29 -16 -18 -17 10 -19 16
-11 31 5 10 10 37 10 59 0 48 20 71 63 70 l32 0 -36 -15z m28 -106 c-2 -13 -4
-3 -4 22 0 25 2 35 4 23 2 -13 2 -33 0 -45z m-517 28 c0 -3 -4 -8 -10 -11 -5
-3 -10 -1 -10 4 0 6 5 11 10 11 6 0 10 -2 10 -4z m-20 -69 l-1 -42 -14 30 -13
30 -3 -35 c-1 -26 -3 -29 -6 -12 -5 28 15 84 28 76 5 -3 9 -24 9 -47z m-81
-17 c-6 -16 -15 -28 -20 -25 -9 6 10 55 22 55 4 0 3 -13 -2 -30z m321 -10 c0
-5 -9 -10 -21 -10 -11 0 -17 5 -14 10 3 6 13 10 21 10 8 0 14 -4 14 -10z m474
-166 c9 -8 16 -11 16 -5 0 15 22 14 56 -3 16 -8 43 -17 59 -19 25 -3 29 -8 26
-28 -3 -23 -2 -23 15 -7 15 13 31 15 82 11 34 -3 62 -7 62 -8 0 0 -8 -19 -19
-41 -10 -21 -22 -52 -25 -69 -4 -16 -16 -41 -27 -55 -20 -24 -21 -24 -16 -3 7
31 -7 37 -41 19 -26 -13 -31 -13 -51 0 -12 9 -36 16 -54 16 -17 0 -58 10 -89
22 -43 16 -56 25 -52 36 4 8 7 26 9 40 5 56 17 110 25 110 5 0 16 -7 24 -16z
m-854 -182 c0 -15 -2 -15 -10 -2 -13 20 -13 33 0 25 6 -3 10 -14 10 -23z m55
-22 c3 -5 1 -10 -4 -10 -6 0 -11 5 -11 10 0 6 2 10 4 10 3 0 8 -4 11 -10z
m1221 -73 c63 -67 97 -240 58 -295 -23 -33 -34 -27 -34 21 0 65 -26 218 -44
260 -18 42 -11 47 20 14z m280 -92 c-3 -45 -20 -136 -37 -201 -17 -66 -37
-148 -45 -184 -20 -95 -70 -200 -94 -200 -4 0 -10 20 -11 44 -2 24 -1 42 3 40
4 -3 10 12 13 33 3 21 10 52 15 69 6 17 28 103 51 190 36 143 71 273 85 314 4
12 7 12 16 -4 7 -12 8 -50 4 -101z m-379 -57 c27 -25 31 -73 7 -82 -33 -13
-73 -6 -84 14 -8 15 -7 29 6 55 19 40 38 44 71 13z m-553 -78 c20 -22 36 -42
36 -45 0 -10 -36 19 -63 51 -41 48 -17 42 27 -6z m456 -71 c75 -12 148 -48
198 -100 34 -34 38 -36 59 -22 13 9 23 11 23 5 0 -6 -5 -12 -11 -14 -9 -3 -9
-17 0 -56 19 -79 10 -79 -34 0 -29 52 -53 80 -88 105 -76 51 -201 78 -327 69
-74 -5 -74 -5 -35 9 49 17 129 18 215 4z m-895 -19 c3 -5 -1 -10 -9 -10 -8 0
-18 5 -21 10 -3 6 1 10 9 10 8 0 18 -4 21 -10z m71 -44 c10 -8 16 -17 13 -20
-3 -4 -17 2 -30 13 -27 23 -13 28 17 7z m894 4 c11 -6 24 -19 30 -30 9 -18 8
-20 -17 -18 -36 3 -71 37 -52 49 18 11 17 11 39 -1z m-659 -98 c-28 -32 -51
-68 -51 -80 0 -36 -18 -34 -22 3 -3 28 -1 35 14 35 10 0 25 12 35 28 10 15 26
36 35 46 10 11 18 27 18 35 0 11 3 12 11 4 9 -9 -2 -27 -40 -71z m374 38 c4
-6 10 -8 15 -5 5 3 11 1 14 -4 4 -5 30 -9 59 -9 36 0 79 -11 142 -36 82 -33
91 -35 102 -20 11 14 13 13 19 -12 4 -16 12 -35 18 -43 6 -8 13 -41 16 -75 l5
-61 54 -3 53 -3 -6 -42 c-4 -23 -13 -46 -20 -52 -7 -5 -18 -20 -25 -32 -20
-38 -71 -24 -71 19 0 19 -15 24 -25 8 -12 -20 -33 -9 -81 41 -58 60 -110 89
-159 89 -34 0 -35 1 -35 39 0 48 -16 63 -56 52 -31 -8 -33 -17 -19 -78 6 -26
4 -33 -8 -33 -8 0 -29 -11 -45 -25 -20 -17 -36 -23 -49 -18 -15 6 -16 4 -5 -9
10 -13 9 -20 -7 -39 -15 -19 -17 -29 -9 -57 5 -19 7 -45 4 -58 -7 -26 9 -42
18 -18 5 14 8 14 21 0 22 -21 19 -46 -6 -46 -11 0 -18 -4 -14 -9 9 -16 66 -41
92 -41 19 0 23 -5 23 -33 0 -133 -213 -18 -258 139 -16 55 -15 149 2 204 18
59 37 100 47 100 4 0 13 16 19 35 13 39 44 66 69 58 12 -3 13 -2 3 4 -14 11 4
36 48 65 29 20 46 22 55 8z m425 -90 c24 -65 22 -92 -4 -42 -18 35 -37 114
-26 107 4 -2 18 -32 30 -65z m-739 -77 c-8 -15 -10 -15 -11 -2 0 17 10 32 18
25 2 -3 -1 -13 -7 -23z m369 -7 c0 -14 -29 -31 -38 -22 -2 3 -2 12 1 21 8 19
37 20 37 1z m124 -132 c4 -9 4 -19 2 -21 -8 -8 -26 8 -26 23 0 19 16 18 24 -2z
m-547 -91 c-2 -16 -4 -3 -4 27 0 30 2 43 4 28 2 -16 2 -40 0 -55z m48 -133 c4
-16 0 -13 -9 9 -11 22 -15 58 -14 105 l1 71 8 -80 c4 -44 10 -91 14 -105z
m472 149 c19 -12 32 -23 29 -26 -7 -7 -96 28 -96 38 0 16 32 10 67 -12z m-117
-87 c0 -10 6 -24 13 -31 10 -10 9 -11 -5 -6 -10 4 -18 11 -18 15 0 5 -3 15 -6
24 -3 9 -1 16 5 16 6 0 11 -8 11 -18z m527 10 c13 -8 22 -40 11 -41 -20 -1
-69 13 -74 20 -3 5 5 13 18 18 29 12 31 12 45 3z m-432 -12 c3 -5 1 -10 -4
-10 -6 0 -11 5 -11 10 0 6 2 10 4 10 3 0 8 -4 11 -10z m45 -25 c-7 -8 -17 -15
-23 -15 -5 0 -2 9 8 20 21 23 35 19 15 -5z m310 5 c0 -5 -4 -10 -10 -10 -5 0
-10 5 -10 10 0 6 5 10 10 10 6 0 10 -4 10 -10z m154 -42 c9 -12 13 -24 11 -27
-6 -5 -45 29 -45 41 0 15 19 8 34 -14z m-1032 -2 c18 -13 34 -76 21 -76 -10 0
-30 32 -43 66 -11 27 -4 30 22 10z m985 -46 c25 -22 50 -40 54 -40 11 0 12
-27 1 -34 -5 -3 -35 22 -67 54 -65 68 -57 81 12 20z m-858 -55 c1 -5 -8 4 -19
20 -11 17 -20 39 -19 50 0 14 6 7 19 -20 10 -22 19 -44 19 -50z"/>
<path d="M4245 4054 c-24 -37 -13 -40 14 -4 12 17 17 30 12 30 -5 0 -16 -12
-26 -26z"/>
<path d="M4892 2950 c-11 -18 -10 -19 13 -8 13 6 22 15 19 19 -8 14 -18 11
-32 -11z"/>
<path d="M4795 2879 c-11 -17 1 -21 15 -4 8 9 8 15 2 15 -6 0 -14 -5 -17 -11z"/>
<path d="M4825 2781 c-5 -16 9 -71 18 -71 1 0 2 20 2 45 0 47 -9 59 -20 26z"/>
<path d="M4797 2753 c-11 -10 -8 -27 6 -47 12 -16 13 -14 9 18 -4 38 -5 40
-15 29z"/>
<path d="M4895 2730 c-8 -13 5 -13 25 0 13 8 13 10 -2 10 -9 0 -20 -4 -23 -10z"/>
<path d="M5195 2711 c-3 -5 0 -13 6 -17 8 -4 9 -3 5 4 -4 7 -1 12 8 12 10 0
16 -9 16 -22 0 -16 3 -19 11 -11 7 7 9 19 6 27 -7 17 -42 22 -52 7z"/>
<path d="M5320 2649 c0 -5 5 -7 10 -4 6 3 10 8 10 11 0 2 -4 4 -10 4 -5 0 -10
-5 -10 -11z"/>
<path d="M4744 2587 c-8 -23 3 -50 19 -44 13 4 11 36 -4 51 -5 6 -11 3 -15 -7z"/>
<path d="M5893 4720 c-45 -18 -73 -89 -57 -146 6 -22 86 -68 106 -62 7 3 -6
13 -27 24 -38 18 -40 21 -38 63 1 24 9 51 18 61 17 18 62 36 80 31 6 -2 20 -3
32 -3 13 0 20 -4 18 -8 -3 -5 0 -10 6 -12 17 -6 24 -95 9 -113 -7 -9 -10 -18
-7 -21 6 -7 34 34 38 56 6 31 -12 88 -36 114 -20 21 -33 26 -72 25 -26 0 -58
-4 -70 -9z m-33 -122 c-1 -34 -3 -39 -11 -26 -8 15 -3 68 7 68 2 0 4 -19 4
-42z"/>
<path d="M6060 4700 c6 -11 13 -20 16 -20 2 0 0 9 -6 20 -6 11 -13 20 -16 20
-2 0 0 -9 6 -20z"/>
<path d="M5990 4661 c0 -21 13 -41 26 -41 20 0 17 13 -6 33 -11 9 -20 13 -20
8z"/>
<path d="M6087 4601 c-3 -28 -15 -54 -34 -73 -28 -31 -28 -31 -2 -14 39 24 65
79 52 107 -9 21 -10 20 -16 -20z"/>
<path d="M6009 4553 c-13 -16 -12 -17 4 -4 9 7 17 15 17 17 0 8 -8 3 -21 -13z"/>
<path d="M6420 4544 c-54 -19 -80 -46 -80 -86 0 -50 16 -68 58 -67 22 1 28 3
15 6 -25 5 -37 33 -28 63 13 42 114 68 133 34 8 -14 10 -12 16 12 13 51 -31
66 -114 38z"/>
<path d="M6551 4514 c0 -11 3 -14 6 -6 3 7 2 16 -1 19 -3 4 -6 -2 -5 -13z"/>
<path d="M2676 4089 c-15 -16 -32 -27 -36 -24 -5 3 -19 -8 -32 -24 -13 -17
-36 -37 -52 -45 l-29 -15 29 -6 c78 -18 130 -58 189 -150 37 -56 65 -85 65
-66 0 7 8 10 18 7 9 -3 49 5 89 19 39 13 87 27 107 30 20 4 36 9 36 11 0 12
-53 104 -66 115 -8 6 -14 18 -14 25 0 8 -8 32 -17 54 -25 58 -110 101 -197 99
-53 -1 -65 -5 -90 -30z m209 -289 c-3 -5 -14 -10 -23 -10 -15 0 -15 2 -2 10
20 13 33 13 25 0z"/>
<path d="M1410 4029 c0 -5 5 -7 10 -4 6 3 10 8 10 11 0 2 -4 4 -10 4 -5 0 -10
-5 -10 -11z"/>
<path d="M1120 3976 c0 -2 9 -6 20 -9 11 -3 18 -1 14 4 -5 9 -34 13 -34 5z"/>
<path d="M2180 3925 c0 -12 40 -84 51 -90 5 -4 -1 16 -15 44 -24 46 -36 61
-36 46z"/>
<path d="M7150 3751 c0 -6 5 -13 10 -16 6 -3 10 1 10 9 0 9 -4 16 -10 16 -5 0
-10 -4 -10 -9z"/>
<path d="M3090 3707 c0 -15 -3 -27 -8 -27 -4 0 -12 -10 -17 -22 -10 -22 -15
-25 -80 -54 -50 -22 -57 -22 -99 1 -20 11 -38 16 -41 13 -4 -3 7 -48 24 -100
37 -112 51 -200 51 -330 0 -100 -17 -172 -61 -258 -24 -48 -94 -116 -152 -150
-40 -23 -56 -26 -95 -22 l-47 5 17 -24 c10 -13 41 -70 69 -125 l51 -102 -4
-83 c-6 -108 -36 -434 -48 -524 -6 -38 -13 -104 -16 -146 l-7 -76 54 8 c30 4
62 8 72 8 10 1 16 5 13 10 -3 4 12 17 34 27 22 10 40 24 40 31 0 7 14 23 31
35 28 21 92 112 84 120 -7 7 -37 184 -36 211 1 16 9 40 19 55 16 25 16 26 -3
19 -17 -6 -18 -5 -4 5 13 11 139 283 139 301 0 11 43 101 51 107 3 3 10 20 14
38 3 17 10 32 14 32 4 0 14 39 21 88 22 150 57 244 144 387 20 33 36 71 36 86
0 14 -14 47 -31 75 -18 27 -70 121 -117 209 -47 88 -91 169 -99 180 -12 19
-13 18 -13 -8z m-100 -157 c0 -5 -4 -10 -10 -10 -5 0 -10 5 -10 10 0 6 5 10
10 10 6 0 10 -4 10 -10z m178 -555 c0 -59 -2 -83 -8 -70 -5 11 -8 63 -8 115 0
62 3 86 8 70 4 -14 8 -65 8 -115z m19 28 c-2 -21 -4 -6 -4 32 0 39 2 55 4 38
2 -18 2 -50 0 -70z m-192 -471 c-3 -3 -11 0 -18 7 -9 10 -8 11 6 5 10 -3 15
-9 12 -12z m-111 -407 c-4 -8 -14 -15 -23 -15 -14 1 -13 3 3 15 25 19 27 19
20 0z"/>
<path d="M7051 3697 c-18 -18 -13 -54 14 -106 27 -53 84 -96 116 -86 25 8 24
22 -2 37 -11 7 -35 45 -53 84 -34 72 -54 92 -75 71z"/>
<path d="M2292 3640 c0 -14 2 -19 5 -12 2 6 2 18 0 25 -3 6 -5 1 -5 -13z"/>
<path d="M7005 3510 c3 -5 8 -10 11 -10 2 0 4 5 4 10 0 6 -5 10 -11 10 -5 0
-7 -4 -4 -10z"/>
<path d="M1740 3493 c0 -8 5 -13 12 -11 18 6 21 25 3 25 -8 0 -15 -7 -15 -14z"/>
<path d="M3893 3442 c-1 -25 4 -45 13 -52 8 -7 14 -19 14 -27 0 -8 5 -11 10
-8 6 3 10 -1 10 -10 0 -9 5 -13 10 -10 6 3 10 2 10 -4 0 -5 -4 -13 -10 -16 -5
-3 -10 -11 -10 -17 0 -15 37 19 71 66 32 43 36 58 14 50 -8 -4 -17 1 -21 10
-3 9 -12 16 -19 16 -7 0 -18 7 -25 15 -7 8 -23 13 -36 11 -12 -3 -24 0 -26 6
-2 5 -4 -8 -5 -30z"/>
<path d="M1760 3460 c0 -5 5 -10 10 -10 6 0 10 5 10 10 0 6 -4 10 -10 10 -5 0
-10 -4 -10 -10z"/>
<path d="M1736 3414 c-10 -37 2 -43 24 -14 25 32 25 40 1 40 -12 0 -21 -9 -25
-26z"/>
<path d="M4040 3364 c0 -6 -9 -20 -20 -32 -12 -12 -16 -22 -11 -22 14 0 46 49
37 57 -3 3 -6 2 -6 -3z"/>
<path d="M2896 3205 c-4 -38 -12 -83 -17 -99 -12 -38 -12 -53 1 -40 12 12 33
145 28 181 -2 16 -7 -1 -12 -42z"/>
<path d="M3750 3160 c-8 -5 -27 -10 -42 -10 -16 0 -28 -5 -28 -11 0 -5 -4 -8
-9 -5 -15 9 -21 -21 -21 -100 0 -43 -4 -74 -10 -74 -5 0 -10 -4 -10 -9 0 -5 9
-7 20 -4 24 6 26 -3 5 -23 -8 -9 -15 -22 -15 -31 0 -22 18 -5 93 86 81 98 126
160 104 142 -13 -10 -20 -11 -31 -2 -11 9 -15 9 -18 0 -7 -22 -30 2 -25 27 2
13 4 24 3 24 0 0 -8 -5 -16 -10z m60 -59 c0 -6 -4 -13 -10 -16 -5 -3 -10 1
-10 9 0 9 5 16 10 16 6 0 10 -4 10 -9z"/>
<path d="M2849 3024 c-5 -15 -8 -29 -5 -31 2 -2 8 10 14 26 13 38 5 41 -9 5z"/>
<path d="M1855 2950 c-9 -15 -1 -23 21 -18 15 3 16 4 1 16 -11 9 -17 10 -22 2z"/>
<path d="M11111 2785 c-1 -5 8 -23 19 -40 14 -21 20 -25 20 -12 0 9 -4 17 -8
17 -5 0 -14 10 -20 23 -6 12 -11 18 -11 12z"/>
<path d="M1621 2751 c-8 -5 -20 -7 -27 -4 -7 2 -46 -5 -86 -16 -41 -12 -85
-21 -99 -21 -13 0 -36 -6 -51 -14 -19 -10 -29 -11 -37 -3 -8 8 -11 7 -11 -2 0
-10 -3 -11 -14 -2 -11 9 -15 5 -18 -24 -5 -40 5 -53 28 -34 24 20 25 5 1 -32
-20 -29 -22 -37 -11 -57 l12 -23 19 28 c11 15 24 38 27 51 9 28 26 36 101 53
73 15 235 83 235 98 0 11 -54 12 -69 2z"/>
<path d="M10493 2413 c-7 -2 -13 -13 -13 -24 0 -14 7 -19 28 -19 36 0 56 14
49 34 -6 15 -38 20 -64 9z"/>
<path d="M3671 2353 c-13 -44 -14 -65 -5 -88 5 -13 8 -14 15 -3 7 10 9 9 9 -4
0 -11 -7 -18 -18 -18 -16 0 -19 -9 -21 -51 -1 -45 2 -54 30 -80 60 -56 73 -32
50 84 -13 64 -10 77 18 70 12 -3 17 -11 14 -23 -4 -13 4 -21 32 -30 29 -10 34
-14 24 -26 -7 -8 -9 -17 -5 -21 3 -3 -1 -15 -11 -25 -15 -17 -15 -19 2 -38 10
-11 13 -20 7 -20 -7 0 -12 -4 -12 -10 0 -14 27 -12 33 3 3 7 6 5 6 -5 1 -22
39 -24 47 -3 4 8 12 15 19 15 7 0 15 9 18 20 3 11 10 20 16 20 15 0 14 -27 -1
-33 -7 -3 -3 -6 10 -6 21 -1 23 -5 21 -46 -3 -40 1 -49 26 -70 17 -15 41 -25
60 -25 17 0 37 -6 44 -12 11 -10 14 -10 18 0 3 6 13 12 24 12 10 0 19 4 19 9
0 16 -139 133 -150 126 -6 -4 -9 -2 -8 3 4 14 -62 72 -81 72 -12 0 -13 2 -3 9
10 6 -5 25 -54 72 -84 81 -80 77 -136 122 l-47 38 -10 -38z m45 -17 c8 -8 14
-23 13 -33 0 -15 -2 -14 -11 5 -6 13 -17 21 -24 18 -8 -3 -11 0 -7 10 7 18 11
18 29 0z m184 -166 c0 -5 -4 -10 -10 -10 -5 0 -10 5 -10 10 0 6 5 10 10 10 6
0 10 -4 10 -10z"/>
<path d="M10373 2150 c2 -106 21 -122 25 -23 3 73 -3 113 -18 113 -5 0 -8 -39
-7 -90z"/>
<path d="M7926 2218 c-11 -6 -46 -19 -78 -29 -32 -9 -74 -31 -94 -48 -19 -17
-41 -31 -48 -31 -22 0 -180 -180 -198 -225 -42 -106 -71 -207 -77 -275 -4 -41
-17 -104 -29 -140 -35 -108 -38 -144 -13 -184 29 -46 41 -90 30 -107 -14 -23
9 -40 36 -27 27 12 24 5 95 228 57 179 117 314 155 352 17 17 50 31 102 43 85
20 128 38 136 57 4 10 6 10 6 1 1 -13 52 -18 64 -7 8 9 -45 74 -60 74 -7 0
-13 -9 -13 -19 0 -10 -6 -21 -14 -24 -17 -7 -66 36 -66 57 0 8 -8 20 -17 25
-10 6 -14 11 -9 11 6 0 1 7 -10 15 -16 13 -17 16 -4 24 10 7 17 6 23 -4 14
-25 27 -16 15 10 -12 26 -40 40 -74 36 -22 -2 -34 20 -34 66 0 16 5 20 20 16
14 -4 23 2 31 21 14 30 21 32 55 10 19 -13 35 -15 72 -9 26 4 64 7 85 6 20 -1
37 1 37 3 0 9 -85 86 -95 85 -5 0 -19 -5 -29 -11z m-296 -401 c0 -23 -2 -22
-19 10 -10 19 -9 22 4 17 8 -4 15 -15 15 -27z"/>
<path d="M8105 2077 c10 -43 29 -82 70 -142 64 -94 57 -92 178 -69 28 6 38 24
13 24 -19 0 -135 128 -148 163 -6 17 -19 29 -36 32 -15 3 -40 10 -55 15 -28 9
-28 8 -22 -23z"/>
<path d="M1508 1973 c18 -2 45 -2 60 0 15 2 0 4 -33 4 -33 0 -45 -2 -27 -4z"/>
<path d="M1448 1963 c7 -3 16 -2 19 1 4 3 -2 6 -13 5 -11 0 -14 -3 -6 -6z"/>
<path d="M12340 1940 c0 -5 -11 -12 -25 -16 -30 -7 -31 -14 -7 -35 9 -9 26
-29 37 -44 l20 -28 6 49 c6 49 -3 84 -21 84 -6 0 -10 -4 -10 -10z"/>
<path d="M4165 1919 c-11 -16 -1 -19 13 -3 7 8 8 14 3 14 -5 0 -13 -5 -16 -11z"/>
<path d="M4200 1895 c7 -8 17 -15 22 -15 6 0 5 7 -2 15 -7 8 -17 15 -22 15 -6
0 -5 -7 2 -15z"/>
<path d="M8076 1854 c-5 -12 -1 -14 17 -8 45 13 54 23 21 24 -20 0 -34 -6 -38
-16z"/>
<path d="M2000 1801 c0 -6 5 -13 10 -16 6 -3 10 1 10 9 0 9 -4 16 -10 16 -5 0
-10 -4 -10 -9z"/>
<path d="M12772 1734 c-1 -17 -4 -47 -7 -65 l-5 -34 11 34 c5 18 8 47 6 65
l-4 31 -1 -31z"/>
<path d="M3170 1700 l-25 -8 25 0 c14 0 34 3 45 8 l20 9 -20 -1 c-11 0 -31 -4
-45 -8z"/>
<path d="M3068 1693 c6 -2 18 -2 25 0 6 3 1 5 -13 5 -14 0 -19 -2 -12 -5z"/>
<path d="M3371 1660 c9 -5 36 -12 60 -15 42 -5 41 -4 -11 10 -65 17 -70 17
-49 5z"/>
<path d="M5434 1613 c-72 -109 -122 -233 -96 -233 23 0 151 153 163 194 3 12
11 20 16 19 12 -3 5 35 -10 55 -18 23 -42 12 -73 -35z"/>
<path d="M12081 1639 c-20 -8 -22 -14 -17 -42 9 -42 9 -87 1 -113 -6 -18 -2
-22 32 -27 56 -10 96 -8 131 4 28 9 30 13 19 30 -9 15 -9 21 1 27 13 9 11 57
-4 83 -23 40 -108 60 -163 38z"/>
<path d="M12628 1643 c-10 -2 -18 -11 -18 -19 0 -11 7 -13 28 -8 39 10 46 15
31 25 -8 5 -16 8 -19 8 -3 -1 -13 -3 -22 -6z"/>
<path d="M12340 1620 c-28 -28 -26 -135 4 -156 10 -7 23 -11 28 -8 12 7 10
184 -2 184 -5 0 -19 -9 -30 -20z"/>
<path d="M10655 1620 c-16 -4 -46 -14 -66 -22 l-35 -15 -2 -74 c-3 -201 -17
-259 -64 -259 -23 0 -25 -48 -2 -57 8 -3 19 -16 24 -29 8 -19 19 -23 77 -30
119 -13 443 -10 488 6 22 7 76 13 122 12 76 -1 84 1 102 23 10 14 29 25 40 25
35 0 58 31 66 86 6 51 6 52 -40 100 -25 27 -48 61 -52 77 -6 28 -18 36 -25 15
-8 -23 -58 9 -74 47 -8 20 -27 41 -45 51 -49 25 -450 60 -514 44z"/>
<path d="M12510 1592 c0 -5 -13 -12 -29 -15 -24 -5 -29 -12 -32 -39 -2 -18 -3
-45 -1 -60 3 -25 7 -28 43 -28 l39 0 2 50 c1 28 2 60 2 72 1 12 -5 23 -11 26
-7 2 -13 -1 -13 -6z"/>
<path d="M12606 1573 c-21 -106 -6 -125 91 -121 l68 3 -3 59 c-4 68 -17 86
-65 86 -42 0 -61 -20 -55 -60 3 -17 -1 -35 -8 -41 -10 -8 -12 1 -7 45 4 37 2
56 -5 56 -6 0 -13 -12 -16 -27z"/>
<path d="M11447 1502 c-32 -36 -12 -121 25 -107 20 8 32 79 18 105 -13 25 -22
25 -43 2z"/>
<path d="M11788 1377 c-20 -27 -20 -34 -9 -76 7 -25 14 -47 16 -50 4 -4 95
-21 122 -23 8 -1 10 -12 6 -31 -5 -27 -4 -28 14 -18 18 9 19 16 13 53 -5 24
-6 47 -3 52 3 4 9 24 13 42 8 33 7 34 -25 34 -19 0 -39 8 -49 19 -9 10 -31 21
-47 23 -24 4 -34 -1 -51 -25z"/>
<path d="M2123 1324 c5 -5 30 -10 57 -11 92 -3 80 -18 -13 -17 -65 2 -78 0
-45 -5 55 -7 53 -21 -5 -46 -20 -8 -37 -22 -37 -30 0 -8 -8 -15 -17 -15 -26
-1 -63 -35 -63 -59 0 -12 -4 -21 -10 -21 -16 0 -12 -86 5 -100 9 -7 49 -15 90
-18 41 -2 75 -8 75 -12 0 -13 279 -3 296 11 13 10 17 10 23 0 5 -8 24 -12 51
-10 31 3 45 -1 55 -14 7 -9 20 -17 29 -17 9 0 34 -9 56 -20 26 -13 59 -20 98
-20 64 0 78 6 61 27 -9 10 -7 13 9 13 22 0 82 31 82 42 0 4 -9 10 -20 13 -40
13 -9 105 34 105 9 0 19 7 22 15 4 10 20 15 45 15 35 0 39 3 39 25 0 21 5 25
33 27 49 2 55 3 62 9 8 9 -30 14 -350 49 -154 16 -341 37 -415 47 -174 21
-257 27 -247 17z m944 -110 c-3 -3 -12 -4 -19 -1 -8 3 -5 6 6 6 11 1 17 -2 13
-5z"/>
<path d="M8395 1253 c4 -20 14 -43 23 -50 16 -12 16 -13 -1 -7 -10 4 -24 21
-31 38 -12 31 -13 30 -24 -47 -10 -68 -10 -82 4 -109 9 -18 22 -37 28 -43 6
-6 36 -57 66 -113 30 -56 60 -102 67 -102 33 0 48 -87 27 -152 -23 -69 -49
-85 -119 -69 -57 13 -105 43 -105 66 0 8 -31 38 -70 66 -38 29 -72 60 -75 69
-3 9 -17 28 -32 41 l-26 24 7 -30 c4 -16 21 -56 37 -88 16 -32 29 -69 29 -82
0 -27 18 -32 52 -14 15 8 19 8 14 0 -4 -6 -2 -11 3 -11 6 0 20 -8 30 -17 29
-27 44 -38 66 -51 18 -10 17 -11 -14 -12 -21 0 -46 9 -65 24 -17 12 -45 30
-62 39 -28 14 -34 15 -44 2 -10 -12 -7 -20 17 -43 49 -50 86 -61 289 -87 60
-7 132 -19 159 -25 54 -12 165 -6 233 13 34 9 42 16 42 35 0 12 17 59 37 104
28 61 38 76 44 62 10 -30 83 126 145 312 52 156 66 210 43 171 -6 -10 -19 -50
-30 -90 -32 -115 -226 -485 -273 -518 -5 -4 -6 -14 -3 -23 9 -22 -30 -46 -75
-46 -24 0 -46 8 -65 24 -34 29 -35 57 -9 236 19 136 41 209 92 312 40 79 41
88 14 88 -17 0 -19 -5 -14 -25 9 -38 -12 -58 -55 -50 -98 17 -135 37 -216 118
-109 108 -141 125 -78 41 13 -17 23 -36 23 -42 0 -25 -20 -10 -57 43 -21 30
-42 55 -47 55 -4 0 -5 -17 -1 -37z m43 -114 c-3 -9 -12 0 -22 21 l-18 35 22
-21 c12 -12 20 -28 18 -35z"/>
<path d="M12472 1245 c-7 -8 -9 -15 -5 -15 4 0 2 -5 -5 -12 -16 -16 -15 -28 2
-28 7 0 19 -7 26 -15 20 -24 49 -18 81 16 27 29 31 30 47 17 15 -14 19 -13 41
8 l24 23 -24 5 c-13 3 -33 6 -44 6 -11 0 -45 2 -75 5 -42 4 -58 2 -68 -10z"/>
<path d="M3168 1203 c7 -3 16 -2 19 1 4 3 -2 6 -13 5 -11 0 -14 -3 -6 -6z"/>
<path d="M12376 1203 c-16 -4 -17 -11 -11 -46 5 -23 11 -82 14 -131 4 -62 10
-91 20 -94 9 -3 12 3 9 24 -3 16 -3 23 -1 17 3 -7 8 -13 13 -13 5 0 11 -13 15
-29 6 -28 18 -37 89 -66 48 -19 66 -19 66 0 0 8 4 15 10 15 5 0 7 -7 4 -15 -4
-9 0 -15 10 -15 9 0 16 -5 16 -11 0 -12 -139 -7 -189 7 -18 5 -23 4 -19 -7 5
-16 66 -27 191 -35 54 -3 87 -1 87 5 0 6 23 13 50 17 l50 7 0 138 0 139 -43 0
c-24 0 -49 -6 -55 -12 -10 -10 -15 -10 -20 -1 -4 6 -20 15 -35 18 -24 6 -29 4
-34 -15 -6 -21 -7 -22 -19 -5 -9 12 -32 19 -79 23 -58 4 -68 2 -89 -17 l-23
-22 -6 29 c-3 17 -3 46 0 66 3 20 4 35 2 35 -2 -1 -12 -3 -23 -6z m338 -344
c20 -1 -28 -18 -54 -18 -21 0 -22 1 -8 9 11 7 19 31 24 68 l8 57 9 -57 c5 -32
14 -58 21 -59z"/>
<path d="M5170 1155 c-9 -11 -10 -19 -2 -27 14 -14 32 -1 32 23 0 23 -13 25
-30 4z"/>
<path d="M3043 1080 c0 -25 2 -35 4 -22 2 12 2 32 0 45 -2 12 -4 2 -4 -23z"/>
<path d="M11320 1092 c0 -15 50 -32 95 -32 50 0 58 11 20 28 -30 14 -115 16
-115 4z"/>
<path d="M11725 1071 c-7 -13 17 -24 40 -19 9 1 16 8 16 13 0 14 -48 19 -56 6z"/>
<path d="M11535 1049 c-10 -15 -7 -16 58 -23 57 -7 71 0 43 23 -10 8 -16 9
-21 1 -4 -7 -12 -7 -25 0 -24 13 -47 13 -55 -1z"/>
<path d="M4320 970 c0 -5 5 -10 11 -10 5 0 7 5 4 10 -3 6 -8 10 -11 10 -2 0
-4 -4 -4 -10z"/>
<path d="M9407 898 c-15 -33 -26 -62 -23 -65 6 -6 58 106 54 117 -2 4 -16 -19
-31 -52z"/>
<path d="M4387 912 c-22 -24 -22 -52 0 -52 9 0 14 3 10 6 -3 4 0 13 8 21 16
16 20 43 7 43 -5 0 -16 -8 -25 -18z"/>
<path d="M9560 888 c0 -15 9 -27 25 -35 23 -10 25 -9 25 11 0 25 -17 46 -37
46 -7 0 -13 -10 -13 -22z"/>
<path d="M8522 780 c0 -14 2 -19 5 -12 2 6 2 18 0 25 -3 6 -5 1 -5 -13z"/>
<path d="M9667 723 c-15 -14 -6 -43 18 -59 37 -24 199 -41 510 -54 244 -9 286
-9 325 4 43 15 44 15 22 -2 -67 -49 -91 -76 -98 -105 -4 -20 -2 -33 5 -35 19
-6 13 -63 -10 -83 l-20 -18 21 -11 c12 -6 31 -11 43 -10 39 4 47 0 47 -17 0
-28 -16 -45 -41 -48 -13 -1 -74 -6 -135 -9 -91 -6 -112 -5 -117 7 -8 22 4 32
61 52 28 11 52 23 52 28 0 8 -135 1 -172 -9 -15 -4 -16 -9 -7 -26 14 -27 3
-85 -19 -97 -10 -5 -47 -10 -83 -10 -35 0 -75 -1 -89 -2 -13 0 -26 4 -28 10
-2 6 -11 11 -20 11 -15 1 -15 2 1 11 9 6 15 14 12 19 -3 5 4 14 15 20 30 16
24 30 -14 30 -39 0 -51 -12 -38 -37 8 -13 3 -26 -20 -54 -27 -34 -35 -37 -96
-43 -37 -4 -104 -7 -149 -7 -51 0 -83 -5 -83 -11 0 -6 -12 -8 -29 -5 -16 3
-36 0 -47 -7 -17 -12 -156 -31 -369 -52 -38 -4 -100 -6 -137 -5 -36 1 -69 -2
-72 -8 -4 -5 -28 -13 -54 -16 -60 -8 -99 -23 -106 -41 -3 -9 -20 -14 -43 -14
-21 0 -45 -5 -53 -10 -10 -6 238 -10 710 -10 l726 0 144 29 c80 16 182 40 227
55 46 14 113 30 150 36 66 11 100 15 466 64 103 14 210 32 237 40 27 8 95 20
150 27 63 8 105 18 112 27 25 29 -16 39 -187 47 -156 7 -165 8 -165 27 0 17
-5 19 -27 15 -165 -31 -526 -77 -599 -77 -38 0 -49 13 -57 65 -8 53 5 75 33
57 11 -7 26 -9 33 -5 6 4 42 8 80 9 38 2 72 5 75 8 7 8 -43 79 -79 110 -16 15
-35 24 -41 20 -6 -4 -8 -3 -5 3 9 15 -56 24 -65 9 -4 -6 -8 -21 -8 -32 0 -12
-6 -27 -14 -33 -8 -7 -13 -21 -11 -32 2 -11 0 -17 -6 -14 -23 15 -1 128 27
139 8 3 14 12 14 21 0 20 15 19 48 -5 26 -18 49 -19 492 -22 323 -1 494 2 560
10 52 7 131 17 175 23 44 6 89 11 100 13 14 2 21 12 23 34 3 27 -1 32 -23 38
-15 4 -70 1 -123 -6 -242 -30 -1361 -21 -1892 15 -236 17 -254 17 -263 8z"/>
<path d="M7705 690 c95 -31 420 -84 404 -66 -8 8 -296 62 -375 70 -46 5 -52 4
-29 -4z"/>
<path d="M9380 640 c0 -5 -6 -10 -14 -10 -7 0 -34 -18 -60 -41 -70 -62 -321
-151 -376 -134 -12 4 -19 -1 -23 -16 -3 -11 -10 -18 -15 -15 -6 3 -12 1 -14
-4 -2 -7 -33 -7 -98 2 -71 10 -87 14 -65 19 29 6 28 7 -7 8 -21 0 -38 -3 -38
-9 0 -5 -17 -11 -37 -11 -69 -3 151 -27 247 -28 94 0 219 12 253 25 16 6 17 2
11 -37 -13 -78 -15 -74 51 -71 75 3 203 30 232 48 12 7 24 23 28 34 8 25 25
25 58 0 39 -31 64 -26 82 16 8 20 15 45 15 56 0 10 7 21 15 24 8 4 15 12 15
20 0 35 -127 1 -137 -36 -3 -11 -9 -20 -13 -20 -5 0 -41 20 -81 45 -40 25 -65
45 -55 45 10 0 16 6 13 13 -2 6 -12 11 -21 11 -24 -2 -19 11 10 26 28 15 52
50 34 50 -5 0 -10 -4 -10 -10z m-60 -74 c0 -2 -7 -6 -15 -10 -8 -3 -15 -1 -15
4 0 6 7 10 15 10 8 0 15 -2 15 -4z m109 -100 c9 -10 8 -16 -4 -26 -18 -15 -40
-8 -55 19 -10 19 -8 21 18 21 16 0 35 -6 41 -14z"/>
<path d="M9951 499 c-18 -11 -32 -22 -29 -24 8 -8 173 -7 171 1 -13 46 -85 58
-142 23z"/>
<path d="M8448 443 c6 -2 18 -2 25 0 6 3 1 5 -13 5 -14 0 -19 -2 -12 -5z"/>
<path d="M8528 433 c6 -2 18 -2 25 0 6 3 1 5 -13 5 -14 0 -19 -2 -12 -5z"/>
<path d="M10054 344 c-12 -8 -31 -16 -43 -17 -12 -1 -21 -5 -21 -9 0 -14 79
-9 118 8 33 14 35 17 17 24 -29 12 -47 11 -71 -6z"/>
<path d="M9395 285 c-49 -8 -159 -30 -243 -49 -84 -20 -155 -36 -158 -36 -2 0
-4 -4 -4 -10 0 -17 128 -11 245 11 61 11 153 24 206 28 95 7 163 32 143 51
-17 16 -100 18 -189 5z"/>
<path d="M8725 188 c-21 -12 -49 -37 -43 -39 2 0 41 -3 87 -5 69 -4 86 -2 102
12 25 23 24 32 -6 40 -18 4 -32 1 -45 -11 -19 -17 -21 -17 -38 -2 -22 20 -30
20 -57 5z"/>
<path d="M7063 3 c15 -2 37 -2 50 0 12 2 0 4 -28 4 -27 0 -38 -2 -22 -4z"/>
</g>
</svg>
