<svg width="20" height="20" viewBox="0 0 20 20" fill="none" xmlns="http://www.w3.org/2000/svg">
<rect x="2.25" y="2.25" width="13.5" height="12.5" rx="1.75" stroke="#C1C7D3" stroke-width="0.5"/>
<path fill-rule="evenodd" clip-rule="evenodd" d="M6.08589 3.99996H15.9141C16.4673 3.99996 16.9979 4.22582 17.3891 4.62786C17.7802 5.0299 18 5.57519 18 6.14376V14.8562C18 15.4247 17.7802 15.97 17.3891 16.3721C16.9979 16.7741 16.4673 17 15.9141 17H6.08589C5.53268 17 5.00213 16.7741 4.61094 16.3721C4.21976 15.97 4 15.4247 4 14.8562V6.14376C4 5.57519 4.21976 5.0299 4.61094 4.62786C5.00213 4.22582 5.53268 3.99996 6.08589 3.99996Z" fill="white"/>
<path fill-rule="evenodd" clip-rule="evenodd" d="M6.44195 6H15.5581C15.6753 6 15.7877 6.05268 15.8706 6.14646C15.9534 6.24023 16 6.36742 16 6.50003C16 6.63265 15.9534 6.75984 15.8706 6.85361C15.7877 6.94739 15.6753 7.00007 15.5581 7.00007H6.44195C6.32474 7.00007 6.21233 6.94739 6.12944 6.85361C6.04656 6.75984 6 6.63265 6 6.50003C6 6.36742 6.04656 6.24023 6.12944 6.14646C6.21233 6.05268 6.32474 6 6.44195 6ZM6.44195 8.66643H15.5581C15.6753 8.66643 15.7877 8.71911 15.8706 8.81289C15.9534 8.90666 16 9.03385 16 9.16647C16 9.29908 15.9534 9.42627 15.8706 9.52005C15.7877 9.61382 15.6753 9.6665 15.5581 9.6665H6.44195C6.32474 9.6665 6.21233 9.61382 6.12944 9.52005C6.04656 9.42627 6 9.29908 6 9.16647C6 9.03385 6.04656 8.90666 6.12944 8.81289C6.21233 8.71911 6.32474 8.66643 6.44195 8.66643ZM6.44195 11.3335H15.5581C15.6753 11.3335 15.7877 11.3862 15.8706 11.48C15.9534 11.5737 16 11.7009 16 11.8335C16 11.9661 15.9534 12.0933 15.8706 12.1871C15.7877 12.2809 15.6753 12.3336 15.5581 12.3336H6.44195C6.32474 12.3336 6.21233 12.2809 6.12944 12.1871C6.04656 12.0933 6 11.9661 6 11.8335C6 11.7009 6.04656 11.5737 6.12944 11.48C6.21233 11.3862 6.32474 11.3335 6.44195 11.3335ZM6.7364 13.9999H14.0875C14.2047 13.9999 14.3171 14.0526 14.4 14.1464C14.4829 14.2402 14.5294 14.3673 14.5294 14.5C14.5294 14.6326 14.4829 14.7598 14.4 14.8535C14.3171 14.9473 14.2047 15 14.0875 15H6.7364C6.61918 15 6.50677 14.9473 6.42389 14.8535C6.34101 14.7598 6.29445 14.6326 6.29445 14.5C6.29445 14.3673 6.34101 14.2402 6.42389 14.1464C6.50677 14.0526 6.61918 13.9999 6.7364 13.9999Z" fill="#181717"/>
</svg>
