<svg width="42" height="42" viewBox="0 0 42 42" fill="none" xmlns="http://www.w3.org/2000/svg">
<g clip-path="url(#clip0_198_7617)">
<rect x="0.403846" y="0.403846" width="41.1923" height="41.1923" rx="20.5962" stroke="url(#paint0_linear_198_7617)" stroke-width="0.807692"/>
<path d="M27.9912 16.006C27.2418 14.8205 26.1999 13.8518 24.9674 13.1911C24.9674 13.165 24.9674 13.1389 24.9674 13.1128C24.9674 10.9611 23.2179 9.21156 21.0688 9.21156C18.9171 9.21156 17.1676 10.9611 17.1676 13.1128C17.1676 13.1598 17.1676 13.2094 17.1702 13.2564C14.6869 14.6456 13.1045 17.2412 13.0183 20.09C13.0157 20.1919 12.9922 20.2676 12.9426 20.3538L11.4933 22.8788C11.2453 23.3149 11.2453 23.8137 11.496 24.2471C11.744 24.6754 12.1879 24.9313 12.6841 24.9313H12.7702C13.081 24.9313 13.3343 25.1846 13.3343 25.4927V27.7488C13.3343 28.5061 13.9479 29.1197 14.7052 29.1197H15.6426C15.9534 29.1197 16.204 29.373 16.204 29.6811V30.9372C16.204 31.6944 16.8177 32.3081 17.5749 32.3081H23.6148C24.3694 32.3081 24.9857 31.6918 24.9857 30.9372V27.8141C24.9857 27.6052 25.0823 27.4381 25.2625 27.331C26.4532 26.626 27.4533 25.6207 28.1505 24.4221C28.8686 23.1896 29.2498 21.7769 29.2498 20.3433C29.2472 18.8001 28.8138 17.3012 27.9912 16.006ZM21.0688 10.021C22.7739 10.021 24.1605 11.4076 24.1605 13.1128C24.1605 14.0293 23.7558 14.8936 23.0533 15.4838C22.8784 15.63 22.7426 15.8024 22.646 15.9982H19.4916C19.395 15.805 19.2592 15.63 19.0842 15.4838C18.3792 14.8936 17.9771 14.0293 17.9771 13.1128C17.9771 11.4076 19.3636 10.021 21.0688 10.021ZM22.7008 16.8077C22.8314 16.8077 22.9411 16.9174 22.9411 17.0479C22.9411 17.1759 22.8314 17.2855 22.7008 17.2855H19.4394C19.3114 17.2855 19.2018 17.1759 19.2018 17.0479C19.2018 16.9174 19.3114 16.8077 19.4394 16.8077H22.7008ZM22.3718 18.0924C22.1551 18.5938 21.6537 18.9437 21.0819 18.9437C20.4865 18.9437 19.9825 18.599 19.7658 18.0924H22.3718ZM24.8499 26.6338C24.4216 26.8871 24.1762 27.3154 24.1762 27.8141V30.9424C24.1762 31.2531 23.9229 31.5064 23.6148 31.5064H17.5749C17.2642 31.5064 17.0135 31.2531 17.0135 30.9424V29.6864C17.0135 28.9317 16.3999 28.3155 15.6426 28.3155H14.7052C14.3944 28.3155 14.1438 28.0622 14.1438 27.7514V25.4979C14.1438 24.7433 13.5275 24.127 12.7729 24.127H12.6867C12.4778 24.127 12.3054 24.0278 12.201 23.8476C12.0939 23.6648 12.0939 23.469 12.201 23.2862L13.6502 20.7611C13.7677 20.5574 13.8252 20.3564 13.833 20.1188C13.9061 17.6563 15.2222 15.4054 17.306 14.1207C17.5097 14.8884 17.9484 15.583 18.5724 16.1053C18.6351 16.1575 18.6899 16.2175 18.7317 16.2828C18.5281 16.4734 18.3975 16.745 18.3975 17.0479C18.3975 17.4187 18.5933 17.7451 18.8858 17.9305C19.0738 18.9698 19.9956 19.7532 21.0871 19.7532C22.1655 19.7532 23.0795 18.9698 23.2649 17.9305C23.5573 17.7451 23.7532 17.4187 23.7532 17.0453C23.7532 16.7424 23.6252 16.4708 23.4189 16.2802C23.4607 16.2149 23.5129 16.1575 23.5782 16.1026C24.2206 15.5647 24.6645 14.8466 24.8603 14.0528C27.0851 15.3663 28.4456 17.7295 28.4456 20.3407C28.4377 22.9128 27.0642 25.323 24.8499 26.6338ZM20.6641 8.1305V6.86666C20.6641 6.64209 20.8442 6.46191 21.0688 6.46191C21.2934 6.46191 21.4735 6.64209 21.4735 6.86666V8.1305C21.4735 8.35507 21.2934 8.53525 21.0688 8.53525C20.8442 8.53525 20.6641 8.35246 20.6641 8.1305ZM23.21 8.59531L23.8419 7.50119C23.9542 7.30796 24.1997 7.24268 24.3955 7.35235C24.5888 7.46463 24.654 7.71009 24.5444 7.90594L23.9124 9.00005C23.8341 9.13061 23.6983 9.20373 23.5599 9.20373C23.492 9.20373 23.4215 9.18545 23.3589 9.14889C23.163 9.03661 23.0977 8.78854 23.21 8.59531ZM25.0327 10.8227C24.9204 10.6295 24.9883 10.3814 25.1815 10.2691L26.2756 9.63719C26.4689 9.52491 26.7169 9.5928 26.8292 9.78604C26.9415 9.97927 26.8736 10.2273 26.6804 10.3396L25.5863 10.9715C25.5236 11.0081 25.4531 11.0264 25.3852 11.0264C25.2442 11.0264 25.1084 10.9533 25.0327 10.8227ZM17.5958 7.90594C17.4836 7.7127 17.5514 7.46463 17.7447 7.35235C17.9379 7.24007 18.186 7.30796 18.2983 7.50119L18.9302 8.59531C19.0425 8.78854 18.9746 9.03661 18.7813 9.14889C18.7161 9.18545 18.6482 9.20373 18.5777 9.20373C18.4367 9.20373 18.3009 9.13061 18.2278 9.00266L17.5958 7.90594ZM15.311 9.78604C15.4233 9.5928 15.6687 9.52752 15.8646 9.63719L16.9587 10.2691C17.1519 10.3814 17.2172 10.6269 17.1075 10.8227C17.0318 10.9533 16.896 11.0238 16.7576 11.0238C16.6897 11.0238 16.6192 11.0055 16.5566 10.9689L15.4624 10.337C15.264 10.2273 15.1987 9.97927 15.311 9.78604ZM18.925 13.1885L19.6901 13.7421L19.3976 14.6377C19.3193 14.8806 19.4028 15.1469 19.6117 15.301C19.8206 15.4524 20.1 15.4524 20.3089 15.301L21.0688 14.7448L21.8313 15.3036C21.9357 15.3793 22.0585 15.4159 22.1786 15.4159C22.3013 15.4159 22.4214 15.3793 22.5259 15.3036C22.7348 15.1522 22.8209 14.8858 22.74 14.6403L22.4475 13.7447L23.2126 13.1911C23.4215 13.0397 23.5077 12.7733 23.4294 12.5278C23.3484 12.2824 23.1238 12.1179 22.8653 12.1179L21.9227 12.1205L21.6328 11.2248C21.5545 10.9794 21.3299 10.8123 21.0688 10.8123C20.8077 10.8123 20.5831 10.9768 20.5048 11.2248L20.2149 12.1205L19.2723 12.1179C19.0164 12.1179 18.7892 12.2824 18.7082 12.5278C18.6299 12.7707 18.7161 13.037 18.925 13.1885ZM20.3716 12.9274C20.6327 12.9274 20.8573 12.7629 20.9356 12.5148L21.0688 12.1074L21.202 12.5148C21.2803 12.7602 21.5049 12.9274 21.766 12.9274H22.1969L21.8469 13.1807C21.638 13.3321 21.5519 13.5985 21.6302 13.8439L21.7634 14.2513L21.4161 13.998C21.3116 13.9223 21.1915 13.8857 21.0688 13.8857C20.9461 13.8857 20.8233 13.9249 20.7189 14.0006L20.3716 14.2539L20.5048 13.8465C20.5857 13.6011 20.4969 13.3347 20.288 13.1833L19.9381 12.93L20.3716 12.9274Z" fill="url(#paint1_linear_198_7617)"/>
</g>
<defs>
<linearGradient id="paint0_linear_198_7617" x1="21" y1="0" x2="21" y2="42" gradientUnits="userSpaceOnUse">
<stop stop-color="#F4C05C"/>
<stop offset="1" stop-color="#D8A136"/>
</linearGradient>
<linearGradient id="paint1_linear_198_7617" x1="20.2787" y1="6.46191" x2="20.2787" y2="32.3081" gradientUnits="userSpaceOnUse">
<stop stop-color="#F4C05C"/>
<stop offset="1" stop-color="#D8A136"/>
</linearGradient>
<clipPath id="clip0_198_7617">
<rect width="42" height="42" rx="21" fill="white"/>
</clipPath>
</defs>
</svg>
