<svg width="72" height="21" viewBox="0 0 72 21" fill="none" xmlns="http://www.w3.org/2000/svg">
<g clip-path="url(#clip0_198_7883)">
<path d="M0.0195312 10.5C0.0195312 16.275 4.68733 21 10.3924 21C16.0975 21 20.7653 16.275 20.7653 10.5C20.7653 4.725 16.0975 0 10.3924 0C4.68733 0 0.0195312 4.725 0.0195312 10.5Z" fill="#181717"/>
<path d="M8.966 16.4715C8.57702 15.8152 8.05837 15.2246 7.41007 14.8309C6.76176 14.4371 6.11346 14.109 5.33549 13.9121C5.27066 13.9121 5.20583 13.9121 5.141 13.9777C5.07617 14.0434 5.07617 14.109 5.07617 14.1746C5.07617 14.2402 5.07617 14.3059 5.141 14.3059C5.9838 15.5527 7.28041 16.4715 8.70668 16.8652H8.77151C8.83634 16.8652 8.83634 16.8652 8.90117 16.8652C8.90117 16.8652 8.966 16.8652 8.966 16.7996L9.03083 16.734C9.03083 16.734 9.03083 16.6684 9.03083 16.6027C9.03083 16.5371 9.03083 16.4715 8.966 16.4715Z" fill="white"/>
<path d="M16.6159 8.72773V8.66211C16.2917 7.48086 15.6434 6.43086 14.7358 5.64336C13.8282 4.85586 12.7909 4.26523 11.6239 4.06836H11.5591C11.4943 4.06836 11.4294 4.06836 11.3646 4.13398C11.2998 4.19961 11.2998 4.26523 11.2998 4.33086V4.39648C11.8832 8.00586 11.4943 11.6809 10.1976 15.0934C10.1976 15.159 10.1328 15.159 10.1328 15.2246C10.1328 15.2902 10.068 15.2902 10.0032 15.2902C9.93833 15.2902 9.93833 15.2902 9.8735 15.2902C9.8735 15.2902 9.80867 15.2902 9.80867 15.2246L9.74384 15.159C9.74384 15.159 9.74384 15.0934 9.74384 15.0277C9.74384 15.0277 9.67901 14.5684 9.67901 14.3715C9.29002 11.2215 8.3824 8.20273 6.89129 5.38086C6.89129 5.31523 6.82646 5.31523 6.82646 5.31523L6.76163 5.24961C6.76163 5.24961 6.6968 5.24961 6.63197 5.24961C6.56714 5.24961 6.56714 5.24961 6.50231 5.24961C5.59468 5.97148 4.88155 6.89023 4.42773 8.00586C4.42773 8.07148 4.42773 8.13711 4.42773 8.20273C4.42773 8.26836 4.49256 8.33398 4.5574 8.33398C5.98367 9.25273 7.15062 10.434 7.99341 11.9434C8.83621 13.3871 9.29002 15.0934 9.35485 16.734C9.35485 16.7996 9.35485 16.8652 9.41968 16.9309C9.48451 16.9965 9.54934 16.9965 9.54934 16.9965C9.67901 16.9965 9.8735 17.0621 10.0032 17.0621C10.068 17.0621 10.1328 17.0621 10.1976 16.9965C10.2625 16.9309 10.2625 16.9309 10.2625 16.8652C10.5866 15.159 11.2998 13.5184 12.4019 12.1402C13.504 10.7621 14.8654 9.71211 16.4862 8.99023C16.551 8.99023 16.551 8.92461 16.6159 8.92461C16.6159 8.79336 16.6159 8.79336 16.6159 8.72773Z" fill="white"/>
<path d="M16.0321 13.7156C16.0321 13.65 16.0321 13.5844 15.9672 13.5188C15.9024 13.4531 15.8376 13.4531 15.7728 13.4531H15.7079C13.6982 13.9125 11.8829 15.0281 10.5863 16.6031C10.5215 16.6687 10.5215 16.7344 10.5215 16.8C10.5215 16.8656 10.5215 16.9312 10.5863 16.9969C10.6511 17.0625 10.716 17.0625 10.7808 17.0625C11.8181 16.9969 12.8554 16.6688 13.763 16.1438C14.6706 15.6188 15.4486 14.8313 15.9672 13.9125C16.0321 13.8469 16.0321 13.7812 16.0321 13.7156Z" fill="white"/>
<path d="M26.1461 14.4371C25.6275 14.4371 25.1088 14.3715 24.655 14.109C24.266 13.9121 23.9419 13.584 23.6826 13.1902C23.4881 12.7309 23.3584 12.2715 23.3584 11.8121V11.6152H25.1737C25.1737 11.9434 25.2385 12.2059 25.3681 12.4684C25.4978 12.5996 25.7571 12.7309 25.9516 12.7309C26.1461 12.7309 26.4054 12.7309 26.5999 12.5996C26.7296 12.534 26.7944 12.3371 26.8592 12.2059C26.9241 12.009 26.9241 11.8121 26.9241 11.6152V6.03711H28.9338V11.5496C28.9987 12.3371 28.7393 13.1246 28.2207 13.7152C27.9614 13.9777 27.5724 14.1746 27.2482 14.3059C26.8592 14.3715 26.5351 14.4371 26.1461 14.4371Z" fill="#181717"/>
<path d="M30.9435 7.28418C30.749 7.28418 30.5546 7.21855 30.4249 7.15293C30.2952 7.0873 30.1656 6.95605 30.0359 6.8248C29.9711 6.69355 29.9062 6.49668 29.9062 6.2998C29.9062 6.10293 29.9711 5.90605 30.0359 5.7748C30.1007 5.64355 30.2304 5.5123 30.4249 5.44668C30.6194 5.38105 30.749 5.31543 30.9435 5.31543C31.138 5.31543 31.3325 5.38105 31.4622 5.44668C31.5918 5.5123 31.7215 5.64355 31.8512 5.7748C31.916 5.90605 31.9808 6.10293 31.9808 6.2998C31.9808 6.49668 31.916 6.62793 31.8512 6.8248C31.7863 6.95605 31.6567 7.0873 31.4622 7.15293C31.3325 7.21855 31.138 7.28418 30.9435 7.28418ZM30.0359 14.2404V8.1373H31.8512V14.2404H30.0359Z" fill="#181717"/>
<path d="M35.8707 14.4371C35.2872 14.4371 34.7037 14.3059 34.2499 14.0434C33.7961 13.7809 33.4071 13.3871 33.1478 12.9277C32.8884 12.4027 32.7588 11.8121 32.7588 11.2215C32.7588 10.6309 32.8884 10.0402 33.1478 9.51523C33.4071 9.05586 33.7312 8.66211 34.2499 8.39961C34.7685 8.13711 35.352 8.00586 35.8707 8.00586C36.4541 8.00586 36.9728 8.13711 37.4914 8.39961C37.9452 8.66211 38.3342 9.05586 38.5287 9.51523C38.788 10.0402 38.9177 10.6309 38.9177 11.2215C38.9177 11.8121 38.788 12.4027 38.5287 12.9277C38.2694 13.3871 37.8804 13.7809 37.4266 14.0434C36.9728 14.3059 36.3893 14.4371 35.8707 14.4371ZM35.8707 13.059C36.13 13.059 36.3893 12.9934 36.5838 12.8621C36.7783 12.6652 36.9728 12.4684 37.0376 12.2059C37.1673 11.8777 37.1673 11.5496 37.1673 11.2215C37.1673 10.8934 37.1024 10.5652 37.0376 10.3027C36.9728 10.0402 36.8431 9.84336 36.6486 9.64648C36.4541 9.44961 36.1948 9.38398 35.9355 9.38398C35.6762 9.38398 35.4817 9.44961 35.2872 9.58086C35.0927 9.71211 34.963 9.97461 34.8334 10.1715C34.7037 10.4996 34.7037 10.8277 34.7037 11.1559C34.7037 11.484 34.7685 11.8121 34.8334 12.1402C34.8982 12.4027 35.0279 12.5996 35.2872 12.7965C35.352 12.9277 35.6113 12.9934 35.8707 13.059Z" fill="#181717"/>
<path d="M43.0018 14.4375C42.4184 14.4375 41.8349 14.3719 41.3162 14.175C40.7976 13.9781 40.3438 13.7156 40.0196 13.3219C39.6955 12.9281 39.501 12.4031 39.501 11.9437V11.8125H41.5107C41.5107 12.0094 41.5756 12.2719 41.7052 12.4031C41.8349 12.6 42.0294 12.6656 42.2887 12.7312C42.548 12.7969 42.8073 12.8625 43.0667 12.8625C43.3908 12.8625 43.7798 12.7969 44.0391 12.6656C44.1688 12.6 44.2336 12.5344 44.3633 12.4031C44.4281 12.2719 44.4929 12.1406 44.4281 12.0094C44.4281 11.8781 44.3633 11.6812 44.2984 11.6156C44.1688 11.4844 44.0391 11.3531 43.9094 11.2875C43.6501 11.1562 43.3908 11.0906 43.1315 11.025L41.6404 10.6312C41.2514 10.5656 40.9272 10.3687 40.6031 10.1062C40.3438 9.90936 40.0844 9.64686 39.9548 9.38436C39.8251 9.05624 39.7603 8.72811 39.7603 8.39999C39.7603 7.87499 39.89 7.41561 40.2141 7.02186C40.5383 6.62811 40.9272 6.36561 41.3811 6.16874C41.8349 5.90624 42.4183 5.84061 42.937 5.90624C43.5205 5.90624 44.0391 5.97186 44.5578 6.16874C45.0116 6.29999 45.4006 6.62811 45.6599 6.95624C45.9192 7.34999 46.1137 7.80936 46.1137 8.26874H44.1688C44.1688 8.13749 44.1039 8.00624 44.0391 7.87499C43.9743 7.74374 43.9095 7.67811 43.7798 7.61249C43.4556 7.48124 43.1315 7.34999 42.8073 7.41561C42.548 7.41561 42.2239 7.48124 41.9645 7.61249C41.8349 7.67811 41.77 7.74374 41.7052 7.80936C41.6404 7.87499 41.6404 8.00624 41.6404 8.13749C41.6404 8.26874 41.6404 8.39999 41.7052 8.53124C41.77 8.66249 41.8997 8.72811 42.0294 8.79374C42.2239 8.85936 42.4832 8.99061 42.6777 8.99061L43.6501 9.25311C44.1688 9.38436 44.6226 9.58124 45.0764 9.77811C45.4654 9.97499 45.7247 10.1719 45.984 10.5C46.2433 10.8281 46.373 11.2875 46.3082 11.6812C46.3082 12.2062 46.1785 12.6656 45.9192 13.125C45.595 13.5187 45.2061 13.8469 44.7522 14.0437C44.2336 14.3062 43.5853 14.4375 43.0018 14.4375Z" fill="#181717"/>
<path d="M49.0306 14.4371C48.6416 14.4371 48.2527 14.3715 47.9285 14.2402C47.6044 14.109 47.345 13.8465 47.2154 13.584C47.0209 13.2559 46.9561 12.9277 46.9561 12.534C46.9561 12.2059 47.0209 11.9434 47.1505 11.6809C47.2802 11.4184 47.4747 11.2215 47.734 11.0246C48.4472 10.6309 49.2251 10.4996 49.9383 10.5652H50.8459V10.3684C50.8459 10.1715 50.8459 9.90898 50.7811 9.71211C50.7162 9.58086 50.5866 9.44961 50.4569 9.31836C50.2624 9.25273 50.0679 9.18711 49.9383 9.18711C49.6789 9.18711 49.4196 9.25273 49.2251 9.38398C49.1603 9.44961 49.0955 9.51523 49.0306 9.58086C48.9658 9.64648 48.9658 9.77773 48.9658 9.84336H47.2154C47.2154 9.44961 47.345 9.12148 47.6044 8.85898C47.8637 8.53086 48.1878 8.33398 48.5768 8.20273C49.0306 8.07148 49.5493 8.00586 50.0679 8.00586C50.5866 8.00586 51.1052 8.07148 51.559 8.26836C51.948 8.39961 52.2073 8.72773 52.4018 9.05586C52.5963 9.51523 52.726 9.97461 52.6611 10.434V14.2402H51.0404L50.9755 13.5184C50.7811 13.7809 50.5866 14.0434 50.2624 14.1746C49.8734 14.3059 49.4196 14.4371 49.0306 14.4371ZM49.6789 13.1246C49.8734 13.1246 50.1327 13.059 50.3272 12.9934C50.5217 12.9277 50.6514 12.7309 50.7162 12.5996C50.8459 12.4027 50.8459 12.1402 50.8459 11.9434V11.5496H50.1976C49.9383 11.5496 49.6789 11.5496 49.4196 11.6152C49.2251 11.6809 49.0955 11.7465 48.9658 11.8777C48.901 11.9434 48.8361 12.009 48.8361 12.0746C48.8361 12.1402 48.7713 12.2715 48.7713 12.3371C48.7713 12.4684 48.7713 12.534 48.8361 12.6652C48.901 12.7965 48.9658 12.8621 49.0306 12.9277C49.2251 13.059 49.4196 13.1246 49.6789 13.1246Z" fill="#181717"/>
<path d="M55.4496 14.4371C55.0606 14.4371 54.6716 14.3715 54.3475 14.2402C54.0233 14.109 53.764 13.8465 53.6343 13.584C53.4398 13.2559 53.375 12.9277 53.375 12.534C53.375 12.2059 53.4398 11.9434 53.5695 11.6809C53.6991 11.4184 53.8936 11.2215 54.153 11.0246C54.8661 10.6309 55.6441 10.4996 56.422 10.4996H57.3297V10.3027C57.3297 10.1059 57.3297 9.84336 57.2648 9.64648C57.2 9.51523 57.0703 9.38398 56.9407 9.31836C56.7462 9.25273 56.5517 9.18711 56.422 9.18711C56.1627 9.18711 55.9034 9.25273 55.7089 9.38398C55.6441 9.44961 55.5792 9.51523 55.5144 9.58086C55.4496 9.64648 55.4496 9.77773 55.4496 9.84336H53.6992C53.6992 9.44961 53.8288 9.12148 54.0881 8.85898C54.3475 8.53086 54.6716 8.33398 55.0606 8.20273C55.5144 8.07148 56.033 8.00586 56.5517 8.00586C57.0703 8.00586 57.589 8.07148 58.0428 8.26836C58.4318 8.39961 58.6911 8.72773 58.8856 9.05586C59.0801 9.51523 59.2097 9.97461 59.1449 10.434V14.2402H57.4593L57.3945 13.5184C57.2 13.7809 57.0055 14.0434 56.6814 14.1746C56.2924 14.3059 55.8386 14.4371 55.4496 14.4371ZM56.0979 13.1246C56.2924 13.1246 56.5517 13.059 56.7462 12.9934C56.9407 12.9277 57.0703 12.7309 57.1352 12.5996C57.2648 12.4027 57.2648 12.1402 57.2648 11.9434V11.5496H56.6165C56.3572 11.5496 56.0979 11.5496 55.8386 11.6152C55.6441 11.6809 55.5144 11.7465 55.3847 11.8777C55.3199 11.9434 55.2551 12.009 55.2551 12.0746C55.2551 12.1402 55.1903 12.2715 55.1903 12.3371C55.1903 12.4684 55.1903 12.534 55.2551 12.6652C55.3199 12.7965 55.3847 12.8621 55.4496 12.9277C55.6441 13.059 55.8386 13.1246 56.0979 13.1246Z" fill="#181717"/>
<path d="M61.4137 14.2408L59.4688 8.1377H61.4137L62.5158 12.2064L63.6179 8.1377H65.3683L63.4234 14.2408H61.4137Z" fill="#181717"/>
<path d="M66.0166 14.2402V8.13711H67.767V8.99023C67.9615 8.66211 68.2208 8.39961 68.545 8.26836C68.8691 8.07148 69.1933 8.00586 69.5823 8.00586C69.9713 8.00586 70.3602 8.07148 70.7492 8.26836C71.0734 8.46523 71.3327 8.72773 71.4624 9.05586C71.6569 9.44961 71.7217 9.90898 71.7217 10.3684V14.3059H69.9064V10.8934C69.9064 10.4996 69.8416 10.1059 69.6471 9.77773C69.5823 9.64648 69.4526 9.58086 69.323 9.51523C69.1933 9.44961 69.0636 9.44961 68.934 9.44961C68.8043 9.44961 68.6098 9.44961 68.4802 9.51523C68.3505 9.58086 68.2208 9.64648 68.0912 9.77773C67.8967 10.1059 67.767 10.4996 67.8319 10.8934V14.2402H66.0166Z" fill="#181717"/>
</g>
<defs>
<clipPath id="clip0_198_7883">
<rect width="72" height="21" fill="white"/>
</clipPath>
</defs>
</svg>
