<svg width="53" height="16" viewBox="0 0 53 16" fill="none" xmlns="http://www.w3.org/2000/svg">
<g clip-path="url(#clip0_198_7858)">
<path d="M12.8572 7.10578C10.3337 5.59737 6.17113 5.45868 3.76208 6.1946C3.37521 6.31269 2.96613 6.09288 2.84891 5.70351C2.73169 5.31396 2.94985 4.90248 3.33697 4.78411C6.10241 3.93913 10.6995 4.10238 13.6047 5.83816C13.9527 6.04602 14.0669 6.49834 13.8605 6.84808C13.6541 7.19826 13.2044 7.3137 12.8572 7.10578ZM12.7746 9.33999C12.5976 9.62919 12.222 9.71979 11.9351 9.54234C9.83119 8.24066 6.62301 7.86358 4.13394 8.62402C3.81116 8.7222 3.47023 8.53904 3.37222 8.21474C3.27493 7.88986 3.45701 7.54732 3.77921 7.44852C6.62264 6.5801 10.1574 7.00073 12.5738 8.49541C12.8607 8.67324 12.951 9.05153 12.7746 9.33999ZM11.8166 11.4857C11.676 11.7178 11.3756 11.7906 11.1458 11.6491C9.30733 10.5182 6.99337 10.2627 4.26825 10.8893C4.00561 10.9499 3.74393 10.7842 3.684 10.52C3.62386 10.2557 3.78779 9.9923 4.05101 9.93198C7.03317 9.24578 9.59131 9.54112 11.6548 10.8103C11.8849 10.9517 11.9573 11.2542 11.8166 11.4857ZM8.22629 0.120167C3.90264 0.120167 0.397461 3.64799 0.397461 7.99987C0.397461 12.3521 3.90264 15.8799 8.22629 15.8799C12.5501 15.8799 16.0551 12.3521 16.0551 7.99987C16.0551 3.64799 12.5501 0.120167 8.22629 0.120167Z" fill="#181717"/>
<path d="M21.6968 7.39483C20.345 7.07037 20.1043 6.84263 20.1043 6.36428C20.1043 5.91215 20.5273 5.60804 21.156 5.60804C21.7656 5.60804 22.3699 5.83904 23.0036 6.3146C23.0228 6.329 23.0468 6.33474 23.0704 6.33097C23.0941 6.3274 23.1149 6.31441 23.1289 6.29465L23.7889 5.35821C23.816 5.31973 23.8086 5.26647 23.7721 5.23702C23.0179 4.62794 22.1687 4.33182 21.176 4.33182C19.7165 4.33182 18.6971 5.21331 18.6971 6.47475C18.6971 7.82741 19.5765 8.3063 21.0962 8.67599C22.3897 8.97588 22.608 9.22708 22.608 9.67627C22.608 10.1739 22.1665 10.4833 21.4561 10.4833C20.6672 10.4833 20.0235 10.2158 19.3036 9.58828C19.2858 9.57284 19.2613 9.56571 19.2386 9.567C19.2149 9.56899 19.1931 9.58008 19.178 9.59842L18.4379 10.4849C18.4069 10.5217 18.4108 10.5766 18.4466 10.6084C19.2844 11.3611 20.3145 11.7588 21.4262 11.7588C22.9989 11.7588 24.0152 10.8937 24.0152 9.55505C24.0152 8.42367 23.3436 7.79797 21.6968 7.39483Z" fill="#181717"/>
<path d="M28.7152 8.91093C28.7152 9.8663 28.1305 10.5329 27.2933 10.5329C26.4657 10.5329 25.8414 9.83601 25.8414 8.91093C25.8414 7.986 26.4657 7.28896 27.2933 7.28896C28.1171 7.28896 28.7152 7.97094 28.7152 8.91093ZM27.5735 6.05279C26.8918 6.05279 26.3327 6.32303 25.8716 6.87679V6.2535C25.8716 6.20429 25.832 6.1642 25.7831 6.1642H24.5728C24.5239 6.1642 24.4844 6.20429 24.4844 6.2535V13.1791C24.4844 13.2283 24.5239 13.2684 24.5728 13.2684H25.7831C25.832 13.2684 25.8716 13.2283 25.8716 13.1791V10.9931C26.3328 11.514 26.892 11.7684 27.5735 11.7684C28.8402 11.7684 30.1224 10.787 30.1224 8.91093C30.1224 7.03446 28.8402 6.05279 27.5735 6.05279Z" fill="#181717"/>
<path d="M33.4092 10.5431C32.5415 10.5431 31.8874 9.84144 31.8874 8.91111C31.8874 7.97689 32.5189 7.29892 33.3892 7.29892C34.2624 7.29892 34.9209 8.00056 34.9209 8.93151C34.9209 9.86564 34.2852 10.5431 33.4092 10.5431ZM33.4092 6.05297C31.778 6.05297 30.5 7.31727 30.5 8.93151C30.5 10.5282 31.7692 11.7793 33.3892 11.7793C35.0262 11.7793 36.3081 10.5192 36.3081 8.91111C36.3081 7.3084 35.035 6.05297 33.4092 6.05297Z" fill="#181717"/>
<path d="M39.7917 6.16443H38.4598V4.79384C38.4598 4.74463 38.4203 4.70464 38.3714 4.70464H37.1613C37.1123 4.70464 37.0725 4.74463 37.0725 4.79384V6.16443H36.4905C36.4417 6.16443 36.4023 6.20452 36.4023 6.25373V7.3007C36.4023 7.34989 36.4417 7.38994 36.4905 7.38994H37.0725V10.0991C37.0725 11.1939 37.6138 11.749 38.6815 11.749C39.1157 11.749 39.4759 11.6588 39.8153 11.465C39.8429 11.4495 39.8601 11.4196 39.8601 11.3878V10.3908C39.8601 10.3599 39.8441 10.331 39.818 10.3148C39.7917 10.2982 39.7589 10.2973 39.7318 10.3108C39.4987 10.4288 39.2733 10.4833 39.0214 10.4833C38.6331 10.4833 38.4598 10.306 38.4598 9.90821V7.38994H39.7917C39.8406 7.38994 39.8799 7.34989 39.8799 7.3007V6.25373C39.8799 6.20452 39.8406 6.16443 39.7917 6.16443Z" fill="#181717"/>
<path d="M44.4321 6.16956V6.00122C44.4321 5.506 44.6207 5.28515 45.0438 5.28515C45.2961 5.28515 45.4988 5.33559 45.7258 5.41181C45.7538 5.42065 45.7829 5.41623 45.8057 5.39939C45.829 5.38254 45.8422 5.35554 45.8422 5.32693V4.30035C45.8422 4.26111 45.8171 4.22639 45.7797 4.21491C45.5399 4.14312 45.233 4.06934 44.7737 4.06934C43.6557 4.06934 43.0648 4.70298 43.0648 5.9011V6.15892H42.4833C42.4345 6.15892 42.3945 6.19891 42.3945 6.24813V7.30046C42.3945 7.34965 42.4345 7.3897 42.4833 7.3897H43.0648V11.5685C43.0648 11.6177 43.1043 11.6577 43.1531 11.6577H44.3633C44.4122 11.6577 44.4521 11.6177 44.4521 11.5685V7.3897H45.5821L47.3132 11.5674C47.1167 12.0063 46.9235 12.0936 46.6596 12.0936C46.4464 12.0936 46.2218 12.0295 45.9922 11.9031C45.9707 11.8911 45.9451 11.8892 45.9218 11.8964C45.8987 11.9047 45.8792 11.9219 45.8694 11.9446L45.4592 12.8504C45.4397 12.8932 45.4563 12.9435 45.4972 12.9657C45.9255 13.1992 46.3122 13.2988 46.7899 13.2988C47.6836 13.2988 48.1776 12.8797 48.6131 11.7524L50.7129 6.29113C50.7234 6.26365 50.7203 6.2327 50.7036 6.20823C50.6869 6.18414 50.6601 6.16956 50.6307 6.16956H49.3707C49.3331 6.16956 49.2992 6.19365 49.2869 6.22931L47.9961 9.94025L46.5823 6.22686C46.5694 6.19233 46.5364 6.16956 46.4997 6.16956H44.4321Z" fill="#181717"/>
<path d="M41.7423 6.16469H40.532C40.4831 6.16469 40.4434 6.20477 40.4434 6.25398V11.569C40.4434 11.6182 40.4831 11.6582 40.532 11.6582H41.7423C41.7911 11.6582 41.831 11.6182 41.831 11.569V6.25398C41.831 6.20477 41.7911 6.16469 41.7423 6.16469Z" fill="#181717"/>
<path d="M41.143 3.7448C40.6636 3.7448 40.2744 4.13558 40.2744 4.6181C40.2744 5.101 40.6636 5.49216 41.143 5.49216C41.6223 5.49216 42.011 5.101 42.011 4.6181C42.011 4.13558 41.6223 3.7448 41.143 3.7448Z" fill="#181717"/>
<path d="M51.7958 6.69291H51.5741V6.97755H51.7958C51.9065 6.97755 51.9726 6.92304 51.9726 6.83516C51.9726 6.74257 51.9065 6.69291 51.7958 6.69291ZM51.9396 7.09895L52.1805 7.43851H51.9774L51.7605 7.12707H51.5741V7.43851H51.404V6.53853H51.8027C52.0104 6.53853 52.1471 6.64554 52.1471 6.8256C52.1471 6.9731 52.0624 7.06326 51.9396 7.09895ZM51.7508 6.23912C51.3145 6.23912 50.9843 6.58812 50.9843 7.01566C50.9843 7.44292 51.3121 7.78732 51.7463 7.78732C52.1825 7.78732 52.513 7.43851 52.513 7.01078C52.513 6.58351 52.1849 6.23912 51.7508 6.23912ZM51.7463 7.87308C51.2673 7.87308 50.8945 7.48585 50.8945 7.01566C50.8945 6.5454 51.2721 6.15377 51.7508 6.15377C52.2297 6.15377 52.6025 6.54098 52.6025 7.01078C52.6025 7.48104 52.2252 7.87308 51.7463 7.87308Z" fill="#181717"/>
</g>
<defs>
<clipPath id="clip0_198_7858">
<rect width="53" height="16" fill="white"/>
</clipPath>
</defs>
</svg>
