<svg width="79" height="15" viewBox="0 0 79 15" fill="none" xmlns="http://www.w3.org/2000/svg">
<path d="M46.5525 6.36576V12.2311C46.5713 12.3658 46.5148 12.5004 46.4205 12.5773C46.3263 12.6542 46.1943 12.6735 46.0812 12.6735C45.9681 12.6735 45.8362 12.6542 45.7419 12.5773C45.6477 12.4811 45.61 12.3658 45.61 12.2311V5.15422C45.5911 4.98114 45.6477 4.80807 45.7796 4.69268C46.0624 4.51961 46.4017 4.51961 46.7033 4.67345C46.8164 4.75038 46.8918 4.86576 46.9295 5.00038L49.5119 11.4042L52.0754 5.00038C52.1131 4.86576 52.2074 4.76961 52.3016 4.67345C52.5844 4.51961 52.9237 4.51961 53.1876 4.69268C53.3007 4.80807 53.3572 4.98114 53.3383 5.15422V12.2119C53.3572 12.3465 53.3007 12.4619 53.2064 12.5581C53.1122 12.635 52.9802 12.6542 52.8671 12.6542C52.7352 12.6542 52.6221 12.635 52.5278 12.5581C52.4336 12.4619 52.3959 12.3465 52.3959 12.2119V6.34653L50.0208 12.1927C49.9831 12.3081 49.9077 12.385 49.8323 12.4619C49.6061 12.6158 49.3234 12.6158 49.116 12.4619C49.0218 12.385 48.9652 12.2888 48.9275 12.1927L46.5525 6.36576ZM60.2373 5.03884C60.2185 4.90422 60.275 4.76961 60.3693 4.67345C60.4824 4.59653 60.5955 4.55807 60.7274 4.5773C60.8594 4.5773 60.9913 4.59653 61.0856 4.67345C61.1798 4.76961 61.2364 4.90422 61.2175 5.03884V9.69268C61.2175 10.1158 61.161 10.5388 61.029 10.9427C60.8971 11.3081 60.7086 11.635 60.4447 11.9235C60.1808 12.2119 59.8415 12.4235 59.4833 12.5581C59.0687 12.7119 58.6163 12.7888 58.1639 12.7888C57.7115 12.7888 57.2779 12.7119 56.8444 12.5581C56.4862 12.4235 56.1658 12.1927 55.9019 11.9235C55.638 11.6542 55.4495 11.3081 55.3176 10.9427C55.1856 10.5388 55.1102 10.1158 55.1291 9.69268V5.03884C55.1102 4.90422 55.1668 4.76961 55.261 4.67345C55.3741 4.59653 55.4872 4.55807 55.6192 4.5773C55.7511 4.5773 55.8642 4.59653 55.9773 4.67345C56.0716 4.76961 56.1093 4.90422 56.1093 5.03884V9.61576C56.0527 10.2311 56.26 10.8465 56.6559 11.3273C57.5418 12.0773 58.8236 12.0773 59.7095 11.3273C60.1054 10.8465 60.2939 10.2311 60.2562 9.61576L60.2373 5.03884ZM66.3069 8.28884C66.8347 8.42345 67.3248 8.71191 67.7018 9.09653C68.0223 9.48114 68.1731 9.98114 68.1542 10.4811C68.1731 10.8465 68.0977 11.1927 67.9469 11.5196C67.8149 11.8081 67.6076 12.0388 67.3814 12.2504C67.1363 12.4427 66.8536 12.5773 66.552 12.6735C66.2315 12.7696 65.9111 12.8081 65.5906 12.8081C65.0629 12.8081 64.5162 12.7311 64.0073 12.5581C63.5172 12.4042 63.0836 12.1158 62.7255 11.7311C62.6501 11.6542 62.5935 11.5581 62.5558 11.4619C62.537 11.4042 62.537 11.3273 62.537 11.2696C62.537 11.135 62.5935 11.0196 62.7066 10.9427C62.8009 10.8465 62.914 10.7888 63.0459 10.7888C63.1025 10.7888 63.1779 10.8273 63.2156 10.8658C63.2721 10.9042 63.3098 10.9427 63.3664 11.0004C63.6491 11.3273 64.0073 11.5965 64.4031 11.7696C64.7801 11.9042 65.176 11.9811 65.5718 11.9619C65.9865 11.9811 66.3823 11.8658 66.7216 11.6158C67.0232 11.385 67.1929 11.0196 67.174 10.6158C67.1929 10.2888 67.0798 9.96191 66.8536 9.71191C66.5331 9.44268 66.175 9.25038 65.7603 9.15422L64.799 8.86576C64.2335 8.73114 63.7057 8.46191 63.2721 8.05807C62.914 7.67345 62.7443 7.17345 62.7632 6.65422C62.7632 6.30807 62.8386 5.96191 63.0082 5.67345C63.159 5.40422 63.3664 5.17345 63.6303 5.00038C63.8753 4.8273 64.1581 4.69268 64.4597 4.59653C64.7613 4.51961 65.0629 4.48114 65.3645 4.46191C65.8545 4.46191 66.3258 4.53884 66.7782 4.73114C67.2306 4.90422 67.6076 5.21191 67.9092 5.59653C67.9657 5.65422 68.0034 5.73114 68.0411 5.80807C68.06 5.86576 68.0788 5.92345 68.0788 6.00038C68.0788 6.11576 68.0223 6.25038 67.928 6.3273C67.8526 6.40422 67.7395 6.44268 67.6264 6.46191C67.551 6.46191 67.4756 6.44268 67.4191 6.40422C67.3437 6.34653 67.2683 6.28884 67.2117 6.23115C66.9855 5.94268 66.6839 5.71191 66.3635 5.53884C66.043 5.40422 65.7037 5.3273 65.3645 5.3273C65.1571 5.3273 64.9686 5.34653 64.7801 5.40422C64.5916 5.46191 64.422 5.53884 64.2712 5.65422C64.1204 5.76961 64.0073 5.90422 63.913 6.05807C63.8188 6.23114 63.7811 6.42345 63.7811 6.61576C63.7811 6.75038 63.7999 6.88499 63.8376 7.01961C63.8753 7.15422 63.9507 7.26961 64.045 7.36576C64.1581 7.48114 64.3089 7.59653 64.4597 7.65422C64.667 7.76961 64.8932 7.84653 65.1194 7.92345L66.3069 8.28884ZM69.6056 5.03884C69.5868 4.90422 69.6433 4.76961 69.7376 4.67345C69.9638 4.53884 70.2277 4.53884 70.4539 4.67345C70.5481 4.76961 70.5858 4.90422 70.5858 5.03884V12.2119C70.6047 12.3465 70.5481 12.4811 70.4539 12.5773C70.2277 12.7119 69.9638 12.7119 69.7376 12.5773C69.6433 12.4811 69.6056 12.3465 69.6056 12.2119V5.03884ZM77.7487 10.5004C77.8052 10.4042 77.8618 10.3081 77.9372 10.2311C77.9937 10.1735 78.088 10.135 78.1822 10.1542C78.2953 10.1542 78.4084 10.1927 78.5027 10.2504C78.6158 10.3273 78.6912 10.4619 78.6723 10.5965C78.6535 10.7888 78.5969 10.9811 78.5027 11.135C78.3896 11.3273 78.2765 11.5196 78.1257 11.6927C78.0691 11.7504 77.9937 11.8465 77.8618 11.9811C77.711 12.135 77.5413 12.2504 77.3529 12.3465C77.1267 12.4811 76.8628 12.5965 76.6177 12.6735C76.2973 12.7696 75.958 12.8081 75.6375 12.8081C75.1286 12.8081 74.6196 12.7119 74.1673 12.5196C73.7337 12.3273 73.3379 12.0388 73.0363 11.6927C72.7158 11.3081 72.4519 10.8658 72.3011 10.385C71.9618 9.26961 71.9618 8.05807 72.3011 6.94268C72.4519 6.46191 72.697 6.01961 73.0363 5.63499C73.3567 5.26961 73.7337 4.98114 74.1673 4.78884C74.6385 4.5773 75.1286 4.48114 75.6375 4.50038C75.958 4.50038 76.2784 4.53884 76.5989 4.63499C76.8439 4.71191 77.089 4.80807 77.3152 4.92345C77.4848 5.01961 77.6544 5.13499 77.8052 5.26961C77.9372 5.38499 78.0126 5.48114 78.088 5.55807C78.2199 5.73114 78.3519 5.92345 78.465 6.11576C78.5781 6.26961 78.6346 6.46191 78.6535 6.65422C78.6723 6.78884 78.5969 6.92345 78.465 7.00038C78.3707 7.05807 78.2388 7.09653 78.1257 7.09653C78.0314 7.09653 77.956 7.0773 77.8806 7.01961C77.8052 6.94268 77.7487 6.86576 77.711 6.78884C77.6167 6.63499 77.5225 6.46191 77.4094 6.3273C77.2963 6.17345 77.1455 6.01961 76.9947 5.90422C76.8251 5.76961 76.6366 5.65422 76.4292 5.5773C76.1842 5.48114 75.9203 5.44268 75.6564 5.44268C75.2794 5.44268 74.9024 5.51961 74.5442 5.69268C74.2238 5.84653 73.9599 6.0773 73.7337 6.36576C73.5075 6.67345 73.3379 7.01961 73.2436 7.40422C73.0174 8.26961 73.0174 9.17345 73.2436 10.0388C73.3379 10.4042 73.5075 10.7696 73.7337 11.0773C73.9411 11.3658 74.2238 11.5965 74.5442 11.7504C74.8835 11.9235 75.2605 12.0004 75.6564 12.0004C75.9391 12.0004 76.2219 11.9619 76.5046 11.8658C76.9005 11.7119 77.2586 11.4235 77.4848 11.0581C77.5979 10.7696 77.6921 10.6158 77.7487 10.5004Z" fill="#181717"/>
<path d="M15.5266 5.73023C15.4889 5.59561 15.47 5.44177 15.4512 5.28792C15.4512 5.11485 15.5266 4.92254 15.6585 4.80715C15.8282 4.69177 16.0167 4.61485 16.224 4.63408C16.3937 4.61485 16.5822 4.67254 16.7329 4.76869C16.846 4.88408 16.9214 5.01869 16.9403 5.17254L18.1467 10.7687L19.3154 5.23023C19.3342 5.01869 19.4473 4.84562 19.6358 4.74946C19.7866 4.67254 19.9751 4.63408 20.1447 4.63408C20.3144 4.63408 20.484 4.67254 20.616 4.76869C20.7856 4.88408 20.8799 5.05715 20.9176 5.26869L22.1051 10.7687L23.3303 5.13408C23.3869 4.82638 23.6696 4.59562 23.9712 4.63408C24.1786 4.61485 24.3671 4.69177 24.5179 4.82638C24.6498 4.94177 24.7064 5.11485 24.7064 5.28792C24.7064 5.44177 24.6875 5.59561 24.631 5.73023L22.9533 12.211C22.9156 12.4033 22.7837 12.5572 22.6329 12.6533C22.4633 12.7302 22.2748 12.7879 22.0863 12.7879C21.8789 12.8072 21.6527 12.7495 21.4642 12.6341C21.3134 12.5187 21.2192 12.3648 21.1815 12.1918L20.0882 7.11485L18.9572 12.1918C18.9384 12.3841 18.8253 12.5379 18.6556 12.6341C18.486 12.7302 18.2975 12.7687 18.109 12.7687C17.9016 12.7879 17.6754 12.7302 17.5058 12.5956C17.3738 12.4802 17.2607 12.3264 17.223 12.1341L15.5266 5.73023ZM27.1945 9.211L25.0834 5.80715C24.9891 5.65331 24.9326 5.48023 24.9326 5.30715C24.9137 4.961 25.1776 4.65331 25.5169 4.63408C25.5546 4.63408 25.5923 4.63408 25.63 4.63408C25.7808 4.61485 25.9504 4.67254 26.0824 4.76869C26.1766 4.86485 26.2709 4.98023 26.3463 5.09561L27.9674 7.84562L29.5507 5.211C29.6261 5.07638 29.7204 4.94177 29.8335 4.80715C29.9466 4.69177 30.1162 4.61485 30.2859 4.63408C30.4744 4.63408 30.644 4.69177 30.7948 4.78792C30.9268 4.88408 31.0022 5.05715 31.0022 5.23023C31.0022 5.30715 30.9833 5.40331 30.9645 5.48023C30.9456 5.57638 30.9079 5.65331 30.8514 5.73023L28.646 9.211V12.1148C28.646 12.2879 28.5894 12.4418 28.4952 12.5764C28.3632 12.7302 28.1559 12.8072 27.9485 12.7687C27.4584 12.7687 27.2322 12.5379 27.2322 12.0956L27.1945 9.211ZM31.7561 5.38408C31.7373 5.17254 31.8127 4.961 31.9635 4.80715C32.1143 4.69177 32.3028 4.61485 32.4913 4.63408C32.6421 4.63408 32.774 4.67254 32.906 4.73023C33.0756 4.82638 33.2076 4.98023 33.283 5.15331L36.1481 10.211V5.30715C36.1293 5.11485 36.1858 4.92254 36.3366 4.78792C36.4874 4.67254 36.6571 4.63408 36.8456 4.63408C37.0341 4.63408 37.2037 4.67254 37.3545 4.78792C37.4865 4.92254 37.5619 5.11485 37.543 5.30715V12.0379C37.543 12.1341 37.543 12.211 37.5242 12.2879C37.5053 12.3648 37.4865 12.461 37.4299 12.5187C37.3734 12.5956 37.3168 12.6533 37.2226 12.6918C37.1095 12.7495 36.9775 12.7687 36.8456 12.7687C36.5251 12.7687 36.2235 12.5764 36.0727 12.2879L33.151 7.44177V12.1148C33.151 12.2879 33.1133 12.4418 33.0191 12.5956C32.8871 12.7495 32.6798 12.8264 32.4724 12.8072C32.2839 12.8264 32.0766 12.7687 31.9258 12.6533C31.7938 12.5187 31.7373 12.3264 31.7561 12.1341V5.38408ZM39.0133 5.28792C38.9944 5.09561 39.0698 4.92254 39.2018 4.78792C39.3526 4.67254 39.5411 4.63408 39.7296 4.63408C39.8992 4.63408 40.0877 4.67254 40.2385 4.78792C40.3705 4.90331 40.4459 5.09561 40.427 5.28792V8.07638L42.9717 5.05715C43.066 4.961 43.1602 4.86485 43.2545 4.76869C43.3676 4.69177 43.4807 4.63408 43.6315 4.63408C43.7257 4.63408 43.8199 4.65331 43.8953 4.69177C43.9707 4.73023 44.0461 4.76869 44.1027 4.82638C44.1592 4.88408 44.2158 4.961 44.2723 5.05715C44.31 5.15331 44.3289 5.24946 44.3289 5.34561C44.3289 5.44177 44.31 5.53792 44.2535 5.61485C44.2158 5.711 44.1404 5.80715 44.065 5.88408L42.2743 7.98023L44.5551 11.7302C44.6305 11.8456 44.6493 11.961 44.6493 12.0956C44.6493 12.2879 44.5928 12.461 44.4608 12.5956C44.31 12.7495 44.1215 12.8264 43.9142 12.8072C43.7634 12.8072 43.6315 12.7687 43.5184 12.6725C43.4053 12.5764 43.311 12.461 43.2356 12.3264L41.2375 9.05715L40.4082 10.0187V12.1148C40.4082 12.2879 40.3516 12.4418 40.2574 12.5956C40.1254 12.7495 39.9181 12.8264 39.7107 12.8072C39.5222 12.8264 39.3149 12.7687 39.1641 12.6533C39.0321 12.5187 38.9756 12.3264 38.9944 12.1341L39.0133 5.28792Z" fill="#181717"/>
<path d="M11.7182 4.30797L11.6428 5.01951C13.7917 7.01951 13.9425 10.4426 11.9821 12.6349C10.0217 14.8272 6.6665 14.9811 4.51764 12.9811C2.36877 10.9618 2.21798 7.55797 4.17834 5.36567C5.17738 4.25028 6.5911 3.61567 8.08023 3.61567C8.62687 3.61567 9.17351 3.71182 9.68245 3.86567L9.739 3.26951C9.19236 3.09644 8.62687 3.01951 8.04253 3.01951C4.80038 3.00028 2.16143 5.67336 2.14258 8.98105C2.14258 8.98105 2.14258 8.98105 2.14258 9.00028C2.21798 12.308 4.85693 14.9618 8.09908 15.0003C11.3412 14.9811 13.9613 12.308 13.9802 9.00028C13.9802 7.15413 13.1508 5.42336 11.7182 4.30797Z" fill="#181717"/>
<path d="M11.4919 6.36539L11.3599 7.53846C11.5861 8.01923 11.6992 8.53846 11.6992 9.05769C11.6615 11.0769 10.0593 12.7308 8.08009 12.75C6.08203 12.7308 4.46095 11.0769 4.46095 9.03846C4.49865 7.01923 6.10088 5.36539 8.08009 5.34616C8.57019 5.34616 9.04143 5.44231 9.49382 5.65385L9.56922 4.90385C9.09798 4.71154 8.58903 4.61539 8.06124 4.61539C5.68618 4.63462 3.76351 6.61539 3.78236 9.03846C3.80121 11.4615 5.74273 13.4231 8.11779 13.4038C10.4929 13.3846 12.4155 11.4231 12.4155 9C12.3967 8.03846 12.0762 7.11539 11.4919 6.36539Z" fill="#181717"/>
<path d="M1.2192 8.80762C1.20035 4.96146 4.23515 1.84608 8.00508 1.80762H8.06163V1.30762H8.00508C3.97125 1.32685 0.691406 4.673 0.691406 8.78839L1.2192 8.80762Z" fill="#181717"/>
<path d="M10.7003 0L9.87091 7.61538C9.21117 7.09615 8.34408 6.94231 7.53355 7.19231C6.25177 7.57692 6.13867 8.57692 6.13867 8.80769C6.13867 9.25 6.45912 10.4615 8.02364 10.7115C9.90861 10.9615 10.3987 9.78846 10.4741 9.38461C10.5683 8.98077 11.0396 4.59615 11.0396 4.59615L11.2846 2.19231C11.2846 2.19231 12.6041 2.13462 13.245 2.76923C13.6597 3.25 13.7728 3.92308 13.5277 4.51923C13.4335 4.78846 13.2262 5.05769 13.49 4.96154C13.8859 4.71154 14.1498 4.30769 14.2629 3.84615C14.3194 3.11538 13.999 2.42308 13.4335 2C13.3016 1.86538 12.246 1.23077 12.0575 1.03846C11.8124 0.807692 11.6428 0.5 11.6051 0.153846L10.7003 0Z" fill="#181717"/>
</svg>
