<svg width="54" height="12" viewBox="0 0 54 12" fill="none" xmlns="http://www.w3.org/2000/svg">
<g clip-path="url(#clip0_198_7845)">
<path d="M16.862 1.87385C16.664 1.13632 16.0805 0.5554 15.3395 0.358283C13.9964 4.673e-05 8.61094 4.673e-05 8.61094 4.673e-05C8.61094 4.673e-05 3.22553 4.673e-05 1.88244 0.358283C1.14152 0.5554 0.557912 1.13632 0.359887 1.87385C0 3.21075 0 5.99999 0 5.99999C0 5.99999 0 8.78934 0.359887 10.1262C0.557912 10.8637 1.14152 11.4446 1.88244 11.6417C3.22553 12 8.61094 12 8.61094 12C8.61094 12 13.9964 12 15.3395 11.6417C16.0805 11.4446 16.664 10.8637 16.862 10.1262C17.222 8.78934 17.222 5.99999 17.222 5.99999C17.222 5.99999 17.222 3.21075 16.862 1.87385Z" fill="#181717"/>
<path d="M6.88867 8.57123L11.3629 5.99984L6.88867 3.42837V8.57123Z" fill="white"/>
<path d="M26.9066 9.73956C27.0009 9.49455 27.0483 9.09409 27.0483 8.53836V6.19671C27.0483 5.65734 27.0009 5.26311 26.9066 5.01375C26.8122 4.76454 26.6459 4.63981 26.4079 4.63981C26.178 4.63981 26.0157 4.76454 25.9214 5.01375C25.827 5.26311 25.7798 5.65734 25.7798 6.19671V8.53836C25.7798 9.09409 25.8249 9.49455 25.9153 9.73956C26.0055 9.98485 26.1696 10.1073 26.4079 10.1073C26.6459 10.1073 26.8122 9.98485 26.9066 9.73956ZM24.9978 10.9165C24.6569 10.6879 24.4146 10.3323 24.2711 9.84991C24.1274 9.36787 24.0557 8.72626 24.0557 7.92531V6.83423C24.0557 6.02516 24.1376 5.37535 24.3019 4.88503C24.4661 4.39468 24.7225 4.03722 25.0717 3.81239C25.4205 3.58771 25.8783 3.47526 26.4449 3.47526C27.0032 3.47526 27.4506 3.58976 27.7873 3.81849C28.1238 4.0473 28.3702 4.40499 28.5263 4.89116C28.6821 5.37749 28.7602 6.02516 28.7602 6.83423V7.92531C28.7602 8.72626 28.6842 9.36998 28.5324 9.85614C28.3804 10.3424 28.134 10.698 27.7934 10.9226C27.4526 11.1473 26.9908 11.2598 26.4079 11.2598C25.8084 11.2598 25.3383 11.1453 24.9978 10.9165Z" fill="#252323"/>
<path d="M51.3714 4.78089C51.2853 4.88716 51.2276 5.06083 51.199 5.30184C51.1701 5.54298 51.156 5.90865 51.156 6.39901V6.93843H52.3997V6.39901C52.3997 5.91692 52.3833 5.55119 52.3505 5.30184C52.3176 5.05262 52.2582 4.87701 52.172 4.77476C52.0857 4.67257 51.9523 4.62147 51.7717 4.62147C51.591 4.62147 51.4576 4.67472 51.3714 4.78089ZM51.156 7.94373V8.32379C51.156 8.80611 51.1701 9.1677 51.199 9.40869C51.2276 9.64983 51.287 9.82557 51.3776 9.93597C51.4679 10.0462 51.6073 10.1014 51.7964 10.1014C52.0507 10.1014 52.2253 10.0033 52.3198 9.8071C52.414 9.61098 52.4653 9.28412 52.4736 8.82633L53.9392 8.91221C53.9475 8.9778 53.9516 9.06765 53.9516 9.18185C53.9516 9.87667 53.7608 10.3957 53.3789 10.7389C52.9972 11.0821 52.4571 11.2538 51.7594 11.2538C50.922 11.2538 50.3348 10.9923 49.9983 10.4691C49.6614 9.94628 49.4932 9.13711 49.4932 8.04184V6.73003C49.4932 5.60219 49.6677 4.77895 50.0167 4.25977C50.3656 3.74085 50.963 3.48135 51.8087 3.48135C52.3915 3.48135 52.839 3.58762 53.1511 3.80006C53.4629 4.01271 53.6827 4.34371 53.81 4.79306C53.9373 5.24263 54.0009 5.86385 54.0009 6.65649V7.94373H51.156Z" fill="#252323"/>
<path d="M20.8594 7.8028L18.9258 0.851747H20.613L21.2904 4.00241C21.4629 4.77901 21.5901 5.44097 21.6721 5.98838H21.7215C21.7789 5.59614 21.9062 4.93831 22.1032 4.0147L22.8052 0.851747H24.4925L22.5343 7.8028V11.1375H20.8594V7.8028Z" fill="#252323"/>
<path d="M34.2477 3.62243V11.1373H32.9176L32.7697 10.2179H32.7329C32.3715 10.9125 31.8296 11.2598 31.1071 11.2598C30.6063 11.2598 30.2369 11.0965 29.9987 10.7695C29.7605 10.4428 29.6416 9.93182 29.6416 9.23713V3.62243H31.3412V9.13902C31.3412 9.47431 31.3782 9.71326 31.452 9.85619C31.5259 9.99934 31.6491 10.0707 31.8215 10.0707C31.9693 10.0707 32.111 10.0259 32.2463 9.93578C32.3819 9.84594 32.4824 9.73174 32.5481 9.59271V3.62243H34.2477Z" fill="#252323"/>
<path d="M42.9655 3.62243V11.1373H41.6354L41.4875 10.2179H41.4508C41.0891 10.9125 40.5473 11.2598 39.8249 11.2598C39.3241 11.2598 38.9546 11.0965 38.7165 10.7695C38.4783 10.4428 38.3594 9.93182 38.3594 9.23713V3.62243H40.059V9.13902C40.059 9.47431 40.0958 9.71326 40.1697 9.85619C40.2437 9.99934 40.3669 10.0707 40.5393 10.0707C40.6871 10.0707 40.8287 10.0259 40.9641 9.93578C41.0996 9.84594 41.2001 9.73174 41.2659 9.59271V3.62243H42.9655Z" fill="#252323"/>
<path d="M38.8662 2.2128H37.1789V11.1375H35.5164V2.2128H33.8291V0.851974H38.8662V2.2128Z" fill="#252323"/>
<path d="M47.0323 7.88937C47.0323 8.43699 47.0095 8.86611 46.9644 9.17655C46.9193 9.48733 46.8433 9.70793 46.7366 9.83855C46.6298 9.96936 46.486 10.0347 46.3056 10.0347C46.1659 10.0347 46.0366 10.0022 45.9176 9.93657C45.7984 9.87125 45.7022 9.77323 45.6282 9.64232V5.37617C45.6856 5.172 45.7841 5.00438 45.9237 4.87358C46.0634 4.743 46.215 4.67745 46.3794 4.67745C46.5519 4.67745 46.6851 4.74493 46.7797 4.87969C46.874 5.01452 46.9397 5.24134 46.9767 5.56017C47.0137 5.87882 47.0323 6.33242 47.0323 6.92083V7.88937ZM48.5901 4.82402C48.4874 4.35015 48.3211 4.00691 48.0913 3.79426C47.8613 3.58193 47.5452 3.4756 47.143 3.4756C46.831 3.4756 46.5395 3.56351 46.2686 3.73913C45.9977 3.91491 45.7882 4.14582 45.6405 4.43184H45.628L45.6282 0.472048H43.9902V11.1375H45.3941L45.5666 10.4266H45.6035C45.7348 10.6799 45.9318 10.8801 46.1946 11.0272C46.4573 11.1743 46.7489 11.2479 47.0692 11.2479C47.6437 11.2479 48.0666 10.9842 48.3377 10.4572C48.6086 9.92995 48.7441 9.10671 48.7441 7.98693V6.7978C48.7441 5.95611 48.6926 5.29818 48.5901 4.82402Z" fill="#252323"/>
</g>
<defs>
<clipPath id="clip0_198_7845">
<rect width="54" height="12" fill="white"/>
</clipPath>
</defs>
</svg>
